<svg width="340" height="95" viewBox="0 0 340 95" fill="none" xmlns="http://www.w3.org/2000/svg">
<rect x="0.0566406" y="0.434326" width="339.887" height="93.8374" rx="16.6305" fill="#444444"/>
<path d="M52.8119 23.3706L59.3117 29.8842H38.2463" stroke="white" stroke-width="2.07882" stroke-linecap="round" stroke-linejoin="round"/>
<path d="M44.76 44.0202L38.2463 37.5066H59.3117" stroke="#F12B2B" stroke-width="2.07882" stroke-linecap="round" stroke-linejoin="round"/>
<path d="M25.442 63.9724V65.1324H23.1345V72.6411H21.7126V65.1324H19.3926V63.9724H25.442ZM28.3039 66.7664C28.5118 66.4171 28.7862 66.1469 29.1271 65.9556C29.4764 65.7561 29.888 65.6563 30.3619 65.6563V67.1281H30.0002C29.4431 67.1281 29.019 67.2694 28.728 67.5522C28.4453 67.8349 28.3039 68.3255 28.3039 69.024V72.6411H26.882V65.7685H28.3039V66.7664ZM31.195 69.1736C31.195 68.4835 31.3363 67.8723 31.6191 67.3401C31.9101 66.808 32.3009 66.3963 32.7915 66.1053C33.2904 65.806 33.8392 65.6563 34.4379 65.6563C34.9784 65.6563 35.4482 65.7644 35.8474 65.9806C36.2548 66.1885 36.5791 66.4504 36.8203 66.7664V65.7685H38.2547V72.6411H36.8203V71.6183C36.5791 71.9426 36.2507 72.2129 35.8349 72.4291C35.4191 72.6453 34.9452 72.7534 34.413 72.7534C33.8226 72.7534 33.2821 72.6037 32.7915 72.3043C32.3009 71.9967 31.9101 71.5726 31.6191 71.0321C31.3363 70.4833 31.195 69.8638 31.195 69.1736ZM36.8203 69.1986C36.8203 68.7246 36.7205 68.313 36.5209 67.9638C36.3297 67.6145 36.0761 67.3484 35.7601 67.1655C35.4441 66.9826 35.1032 66.8911 34.7373 66.8911C34.3714 66.8911 34.0305 66.9826 33.7145 67.1655C33.3985 67.3401 33.1408 67.6021 32.9412 67.9513C32.7499 68.2922 32.6543 68.6997 32.6543 69.1736C32.6543 69.6476 32.7499 70.0634 32.9412 70.4209C33.1408 70.7785 33.3985 71.0529 33.7145 71.2441C34.0388 71.4271 34.3797 71.5186 34.7373 71.5186C35.1032 71.5186 35.4441 71.4271 35.7601 71.2441C36.0761 71.0612 36.3297 70.7951 36.5209 70.4459C36.7205 70.0883 36.8203 69.6726 36.8203 69.1986ZM43.5897 65.6563C44.1302 65.6563 44.6125 65.7685 45.0366 65.9931C45.469 66.2176 45.8058 66.5502 46.0469 66.9909C46.288 67.4316 46.4086 67.9638 46.4086 68.5874V72.6411H44.9992V68.7995C44.9992 68.1841 44.8453 67.7143 44.5377 67.39C44.23 67.0574 43.8101 66.8911 43.2779 66.8911C42.7457 66.8911 42.3217 67.0574 42.0057 67.39C41.698 67.7143 41.5442 68.1841 41.5442 68.7995V72.6411H40.1223V65.7685H41.5442V66.5543C41.777 66.2716 42.0722 66.0513 42.4298 65.8933C42.7956 65.7353 43.1823 65.6563 43.5897 65.6563ZM50.7169 72.7534C50.1764 72.7534 49.69 72.6577 49.2576 72.4665C48.8335 72.2669 48.4968 72.0008 48.2473 71.6682C47.9978 71.3273 47.8648 70.949 47.8482 70.5332H49.32C49.3449 70.8242 49.4821 71.0695 49.7316 71.2691C49.9893 71.4603 50.3095 71.556 50.692 71.556C51.0911 71.556 51.3988 71.4811 51.615 71.3315C51.8395 71.1735 51.9518 70.9739 51.9518 70.7328C51.9518 70.475 51.827 70.2837 51.5776 70.159C51.3364 70.0343 50.9498 69.8971 50.4176 69.7474C49.902 69.606 49.4821 69.4688 49.1578 69.3358C48.8335 69.2027 48.5508 68.999 48.3097 68.7246C48.0768 68.4502 47.9604 68.0885 47.9604 67.6395C47.9604 67.2736 48.0685 66.941 48.2847 66.6416C48.5009 66.334 48.8086 66.0928 49.2077 65.9182C49.6152 65.7436 50.0808 65.6563 50.6047 65.6563C51.3863 65.6563 52.0141 65.8559 52.4881 66.255C52.9704 66.6458 53.2281 67.1821 53.2614 67.864H51.8395C51.8146 67.5563 51.6898 67.311 51.4653 67.1281C51.2408 66.9452 50.9373 66.8537 50.5548 66.8537C50.1806 66.8537 49.8937 66.9244 49.6942 67.0657C49.4946 67.2071 49.3948 67.3942 49.3948 67.627C49.3948 67.8099 49.4613 67.9638 49.5944 68.0885C49.7274 68.2132 49.8896 68.313 50.0808 68.3879C50.2721 68.4544 50.5548 68.5417 50.929 68.6498C51.4279 68.7828 51.8353 68.92 52.1513 69.0614C52.4756 69.1944 52.7542 69.394 52.987 69.6601C53.2198 69.9262 53.3404 70.2796 53.3487 70.7203C53.3487 71.1111 53.2406 71.4603 53.0244 71.768C52.8082 72.0757 52.5006 72.3168 52.1014 72.4914C51.7106 72.6661 51.2491 72.7534 50.7169 72.7534ZM57.7664 66.9285H56.4941V72.6411H55.0598V66.9285H54.249V65.7685H55.0598V65.2821C55.0598 64.4921 55.2676 63.9184 55.6834 63.5608C56.1075 63.195 56.7685 63.012 57.6666 63.012V64.197C57.2342 64.197 56.9307 64.2801 56.7561 64.4464C56.5814 64.6044 56.4941 64.883 56.4941 65.2821V65.7685H57.7664V66.9285ZM65.3253 69.0364C65.3253 69.2942 65.3087 69.527 65.2755 69.7349H60.0244C60.0659 70.2837 60.2697 70.7244 60.6355 71.0571C61.0014 71.3897 61.4504 71.556 61.9826 71.556C62.7476 71.556 63.2881 71.2358 63.6041 70.5956H65.1382C64.9304 71.2275 64.552 71.7472 64.0032 72.1547C63.4627 72.5538 62.7892 72.7534 61.9826 72.7534C61.3257 72.7534 60.7353 72.6079 60.2115 72.3168C59.6959 72.0175 59.2885 71.6017 58.9891 71.0695C58.6981 70.529 58.5526 69.9054 58.5526 69.1986C58.5526 68.4918 58.6939 67.8723 58.9766 67.3401C59.2677 66.7996 59.671 66.3839 60.1865 66.0928C60.7104 65.8018 61.3091 65.6563 61.9826 65.6563C62.6312 65.6563 63.2091 65.7976 63.7163 66.0804C64.2236 66.3631 64.6185 66.7622 64.9013 67.2778C65.184 67.785 65.3253 68.3712 65.3253 69.0364ZM63.8411 68.5874C63.8328 68.0636 63.6457 67.6436 63.2798 67.3277C62.9139 67.0117 62.4607 66.8537 61.9202 66.8537C61.4296 66.8537 61.0097 67.0117 60.6605 67.3277C60.3112 67.6353 60.1034 68.0552 60.0368 68.5874H63.8411ZM68.1466 66.7664C68.3544 66.4171 68.6288 66.1469 68.9698 65.9556C69.319 65.7561 69.7306 65.6563 70.2046 65.6563V67.1281H69.8429C69.2857 67.1281 68.8617 67.2694 68.5706 67.5522C68.2879 67.8349 68.1466 68.3255 68.1466 69.024V72.6411H66.7246V65.7685H68.1466V66.7664ZM72.235 64.858C71.9773 64.858 71.7611 64.7707 71.5864 64.5961C71.4118 64.4215 71.3245 64.2053 71.3245 63.9475C71.3245 63.6897 71.4118 63.4735 71.5864 63.2989C71.7611 63.1243 71.9773 63.037 72.235 63.037C72.4845 63.037 72.6965 63.1243 72.8712 63.2989C73.0458 63.4735 73.1331 63.6897 73.1331 63.9475C73.1331 64.2053 73.0458 64.4215 72.8712 64.5961C72.6965 64.7707 72.4845 64.858 72.235 64.858ZM72.9335 65.7685V72.6411H71.5116V65.7685H72.9335ZM76.2223 66.7664C76.4302 66.4171 76.7046 66.1469 77.0455 65.9556C77.3947 65.7561 77.8063 65.6563 78.2803 65.6563V67.1281H77.9186C77.3615 67.1281 76.9374 67.2694 76.6464 67.5522C76.3636 67.8349 76.2223 68.3255 76.2223 69.024V72.6411H74.8004V65.7685H76.2223V66.7664Z" fill="white"/>
<path d="M138.864 44.7825H120.335C118.367 44.7825 116.787 43.1888 116.787 41.2347V26.1702C116.787 24.2022 118.381 22.6223 120.335 22.6223H138.864C140.832 22.6223 142.412 24.2161 142.412 26.1702V41.2347C142.412 43.1888 140.818 44.7825 138.864 44.7825Z" stroke="#F12B2B" stroke-width="2.07882" stroke-linecap="round" stroke-linejoin="round"/>
<path d="M117.342 29.4961H141.844" stroke="#F12B2B" stroke-width="2.07882" stroke-linecap="round" stroke-linejoin="round"/>
<path d="M120.876 34.5408H125.837" stroke="white" stroke-width="2.07882" stroke-linecap="round" stroke-linejoin="round"/>
<path d="M105.133 68.2881C105.133 67.4399 105.328 66.6791 105.719 66.0055C106.118 65.332 106.655 64.8081 107.328 64.4339C108.01 64.0514 108.754 63.8602 109.561 63.8602C110.484 63.8602 111.303 64.0889 112.018 64.5462C112.741 64.9952 113.265 65.6355 113.59 66.467H111.881C111.656 66.0097 111.345 65.6688 110.945 65.4442C110.546 65.2197 110.085 65.1075 109.561 65.1075C108.987 65.1075 108.476 65.2364 108.027 65.4941C107.578 65.7519 107.224 66.1219 106.967 66.6042C106.717 67.0865 106.592 67.6478 106.592 68.2881C106.592 68.9283 106.717 69.4896 106.967 69.9719C107.224 70.4542 107.578 70.8284 108.027 71.0945C108.476 71.3522 108.987 71.4811 109.561 71.4811C110.085 71.4811 110.546 71.3689 110.945 71.1444C111.345 70.9199 111.656 70.5789 111.881 70.1216H113.59C113.265 70.9531 112.741 71.5934 112.018 72.0424C111.303 72.4914 110.484 72.716 109.561 72.716C108.746 72.716 108.002 72.5289 107.328 72.1547C106.655 71.7722 106.118 71.2441 105.719 70.5706C105.328 69.8971 105.133 69.1362 105.133 68.2881ZM114.78 69.1736C114.78 68.4835 114.921 67.8723 115.204 67.3401C115.495 66.808 115.886 66.3963 116.377 66.1053C116.875 65.806 117.424 65.6563 118.023 65.6563C118.563 65.6563 119.033 65.7644 119.432 65.9806C119.84 66.1885 120.164 66.4504 120.405 66.7664V65.7685H121.84V72.6411H120.405V71.6183C120.164 71.9426 119.836 72.2129 119.42 72.4291C119.004 72.6453 118.53 72.7534 117.998 72.7534C117.408 72.7534 116.867 72.6037 116.377 72.3043C115.886 71.9967 115.495 71.5726 115.204 71.0321C114.921 70.4833 114.78 69.8638 114.78 69.1736ZM120.405 69.1986C120.405 68.7246 120.306 68.313 120.106 67.9638C119.915 67.6145 119.661 67.3484 119.345 67.1655C119.029 66.9826 118.688 66.8911 118.322 66.8911C117.956 66.8911 117.616 66.9826 117.3 67.1655C116.984 67.3401 116.726 67.6021 116.526 67.9513C116.335 68.2922 116.239 68.6997 116.239 69.1736C116.239 69.6476 116.335 70.0634 116.526 70.4209C116.726 70.7785 116.984 71.0529 117.3 71.2441C117.624 71.4271 117.965 71.5186 118.322 71.5186C118.688 71.5186 119.029 71.4271 119.345 71.2441C119.661 71.0612 119.915 70.7951 120.106 70.4459C120.306 70.0883 120.405 69.6726 120.405 69.1986ZM125.129 66.7664C125.337 66.4171 125.612 66.1469 125.952 65.9556C126.302 65.7561 126.713 65.6563 127.187 65.6563V67.1281H126.826C126.268 67.1281 125.844 67.2694 125.553 67.5522C125.271 67.8349 125.129 68.3255 125.129 69.024V72.6411H123.707V65.7685H125.129V66.7664ZM130.153 66.9285V70.7328C130.153 70.9905 130.211 71.1776 130.328 71.294C130.453 71.4021 130.66 71.4562 130.951 71.4562H131.825V72.6411H130.702C130.062 72.6411 129.571 72.4914 129.23 72.1921C128.889 71.8927 128.719 71.4063 128.719 70.7328V66.9285H127.908V65.7685H128.719V64.0598H130.153V65.7685H131.825V66.9285H130.153ZM136.116 72.7534C135.468 72.7534 134.881 72.6079 134.357 72.3168C133.834 72.0175 133.422 71.6017 133.123 71.0695C132.823 70.529 132.674 69.9054 132.674 69.1986C132.674 68.5001 132.827 67.8806 133.135 67.3401C133.443 66.7996 133.863 66.3839 134.395 66.0928C134.927 65.8018 135.522 65.6563 136.178 65.6563C136.835 65.6563 137.43 65.8018 137.962 66.0928C138.494 66.3839 138.914 66.7996 139.222 67.3401C139.53 67.8806 139.683 68.5001 139.683 69.1986C139.683 69.8971 139.525 70.5166 139.209 71.0571C138.893 71.5975 138.461 72.0175 137.912 72.3168C137.372 72.6079 136.773 72.7534 136.116 72.7534ZM136.116 71.5186C136.482 71.5186 136.823 71.4312 137.139 71.2566C137.463 71.082 137.725 70.8201 137.925 70.4708C138.124 70.1216 138.224 69.6975 138.224 69.1986C138.224 68.6997 138.128 68.2798 137.937 67.9388C137.746 67.5896 137.492 67.3277 137.176 67.153C136.86 66.9784 136.519 66.8911 136.154 66.8911C135.788 66.8911 135.447 66.9784 135.131 67.153C134.823 67.3277 134.578 67.5896 134.395 67.9388C134.212 68.2798 134.12 68.6997 134.12 69.1986C134.12 69.9386 134.308 70.5124 134.682 70.9199C135.064 71.319 135.542 71.5186 136.116 71.5186ZM134.145 64.9453C134.212 64.463 134.37 64.1013 134.619 63.8602C134.869 63.6107 135.181 63.486 135.555 63.486C135.713 63.486 135.85 63.5109 135.966 63.5608C136.083 63.6107 136.224 63.6856 136.391 63.7853C136.515 63.8685 136.619 63.9309 136.702 63.9724C136.794 64.014 136.894 64.0348 137.002 64.0348C137.143 64.0348 137.259 63.9932 137.351 63.9101C137.451 63.8186 137.513 63.6856 137.538 63.5109H138.336C138.27 63.9932 138.112 64.3591 137.862 64.6086C137.613 64.8497 137.301 64.9703 136.927 64.9703C136.769 64.9703 136.627 64.9453 136.503 64.8954C136.378 64.8372 136.241 64.7582 136.091 64.6585C135.941 64.567 135.825 64.5046 135.742 64.4714C135.667 64.4298 135.58 64.409 135.48 64.409C135.339 64.409 135.218 64.4547 135.118 64.5462C135.027 64.6377 134.969 64.7707 134.944 64.9453H134.145ZM147.388 69.0364C147.388 69.2942 147.371 69.527 147.338 69.7349H142.087C142.128 70.2837 142.332 70.7244 142.698 71.0571C143.064 71.3897 143.513 71.556 144.045 71.556C144.81 71.556 145.351 71.2358 145.667 70.5956H147.201C146.993 71.2275 146.614 71.7472 146.066 72.1547C145.525 72.5538 144.852 72.7534 144.045 72.7534C143.388 72.7534 142.798 72.6079 142.274 72.3168C141.758 72.0175 141.351 71.6017 141.052 71.0695C140.761 70.529 140.615 69.9054 140.615 69.1986C140.615 68.4918 140.756 67.8723 141.039 67.3401C141.33 66.7996 141.733 66.3839 142.249 66.0928C142.773 65.8018 143.372 65.6563 144.045 65.6563C144.694 65.6563 145.272 65.7976 145.779 66.0804C146.286 66.3631 146.681 66.7622 146.964 67.2778C147.246 67.785 147.388 68.3712 147.388 69.0364ZM145.904 68.5874C145.895 68.0636 145.708 67.6436 145.342 67.3277C144.976 67.0117 144.523 66.8537 143.983 66.8537C143.492 66.8537 143.072 67.0117 142.723 67.3277C142.374 67.6353 142.166 68.0552 142.099 68.5874H145.904ZM151.282 72.7534C150.741 72.7534 150.255 72.6577 149.822 72.4665C149.398 72.2669 149.062 72.0008 148.812 71.6682C148.563 71.3273 148.43 70.949 148.413 70.5332H149.885C149.91 70.8242 150.047 71.0695 150.296 71.2691C150.554 71.4603 150.874 71.556 151.257 71.556C151.656 71.556 151.964 71.4811 152.18 71.3315C152.404 71.1735 152.517 70.9739 152.517 70.7328C152.517 70.475 152.392 70.2837 152.142 70.159C151.901 70.0343 151.515 69.8971 150.982 69.7474C150.467 69.606 150.047 69.4688 149.723 69.3358C149.398 69.2027 149.116 68.999 148.874 68.7246C148.642 68.4502 148.525 68.0885 148.525 67.6395C148.525 67.2736 148.633 66.941 148.849 66.6416C149.066 66.334 149.373 66.0928 149.772 65.9182C150.18 65.7436 150.646 65.6563 151.169 65.6563C151.951 65.6563 152.579 65.8559 153.053 66.255C153.535 66.6458 153.793 67.1821 153.826 67.864H152.404C152.379 67.5563 152.255 67.311 152.03 67.1281C151.806 66.9452 151.502 66.8537 151.12 66.8537C150.745 66.8537 150.458 66.9244 150.259 67.0657C150.059 67.2071 149.96 67.3942 149.96 67.627C149.96 67.8099 150.026 67.9638 150.159 68.0885C150.292 68.2132 150.454 68.313 150.646 68.3879C150.837 68.4544 151.12 68.5417 151.494 68.6498C151.993 68.7828 152.4 68.92 152.716 69.0614C153.04 69.1944 153.319 69.394 153.552 69.6601C153.785 69.9262 153.905 70.2796 153.913 70.7203C153.913 71.1111 153.805 71.4603 153.589 71.768C153.373 72.0757 153.065 72.3168 152.666 72.4914C152.275 72.6661 151.814 72.7534 151.282 72.7534Z" fill="white"/>
<path d="M210.407 26.0454V25.103" stroke="white" stroke-width="2.07882" stroke-linecap="round" stroke-linejoin="round"/>
<path d="M210.407 31.6582V32.5867" stroke="white" stroke-width="2.07882" stroke-linecap="round" stroke-linejoin="round"/>
<path d="M215.396 41.6643H205.418Z" fill="white"/>
<path d="M215.396 41.6643H205.418" stroke="#F12B2B" stroke-width="2.07882" stroke-linecap="round" stroke-linejoin="round"/>
<path d="M215.396 36.7026H205.418Z" fill="white"/>
<path d="M215.396 36.7026H205.418" stroke="#F12B2B" stroke-width="2.07882" stroke-linecap="round" stroke-linejoin="round"/>
<path d="M208.786 30.9929C208.911 31.1873 209.076 31.3527 209.271 31.478C209.474 31.593 209.703 31.6551 209.936 31.6581H210.962C211.137 31.6608 211.312 31.6278 211.474 31.5611C211.631 31.4936 211.773 31.3945 211.89 31.2701C212.015 31.1528 212.114 31.0113 212.181 30.8543C212.248 30.6917 212.281 30.5173 212.278 30.3415C212.268 30.0496 212.166 29.7683 211.987 29.5377C211.807 29.3105 211.559 29.1457 211.28 29.0665L209.534 28.6369C209.255 28.5577 209.008 28.3929 208.827 28.1657C208.648 27.9351 208.546 27.6538 208.536 27.3619C208.534 27.1862 208.567 27.0117 208.633 26.8491C208.701 26.6921 208.8 26.5505 208.924 26.4334C209.041 26.3089 209.183 26.2098 209.34 26.1423C209.503 26.0757 209.677 26.0427 209.853 26.0453H210.878C211.112 26.0484 211.341 26.1104 211.544 26.2255C211.738 26.3507 211.903 26.5161 212.029 26.7105" stroke="white" stroke-width="1.55911" stroke-linecap="round" stroke-linejoin="round"/>
<path d="M216.643 20.8762H204.171C203.16 20.8762 202.19 21.2778 201.476 21.9925C200.761 22.7072 200.359 23.6766 200.359 24.6874V42.7038C200.359 43.7145 200.761 44.684 201.476 45.3986C202.19 46.1135 203.16 46.515 204.171 46.515H216.643C217.654 46.515 218.624 46.1135 219.338 45.3986C220.053 44.684 220.455 43.7145 220.455 42.7038V24.6874C220.455 23.6766 220.053 22.7072 219.338 21.9925C218.624 21.2778 217.654 20.8762 216.643 20.8762Z" stroke="#F12B2B" stroke-width="1.55911" stroke-linecap="round" stroke-linejoin="round"/>
<path d="M198.622 66.5543C198.622 66.995 198.518 67.4108 198.31 67.8016C198.102 68.1924 197.769 68.5126 197.312 68.762C196.855 69.0032 196.269 69.1238 195.553 69.1238H193.982V72.6411H192.56V63.9724H195.553C196.219 63.9724 196.78 64.0889 197.237 64.3217C197.703 64.5462 198.048 64.8539 198.273 65.2447C198.505 65.6355 198.622 66.072 198.622 66.5543ZM195.553 67.9638C196.094 67.9638 196.497 67.8432 196.763 67.6021C197.029 67.3526 197.162 67.0034 197.162 66.5543C197.162 65.6064 196.626 65.1324 195.553 65.1324H193.982V67.9638H195.553ZM199.504 69.1736C199.504 68.4835 199.645 67.8723 199.928 67.3401C200.219 66.808 200.61 66.3963 201.1 66.1053C201.599 65.806 202.148 65.6563 202.747 65.6563C203.287 65.6563 203.757 65.7644 204.156 65.9806C204.564 66.1885 204.888 66.4504 205.129 66.7664V65.7685H206.564V72.6411H205.129V71.6183C204.888 71.9426 204.56 72.2129 204.144 72.4291C203.728 72.6453 203.254 72.7534 202.722 72.7534C202.132 72.7534 201.591 72.6037 201.1 72.3043C200.61 71.9967 200.219 71.5726 199.928 71.0321C199.645 70.4833 199.504 69.8638 199.504 69.1736ZM205.129 69.1986C205.129 68.7246 205.029 68.313 204.83 67.9638C204.639 67.6145 204.385 67.3484 204.069 67.1655C203.753 66.9826 203.412 66.8911 203.046 66.8911C202.68 66.8911 202.339 66.9826 202.023 67.1655C201.708 67.3401 201.45 67.6021 201.25 67.9513C201.059 68.2922 200.963 68.6997 200.963 69.1736C200.963 69.6476 201.059 70.0634 201.25 70.4209C201.45 70.7785 201.708 71.0529 202.023 71.2441C202.348 71.4271 202.689 71.5186 203.046 71.5186C203.412 71.5186 203.753 71.4271 204.069 71.2441C204.385 71.0612 204.639 70.7951 204.83 70.4459C205.029 70.0883 205.129 69.6726 205.129 69.1986ZM211.2 65.6563C211.732 65.6563 212.202 65.7644 212.61 65.9806C213.025 66.1885 213.35 66.4504 213.583 66.7664V65.7685H215.017V72.7534C215.017 73.3853 214.884 73.9466 214.618 74.4372C214.352 74.9361 213.965 75.3269 213.458 75.6097C212.959 75.8924 212.36 76.0337 211.662 76.0337C210.73 76.0337 209.957 75.8134 209.342 75.3727C208.726 74.9403 208.377 74.3499 208.294 73.6015H209.703C209.812 73.9591 210.04 74.246 210.389 74.4622C210.747 74.6867 211.171 74.7989 211.662 74.7989C212.235 74.7989 212.697 74.6243 213.046 74.2751C213.404 73.9258 213.583 73.4186 213.583 72.7534V71.6059C213.341 71.9302 213.013 72.2046 212.597 72.4291C212.19 72.6453 211.724 72.7534 211.2 72.7534C210.602 72.7534 210.053 72.6037 209.554 72.3043C209.063 71.9967 208.672 71.5726 208.381 71.0321C208.099 70.4833 207.957 69.8638 207.957 69.1736C207.957 68.4835 208.099 67.8723 208.381 67.3401C208.672 66.808 209.063 66.3963 209.554 66.1053C210.053 65.806 210.602 65.6563 211.2 65.6563ZM213.583 69.1986C213.583 68.7246 213.483 68.313 213.283 67.9638C213.092 67.6145 212.838 67.3484 212.522 67.1655C212.206 66.9826 211.865 66.8911 211.5 66.8911C211.134 66.8911 210.793 66.9826 210.477 67.1655C210.161 67.3401 209.903 67.6021 209.703 67.9513C209.512 68.2922 209.417 68.6997 209.417 69.1736C209.417 69.6476 209.512 70.0634 209.703 70.4209C209.903 70.7785 210.161 71.0529 210.477 71.2441C210.801 71.4271 211.142 71.5186 211.5 71.5186C211.865 71.5186 212.206 71.4271 212.522 71.2441C212.838 71.0612 213.092 70.7951 213.283 70.4459C213.483 70.0883 213.583 69.6726 213.583 69.1986ZM216.411 69.1736C216.411 68.4835 216.552 67.8723 216.835 67.3401C217.126 66.808 217.517 66.3963 218.007 66.1053C218.506 65.806 219.055 65.6563 219.654 65.6563C220.194 65.6563 220.664 65.7644 221.063 65.9806C221.47 66.1885 221.795 66.4504 222.036 66.7664V65.7685H223.47V72.6411H222.036V71.6183C221.795 71.9426 221.466 72.2129 221.051 72.4291C220.635 72.6453 220.161 72.7534 219.629 72.7534C219.038 72.7534 218.498 72.6037 218.007 72.3043C217.517 71.9967 217.126 71.5726 216.835 71.0321C216.552 70.4833 216.411 69.8638 216.411 69.1736ZM222.036 69.1986C222.036 68.7246 221.936 68.313 221.737 67.9638C221.545 67.6145 221.292 67.3484 220.976 67.1655C220.66 66.9826 220.319 66.8911 219.953 66.8911C219.587 66.8911 219.246 66.9826 218.93 67.1655C218.614 67.3401 218.356 67.6021 218.157 67.9513C217.966 68.2922 217.87 68.6997 217.87 69.1736C217.87 69.6476 217.966 70.0634 218.157 70.4209C218.356 70.7785 218.614 71.0529 218.93 71.2441C219.254 71.4271 219.595 71.5186 219.953 71.5186C220.319 71.5186 220.66 71.4271 220.976 71.2441C221.292 71.0612 221.545 70.7951 221.737 70.4459C221.936 70.0883 222.036 69.6726 222.036 69.1986ZM226.76 66.7664C226.968 66.4171 227.242 66.1469 227.583 65.9556C227.932 65.7561 228.344 65.6563 228.818 65.6563V67.1281H228.456C227.899 67.1281 227.475 67.2694 227.184 67.5522C226.901 67.8349 226.76 68.3255 226.76 69.024V72.6411H225.338V65.7685H226.76V66.7664Z" fill="white"/>
<path d="M286.62 31.4225H281.963C280.674 31.4225 279.635 30.383 279.635 29.0942V24.4377C279.635 23.1488 280.674 22.1094 281.963 22.1094H286.62C287.909 22.1094 288.948 23.1488 288.948 24.4377V29.0942C288.948 30.383 287.909 31.4225 286.62 31.4225Z" stroke="#F12B2B" stroke-width="2.07882" stroke-linecap="round" stroke-linejoin="round"/>
<path d="M300.479 31.4225H295.822C294.533 31.4225 293.494 30.383 293.494 29.0942V24.4377C293.494 23.1488 294.533 22.1094 295.822 22.1094H300.479C301.768 22.1094 302.807 23.1488 302.807 24.4377V29.0942C302.807 30.383 301.768 31.4225 300.479 31.4225Z" stroke="#F12B2B" stroke-width="2.07882" stroke-linecap="round" stroke-linejoin="round"/>
<path d="M286.62 45.2814H281.963C280.674 45.2814 279.635 44.242 279.635 42.9531V38.2965C279.635 37.0077 280.674 35.9683 281.963 35.9683H286.62C287.909 35.9683 288.948 37.0077 288.948 38.2965V42.9531C288.948 44.242 287.909 45.2814 286.62 45.2814Z" stroke="#F12B2B" stroke-width="2.07882" stroke-linecap="round" stroke-linejoin="round"/>
<path d="M300.479 45.2814H295.822C294.533 45.2814 293.494 44.242 293.494 42.9531V38.2965C293.494 37.0077 294.533 35.9683 295.822 35.9683H300.479C301.768 35.9683 302.807 37.0077 302.807 38.2965V42.9531C302.807 44.242 301.768 45.2814 300.479 45.2814Z" stroke="white" stroke-width="2.07882" stroke-linecap="round" stroke-linejoin="round"/>
<path d="M286.585 63.9724V72.6411H285.163V66.704L282.519 72.6411H281.533L278.877 66.704V72.6411H277.455V63.9724H278.989L282.032 70.7702L285.063 63.9724H286.585ZM287.98 69.1736C287.98 68.4835 288.121 67.8723 288.404 67.3401C288.695 66.808 289.086 66.3963 289.576 66.1053C290.075 65.806 290.624 65.6563 291.223 65.6563C291.763 65.6563 292.233 65.7644 292.632 65.9806C293.04 66.1885 293.364 66.4504 293.605 66.7664V65.7685H295.039V72.6411H293.605V71.6183C293.364 71.9426 293.035 72.2129 292.62 72.4291C292.204 72.6453 291.73 72.7534 291.198 72.7534C290.607 72.7534 290.067 72.6037 289.576 72.3043C289.086 71.9967 288.695 71.5726 288.404 71.0321C288.121 70.4833 287.98 69.8638 287.98 69.1736ZM293.605 69.1986C293.605 68.7246 293.505 68.313 293.306 67.9638C293.114 67.6145 292.861 67.3484 292.545 67.1655C292.229 66.9826 291.888 66.8911 291.522 66.8911C291.156 66.8911 290.815 66.9826 290.499 67.1655C290.183 67.3401 289.926 67.6021 289.726 67.9513C289.535 68.2922 289.439 68.6997 289.439 69.1736C289.439 69.6476 289.535 70.0634 289.726 70.4209C289.926 70.7785 290.183 71.0529 290.499 71.2441C290.824 71.4271 291.164 71.5186 291.522 71.5186C291.888 71.5186 292.229 71.4271 292.545 71.2441C292.861 71.0612 293.114 70.7951 293.306 70.4459C293.505 70.0883 293.605 69.6726 293.605 69.1986ZM297.63 64.858C297.373 64.858 297.156 64.7707 296.982 64.5961C296.807 64.4215 296.72 64.2053 296.72 63.9475C296.72 63.6897 296.807 63.4735 296.982 63.2989C297.156 63.1243 297.373 63.037 297.63 63.037C297.88 63.037 298.092 63.1243 298.267 63.2989C298.441 63.4735 298.529 63.6897 298.529 63.9475C298.529 64.2053 298.441 64.4215 298.267 64.5961C298.092 64.7707 297.88 64.858 297.63 64.858ZM298.329 65.7685V72.6411H296.907V65.7685H298.329ZM302.69 72.7534C302.15 72.7534 301.663 72.6577 301.231 72.4665C300.807 72.2669 300.47 72.0008 300.221 71.6682C299.971 71.3273 299.838 70.949 299.822 70.5332H301.293C301.318 70.8242 301.456 71.0695 301.705 71.2691C301.963 71.4603 302.283 71.556 302.665 71.556C303.065 71.556 303.372 71.4811 303.588 71.3315C303.813 71.1735 303.925 70.9739 303.925 70.7328C303.925 70.475 303.8 70.2837 303.551 70.159C303.31 70.0343 302.923 69.8971 302.391 69.7474C301.875 69.606 301.456 69.4688 301.131 69.3358C300.807 69.2027 300.524 68.999 300.283 68.7246C300.05 68.4502 299.934 68.0885 299.934 67.6395C299.934 67.2736 300.042 66.941 300.258 66.6416C300.474 66.334 300.782 66.0928 301.181 65.9182C301.589 65.7436 302.054 65.6563 302.578 65.6563C303.36 65.6563 303.988 65.8559 304.462 66.255C304.944 66.6458 305.202 67.1821 305.235 67.864H303.813C303.788 67.5563 303.663 67.311 303.439 67.1281C303.214 66.9452 302.911 66.8537 302.528 66.8537C302.154 66.8537 301.867 66.9244 301.668 67.0657C301.468 67.2071 301.368 67.3942 301.368 67.627C301.368 67.8099 301.435 67.9638 301.568 68.0885C301.701 68.2132 301.863 68.313 302.054 68.3879C302.246 68.4544 302.528 68.5417 302.902 68.6498C303.401 68.7828 303.809 68.92 304.125 69.0614C304.449 69.1944 304.728 69.394 304.96 69.6601C305.193 69.9262 305.314 70.2796 305.322 70.7203C305.322 71.1111 305.214 71.4603 304.998 71.768C304.782 72.0757 304.474 72.3168 304.075 72.4914C303.684 72.6661 303.223 72.7534 302.69 72.7534Z" fill="white"/>
</svg>
