<svg width="188" height="211" viewBox="0 0 188 211" fill="none" xmlns="http://www.w3.org/2000/svg">
<path d="M0.458627 171.723C0.458627 170.295 0.777379 169.02 1.41488 167.898C2.06625 166.761 2.94628 165.881 4.05498 165.258C5.17754 164.62 6.43176 164.301 7.81764 164.301C9.43912 164.301 10.8596 164.717 12.0792 165.549C13.2988 166.38 14.1511 167.53 14.6362 168.999H11.2893C10.9567 168.306 10.4855 167.787 9.87567 167.44C9.27974 167.094 8.5868 166.921 7.79685 166.921C6.95147 166.921 6.19616 167.122 5.53094 167.523C4.87958 167.912 4.3668 168.466 3.99262 169.187C3.63229 169.907 3.45212 170.753 3.45212 171.723C3.45212 172.679 3.63229 173.524 3.99262 174.259C4.3668 174.979 4.87958 175.541 5.53094 175.943C6.19616 176.331 6.95147 176.525 7.79685 176.525C8.5868 176.525 9.27974 176.352 9.87567 176.005C10.4855 175.645 10.9567 175.118 11.2893 174.425H14.6362C14.1511 175.908 13.2988 177.065 12.0792 177.897C10.8735 178.714 9.45298 179.123 7.81764 179.123C6.43176 179.123 5.17754 178.811 4.05498 178.188C2.94628 177.55 2.06625 176.67 1.41488 175.548C0.777379 174.425 0.458627 173.15 0.458627 171.723ZM22.2359 179.186C21.1272 179.186 20.1293 178.943 19.2424 178.458C18.3554 177.959 17.6555 177.259 17.1428 176.358C16.6438 175.458 16.3944 174.418 16.3944 173.24C16.3944 172.062 16.6508 171.023 17.1636 170.122C17.6902 169.221 18.4039 168.528 19.3047 168.043C20.2056 167.544 21.2103 167.295 22.319 167.295C23.4277 167.295 24.4325 167.544 25.3333 168.043C26.2341 168.528 26.9409 169.221 27.4537 170.122C27.9803 171.023 28.2437 172.062 28.2437 173.24C28.2437 174.418 27.9734 175.458 27.4329 176.358C26.9063 177.259 26.1856 177.959 25.2709 178.458C24.3701 178.943 23.3584 179.186 22.2359 179.186ZM22.2359 176.649C22.7625 176.649 23.2545 176.525 23.7118 176.275C24.183 176.012 24.5572 175.624 24.8344 175.111C25.1116 174.598 25.2502 173.975 25.2502 173.24C25.2502 172.145 24.9591 171.307 24.3771 170.725C23.8088 170.129 23.109 169.831 22.2774 169.831C21.4459 169.831 20.746 170.129 20.1778 170.725C19.6235 171.307 19.3463 172.145 19.3463 173.24C19.3463 174.335 19.6166 175.18 20.157 175.776C20.7114 176.358 21.4043 176.649 22.2359 176.649ZM44.6808 167.316C46.0944 167.316 47.2308 167.752 48.09 168.625C48.9631 169.484 49.3997 170.69 49.3997 172.242V178.999H46.4893V172.637C46.4893 171.737 46.2607 171.051 45.8033 170.579C45.346 170.094 44.7223 169.852 43.9324 169.852C43.1424 169.852 42.5119 170.094 42.0407 170.579C41.5833 171.051 41.3547 171.737 41.3547 172.637V178.999H38.4443V172.637C38.4443 171.737 38.2156 171.051 37.7583 170.579C37.301 170.094 36.6773 169.852 35.8874 169.852C35.0836 169.852 34.4461 170.094 33.9749 170.579C33.5175 171.051 33.2888 171.737 33.2888 172.637V178.999H30.3785V167.482H33.2888V168.875C33.663 168.39 34.1412 168.009 34.7232 167.731C35.3192 167.454 35.9705 167.316 36.6773 167.316C37.5781 167.316 38.3819 167.51 39.0887 167.898C39.7955 168.272 40.343 168.812 40.731 169.519C41.1052 168.854 41.6457 168.32 42.3525 167.918C43.0731 167.517 43.8492 167.316 44.6808 167.316ZM55.0718 169.145C55.446 168.618 55.9587 168.182 56.6101 167.835C57.2753 167.475 58.0306 167.295 58.876 167.295C59.86 167.295 60.7469 167.537 61.5369 168.022C62.3407 168.507 62.9713 169.2 63.4286 170.101C63.8998 170.988 64.1354 172.021 64.1354 173.199C64.1354 174.377 63.8998 175.423 63.4286 176.338C62.9713 177.238 62.3407 177.938 61.5369 178.437C60.7469 178.936 59.86 179.186 58.876 179.186C58.0306 179.186 57.2822 179.012 56.6309 178.666C55.9934 178.319 55.4737 177.883 55.0718 177.356V184.487H52.1614V167.482H55.0718V169.145ZM61.1627 173.199C61.1627 172.506 61.0172 171.91 60.7262 171.411C60.449 170.898 60.0748 170.51 59.6036 170.247C59.1463 169.983 58.6473 169.852 58.1068 169.852C57.5802 169.852 57.0813 169.99 56.6101 170.268C56.1528 170.531 55.7786 170.919 55.4875 171.432C55.2104 171.944 55.0718 172.547 55.0718 173.24C55.0718 173.933 55.2104 174.536 55.4875 175.049C55.7786 175.562 56.1528 175.957 56.6101 176.234C57.0813 176.497 57.5802 176.629 58.1068 176.629C58.6473 176.629 59.1463 176.49 59.6036 176.213C60.0748 175.936 60.449 175.541 60.7262 175.028C61.0172 174.515 61.1627 173.905 61.1627 173.199ZM69.1606 169.27C69.5348 168.66 70.0199 168.182 70.6158 167.835C71.2256 167.489 71.9185 167.316 72.6946 167.316V170.371H71.9255C71.0108 170.371 70.3178 170.586 69.8466 171.016C69.3893 171.445 69.1606 172.194 69.1606 173.261V178.999H66.2503V167.482H69.1606V169.27ZM73.9065 173.199C73.9065 172.034 74.1352 171.002 74.5925 170.101C75.0637 169.2 75.6943 168.507 76.4842 168.022C77.2881 167.537 78.1819 167.295 79.1659 167.295C80.0252 167.295 80.7735 167.468 81.411 167.814C82.0624 168.161 82.5821 168.598 82.9702 169.124V167.482H85.9013V178.999H82.9702V177.315C82.596 177.855 82.0763 178.306 81.411 178.666C80.7597 179.012 80.0044 179.186 79.1451 179.186C78.175 179.186 77.2881 178.936 76.4842 178.437C75.6943 177.938 75.0637 177.238 74.5925 176.338C74.1352 175.423 73.9065 174.377 73.9065 173.199ZM82.9702 173.24C82.9702 172.533 82.8316 171.931 82.5544 171.432C82.2772 170.919 81.903 170.531 81.4318 170.268C80.9606 169.99 80.4548 169.852 79.9143 169.852C79.3738 169.852 78.8749 169.983 78.4175 170.247C77.9602 170.51 77.586 170.898 77.295 171.411C77.0178 171.91 76.8792 172.506 76.8792 173.199C76.8792 173.892 77.0178 174.501 77.295 175.028C77.586 175.541 77.9602 175.936 78.4175 176.213C78.8887 176.49 79.3877 176.629 79.9143 176.629C80.4548 176.629 80.9606 176.497 81.4318 176.234C81.903 175.957 82.2772 175.568 82.5544 175.07C82.8316 174.557 82.9702 173.947 82.9702 173.24ZM104.403 172.991C104.403 173.407 104.375 173.781 104.32 174.113H95.9007C95.97 174.945 96.2611 175.596 96.7738 176.067C97.2866 176.539 97.9172 176.774 98.6656 176.774C99.7465 176.774 100.516 176.31 100.973 175.381H104.112C103.779 176.49 103.142 177.405 102.2 178.125C101.257 178.832 100.1 179.186 98.7279 179.186C97.6192 179.186 96.6214 178.943 95.7344 178.458C94.8613 177.959 94.1753 177.259 93.6764 176.358C93.1913 175.458 92.9488 174.418 92.9488 173.24C92.9488 172.048 93.1913 171.002 93.6764 170.101C94.1614 169.2 94.8405 168.507 95.7136 168.022C96.5867 167.537 97.5915 167.295 98.7279 167.295C99.8228 167.295 100.8 167.53 101.659 168.002C102.532 168.473 103.204 169.145 103.676 170.018C104.161 170.877 104.403 171.868 104.403 172.991ZM101.389 172.159C101.375 171.411 101.105 170.815 100.578 170.371C100.051 169.914 99.407 169.685 98.6448 169.685C97.9241 169.685 97.3143 169.907 96.8154 170.351C96.3303 170.78 96.0324 171.383 95.9215 172.159H101.389ZM111.808 169.873H109.791V178.999H106.839V169.873H105.53V167.482H106.839V166.9C106.839 165.486 107.241 164.447 108.045 163.782C108.849 163.116 110.061 162.805 111.683 162.846V165.299C110.976 165.285 110.484 165.403 110.207 165.653C109.93 165.902 109.791 166.352 109.791 167.004V167.482H111.808V169.873ZM124.4 172.991C124.4 173.407 124.372 173.781 124.316 174.113H115.897C115.966 174.945 116.257 175.596 116.77 176.067C117.283 176.539 117.914 176.774 118.662 176.774C119.743 176.774 120.512 176.31 120.969 175.381H124.108C123.776 176.49 123.138 177.405 122.196 178.125C121.254 178.832 120.096 179.186 118.724 179.186C117.616 179.186 116.618 178.943 115.731 178.458C114.858 177.959 114.172 177.259 113.673 176.358C113.188 175.458 112.945 174.418 112.945 173.24C112.945 172.048 113.188 171.002 113.673 170.101C114.158 169.2 114.837 168.507 115.71 168.022C116.583 167.537 117.588 167.295 118.724 167.295C119.819 167.295 120.796 167.53 121.655 168.002C122.529 168.473 123.201 169.145 123.672 170.018C124.157 170.877 124.4 171.868 124.4 172.991ZM121.385 172.159C121.371 171.411 121.101 170.815 120.575 170.371C120.048 169.914 119.403 169.685 118.641 169.685C117.921 169.685 117.311 169.907 116.812 170.351C116.327 170.78 116.029 171.383 115.918 172.159H121.385ZM129.912 169.873V175.444C129.912 175.832 130.002 176.116 130.183 176.296C130.377 176.462 130.695 176.546 131.139 176.546H132.49V178.999H130.661C128.208 178.999 126.981 177.807 126.981 175.423V169.873H125.609V167.482H126.981V164.634H129.912V167.482H132.49V169.873H129.912ZM145.456 167.482V178.999H142.524V177.543C142.15 178.042 141.658 178.437 141.048 178.728C140.453 179.005 139.801 179.144 139.094 179.144C138.194 179.144 137.397 178.957 136.704 178.583C136.011 178.195 135.463 177.633 135.061 176.899C134.673 176.151 134.479 175.264 134.479 174.238V167.482H137.39V173.822C137.39 174.737 137.618 175.444 138.076 175.943C138.533 176.428 139.157 176.67 139.947 176.67C140.75 176.67 141.381 176.428 141.838 175.943C142.296 175.444 142.524 174.737 142.524 173.822V167.482H145.456ZM147.579 173.199C147.579 172.034 147.807 171.002 148.265 170.101C148.736 169.2 149.366 168.507 150.156 168.022C150.96 167.537 151.854 167.295 152.838 167.295C153.697 167.295 154.446 167.468 155.083 167.814C155.735 168.161 156.254 168.598 156.642 169.124V167.482H159.573V178.999H156.642V177.315C156.268 177.855 155.748 178.306 155.083 178.666C154.432 179.012 153.677 179.186 152.817 179.186C151.847 179.186 150.96 178.936 150.156 178.437C149.366 177.938 148.736 177.238 148.265 176.338C147.807 175.423 147.579 174.377 147.579 173.199ZM156.642 173.24C156.642 172.533 156.504 171.931 156.227 171.432C155.949 170.919 155.575 170.531 155.104 170.268C154.633 169.99 154.127 169.852 153.586 169.852C153.046 169.852 152.547 169.983 152.09 170.247C151.632 170.51 151.258 170.898 150.967 171.411C150.69 171.91 150.551 172.506 150.551 173.199C150.551 173.892 150.69 174.501 150.967 175.028C151.258 175.541 151.632 175.936 152.09 176.213C152.561 176.49 153.06 176.629 153.586 176.629C154.127 176.629 154.633 176.497 155.104 176.234C155.575 175.957 155.949 175.568 156.227 175.07C156.504 174.557 156.642 173.947 156.642 173.24ZM161.668 173.199C161.668 172.034 161.896 171.002 162.354 170.101C162.825 169.2 163.462 168.507 164.266 168.022C165.07 167.537 165.964 167.295 166.948 167.295C167.696 167.295 168.41 167.461 169.089 167.794C169.768 168.112 170.308 168.542 170.71 169.083V163.615H173.662V178.999H170.71V177.294C170.35 177.862 169.844 178.319 169.193 178.666C168.542 179.012 167.786 179.186 166.927 179.186C165.957 179.186 165.07 178.936 164.266 178.437C163.462 177.938 162.825 177.238 162.354 176.338C161.896 175.423 161.668 174.377 161.668 173.199ZM170.731 173.24C170.731 172.533 170.593 171.931 170.315 171.432C170.038 170.919 169.664 170.531 169.193 170.268C168.722 169.99 168.216 169.852 167.675 169.852C167.135 169.852 166.636 169.983 166.179 170.247C165.721 170.51 165.347 170.898 165.056 171.411C164.779 171.91 164.64 172.506 164.64 173.199C164.64 173.892 164.779 174.501 165.056 175.028C165.347 175.541 165.721 175.936 166.179 176.213C166.65 176.49 167.149 176.629 167.675 176.629C168.216 176.629 168.722 176.497 169.193 176.234C169.664 175.957 170.038 175.568 170.315 175.07C170.593 174.557 170.731 173.947 170.731 173.24ZM175.756 173.199C175.756 172.034 175.985 171.002 176.442 170.101C176.914 169.2 177.544 168.507 178.334 168.022C179.138 167.537 180.032 167.295 181.016 167.295C181.875 167.295 182.623 167.468 183.261 167.814C183.912 168.161 184.432 168.598 184.82 169.124V167.482H187.751V178.999H184.82V177.315C184.446 177.855 183.926 178.306 183.261 178.666C182.61 179.012 181.854 179.186 180.995 179.186C180.025 179.186 179.138 178.936 178.334 178.437C177.544 177.938 176.914 177.238 176.442 176.338C175.985 175.423 175.756 174.377 175.756 173.199ZM184.82 173.24C184.82 172.533 184.681 171.931 184.404 171.432C184.127 170.919 183.753 170.531 183.282 170.268C182.811 169.99 182.305 169.852 181.764 169.852C181.224 169.852 180.725 169.983 180.267 170.247C179.81 170.51 179.436 170.898 179.145 171.411C178.868 171.91 178.729 172.506 178.729 173.199C178.729 173.892 178.868 174.501 179.145 175.028C179.436 175.541 179.81 175.936 180.267 176.213C180.739 176.49 181.238 176.629 181.764 176.629C182.305 176.629 182.811 176.497 183.282 176.234C183.753 175.957 184.127 175.568 184.404 175.07C184.681 174.557 184.82 173.947 184.82 173.24ZM22.0477 204.24C22.0477 203.048 22.2902 202.009 22.7753 201.122C23.2604 200.221 23.9325 199.528 24.7918 199.043C25.651 198.544 26.635 198.295 27.7437 198.295C29.1711 198.295 30.3491 198.655 31.2777 199.376C32.2201 200.083 32.8506 201.08 33.1694 202.369H30.0304C29.8641 201.87 29.58 201.482 29.1781 201.205C28.79 200.914 28.305 200.769 27.7229 200.769C26.8914 200.769 26.2331 201.073 25.748 201.683C25.263 202.279 25.0204 203.132 25.0204 204.24C25.0204 205.335 25.263 206.187 25.748 206.797C26.2331 207.393 26.8914 207.691 27.7229 207.691C28.9009 207.691 29.6701 207.164 30.0304 206.111H33.1694C32.8506 207.358 32.2201 208.349 31.2777 209.084C30.3353 209.818 29.1573 210.186 27.7437 210.186C26.635 210.186 25.651 209.943 24.7918 209.458C23.9325 208.959 23.2604 208.266 22.7753 207.379C22.2902 206.478 22.0477 205.432 22.0477 204.24ZM40.4154 210.186C39.3067 210.186 38.3088 209.943 37.4219 209.458C36.5349 208.959 35.835 208.259 35.3223 207.358C34.8234 206.458 34.5739 205.418 34.5739 204.24C34.5739 203.062 34.8303 202.023 35.3431 201.122C35.8697 200.221 36.5834 199.528 37.4842 199.043C38.3851 198.544 39.3898 198.295 40.4985 198.295C41.6072 198.295 42.612 198.544 43.5128 199.043C44.4136 199.528 45.1204 200.221 45.6332 201.122C46.1598 202.023 46.4232 203.062 46.4232 204.24C46.4232 205.418 46.1529 206.458 45.6124 207.358C45.0858 208.259 44.3651 208.959 43.4504 209.458C42.5496 209.943 41.5379 210.186 40.4154 210.186ZM40.4154 207.649C40.942 207.649 41.434 207.525 41.8913 207.275C42.3625 207.012 42.7367 206.624 43.0139 206.111C43.2911 205.598 43.4297 204.975 43.4297 204.24C43.4297 203.145 43.1386 202.307 42.5566 201.725C41.9883 201.129 41.2885 200.831 40.4569 200.831C39.6254 200.831 38.9256 201.129 38.3573 201.725C37.803 202.307 37.5258 203.145 37.5258 204.24C37.5258 205.335 37.7961 206.18 38.3366 206.776C38.8909 207.358 39.5838 207.649 40.4154 207.649ZM62.8603 198.316C64.2739 198.316 65.4103 198.752 66.2695 199.625C67.1426 200.484 67.5792 201.69 67.5792 203.242V209.999H64.6688V203.637C64.6688 202.737 64.4402 202.051 63.9828 201.579C63.5255 201.094 62.9018 200.852 62.1119 200.852C61.3219 200.852 60.6914 201.094 60.2202 201.579C59.7628 202.051 59.5342 202.737 59.5342 203.637V209.999H56.6238V203.637C56.6238 202.737 56.3951 202.051 55.9378 201.579C55.4805 201.094 54.8568 200.852 54.0669 200.852C53.2631 200.852 52.6256 201.094 52.1544 201.579C51.697 202.051 51.4683 202.737 51.4683 203.637V209.999H48.558V198.482H51.4683V199.875C51.8425 199.39 52.3207 199.009 52.9027 198.731C53.4987 198.454 54.15 198.316 54.8568 198.316C55.7576 198.316 56.5615 198.51 57.2683 198.898C57.975 199.272 58.5225 199.812 58.9105 200.519C59.2847 199.854 59.8252 199.32 60.532 198.918C61.2527 198.517 62.0287 198.316 62.8603 198.316ZM79.7015 210.186C78.7591 210.186 77.9137 210.019 77.1653 209.687C76.4169 209.34 75.821 208.876 75.3775 208.294C74.9479 207.712 74.7123 207.067 74.6707 206.361H77.6018C77.6573 206.804 77.8721 207.171 78.2463 207.462C78.6343 207.753 79.1125 207.899 79.6807 207.899C80.235 207.899 80.6646 207.788 80.9695 207.566C81.2883 207.345 81.4477 207.06 81.4477 206.714C81.4477 206.34 81.2536 206.063 80.8656 205.882C80.4914 205.688 79.8885 205.481 79.057 205.259C78.1978 205.051 77.491 204.836 76.9366 204.614C76.3961 204.393 75.9249 204.053 75.523 203.596C75.135 203.138 74.941 202.522 74.941 201.746C74.941 201.108 75.1211 200.526 75.4815 199.999C75.8556 199.473 76.3823 199.057 77.0614 198.752C77.7543 198.447 78.565 198.295 79.4936 198.295C80.8656 198.295 81.9604 198.641 82.7781 199.334C83.5958 200.013 84.0462 200.935 84.1293 202.099H81.3437C81.3021 201.642 81.1081 201.281 80.7617 201.018C80.429 200.741 79.9786 200.602 79.4104 200.602C78.8838 200.602 78.475 200.699 78.1839 200.893C77.9067 201.087 77.7682 201.358 77.7682 201.704C77.7682 202.092 77.9622 202.39 78.3502 202.598C78.7383 202.792 79.3411 202.993 80.1588 203.201C80.9903 203.409 81.6763 203.623 82.2168 203.845C82.7573 204.067 83.2216 204.413 83.6096 204.885C84.0115 205.342 84.2194 205.952 84.2333 206.714C84.2333 207.379 84.0462 207.975 83.672 208.502C83.3117 209.028 82.785 209.444 82.0921 209.749C81.413 210.04 80.6161 210.186 79.7015 210.186ZM97.4945 198.482V209.999H94.5634V208.543C94.1892 209.042 93.6972 209.437 93.0874 209.728C92.4915 210.005 91.8401 210.144 91.1333 210.144C90.2325 210.144 89.4356 209.957 88.7427 209.583C88.0498 209.195 87.5023 208.633 87.1004 207.899C86.7124 207.151 86.5184 206.264 86.5184 205.238V198.482H89.4287V204.822C89.4287 205.737 89.6574 206.444 90.1147 206.943C90.5721 207.428 91.1957 207.67 91.9856 207.67C92.7895 207.67 93.42 207.428 93.8774 206.943C94.3347 206.444 94.5634 205.737 94.5634 204.822V198.482H97.4945ZM99.6177 204.24C99.6177 203.048 99.8602 202.009 100.345 201.122C100.83 200.221 101.502 199.528 102.362 199.043C103.221 198.544 104.205 198.295 105.314 198.295C106.741 198.295 107.919 198.655 108.848 199.376C109.79 200.083 110.421 201.08 110.739 202.369H107.6C107.434 201.87 107.15 201.482 106.748 201.205C106.36 200.914 105.875 200.769 105.293 200.769C104.461 200.769 103.803 201.073 103.318 201.683C102.833 202.279 102.59 203.132 102.59 204.24C102.59 205.335 102.833 206.187 103.318 206.797C103.803 207.393 104.461 207.691 105.293 207.691C106.471 207.691 107.24 207.164 107.6 206.111H110.739C110.421 207.358 109.79 208.349 108.848 209.084C107.905 209.818 106.727 210.186 105.314 210.186C104.205 210.186 103.221 209.943 102.362 209.458C101.502 208.959 100.83 208.266 100.345 207.379C99.8602 206.478 99.6177 205.432 99.6177 204.24ZM123.577 203.991C123.577 204.407 123.55 204.781 123.494 205.113H115.075C115.144 205.945 115.435 206.596 115.948 207.067C116.461 207.539 117.091 207.774 117.84 207.774C118.921 207.774 119.69 207.31 120.147 206.381H123.286C122.954 207.49 122.316 208.405 121.374 209.125C120.431 209.832 119.274 210.186 117.902 210.186C116.793 210.186 115.796 209.943 114.909 209.458C114.036 208.959 113.35 208.259 112.851 207.358C112.366 206.458 112.123 205.418 112.123 204.24C112.123 203.048 112.366 202.002 112.851 201.101C113.336 200.2 114.015 199.507 114.888 199.022C115.761 198.537 116.766 198.295 117.902 198.295C118.997 198.295 119.974 198.53 120.833 199.002C121.706 199.473 122.379 200.145 122.85 201.018C123.335 201.877 123.577 202.868 123.577 203.991ZM120.563 203.159C120.549 202.411 120.279 201.815 119.752 201.371C119.226 200.914 118.581 200.685 117.819 200.685C117.098 200.685 116.489 200.907 115.99 201.351C115.505 201.78 115.207 202.383 115.096 203.159H120.563ZM130.109 210.186C129.166 210.186 128.321 210.019 127.573 209.687C126.824 209.34 126.228 208.876 125.785 208.294C125.355 207.712 125.12 207.067 125.078 206.361H128.009C128.065 206.804 128.279 207.171 128.654 207.462C129.042 207.753 129.52 207.899 130.088 207.899C130.642 207.899 131.072 207.788 131.377 207.566C131.696 207.345 131.855 207.06 131.855 206.714C131.855 206.34 131.661 206.063 131.273 205.882C130.899 205.688 130.296 205.481 129.464 205.259C128.605 205.051 127.898 204.836 127.344 204.614C126.803 204.393 126.332 204.053 125.93 203.596C125.542 203.138 125.348 202.522 125.348 201.746C125.348 201.108 125.528 200.526 125.889 199.999C126.263 199.473 126.79 199.057 127.469 198.752C128.162 198.447 128.972 198.295 129.901 198.295C131.273 198.295 132.368 198.641 133.185 199.334C134.003 200.013 134.453 200.935 134.537 202.099H131.751C131.709 201.642 131.515 201.281 131.169 201.018C130.836 200.741 130.386 200.602 129.818 200.602C129.291 200.602 128.882 200.699 128.591 200.893C128.314 201.087 128.175 201.358 128.175 201.704C128.175 202.092 128.369 202.39 128.757 202.598C129.146 202.792 129.748 202.993 130.566 203.201C131.398 203.409 132.084 203.623 132.624 203.845C133.165 204.067 133.629 204.413 134.017 204.885C134.419 205.342 134.627 205.952 134.641 206.714C134.641 207.379 134.453 207.975 134.079 208.502C133.719 209.028 133.192 209.444 132.499 209.749C131.82 210.04 131.023 210.186 130.109 210.186ZM141.437 210.186C140.494 210.186 139.649 210.019 138.901 209.687C138.152 209.34 137.556 208.876 137.113 208.294C136.683 207.712 136.447 207.067 136.406 206.361H139.337C139.392 206.804 139.607 207.171 139.981 207.462C140.37 207.753 140.848 207.899 141.416 207.899C141.97 207.899 142.4 207.788 142.705 207.566C143.023 207.345 143.183 207.06 143.183 206.714C143.183 206.34 142.989 206.063 142.601 205.882C142.227 205.688 141.624 205.481 140.792 205.259C139.933 205.051 139.226 204.836 138.672 204.614C138.131 204.393 137.66 204.053 137.258 203.596C136.87 203.138 136.676 202.522 136.676 201.746C136.676 201.108 136.856 200.526 137.217 199.999C137.591 199.473 138.117 199.057 138.797 198.752C139.49 198.447 140.3 198.295 141.229 198.295C142.601 198.295 143.696 198.641 144.513 199.334C145.331 200.013 145.781 200.935 145.865 202.099H143.079C143.037 201.642 142.843 201.281 142.497 201.018C142.164 200.741 141.714 200.602 141.146 200.602C140.619 200.602 140.21 200.699 139.919 200.893C139.642 201.087 139.503 201.358 139.503 201.704C139.503 202.092 139.697 202.39 140.085 202.598C140.473 202.792 141.076 202.993 141.894 203.201C142.726 203.409 143.412 203.623 143.952 203.845C144.493 204.067 144.957 204.413 145.345 204.885C145.747 205.342 145.955 205.952 145.968 206.714C145.968 207.379 145.781 207.975 145.407 208.502C145.047 209.028 144.52 209.444 143.827 209.749C143.148 210.04 142.351 210.186 141.437 210.186ZM153.471 210.186C152.363 210.186 151.365 209.943 150.478 209.458C149.591 208.959 148.891 208.259 148.378 207.358C147.879 206.458 147.63 205.418 147.63 204.24C147.63 203.062 147.886 202.023 148.399 201.122C148.926 200.221 149.639 199.528 150.54 199.043C151.441 198.544 152.446 198.295 153.555 198.295C154.663 198.295 155.668 198.544 156.569 199.043C157.47 199.528 158.176 200.221 158.689 201.122C159.216 202.023 159.479 203.062 159.479 204.24C159.479 205.418 159.209 206.458 158.668 207.358C158.142 208.259 157.421 208.959 156.506 209.458C155.606 209.943 154.594 210.186 153.471 210.186ZM153.471 207.649C153.998 207.649 154.49 207.525 154.947 207.275C155.419 207.012 155.793 206.624 156.07 206.111C156.347 205.598 156.486 204.975 156.486 204.24C156.486 203.145 156.195 202.307 155.613 201.725C155.044 201.129 154.344 200.831 153.513 200.831C152.681 200.831 151.982 201.129 151.413 201.725C150.859 202.307 150.582 203.145 150.582 204.24C150.582 205.335 150.852 206.18 151.393 206.776C151.947 207.358 152.64 207.649 153.471 207.649ZM165.377 195.239L165.044 205.28H162.591L162.238 195.239H165.377ZM163.88 210.144C163.353 210.144 162.917 209.985 162.57 209.666C162.238 209.333 162.071 208.924 162.071 208.439C162.071 207.954 162.238 207.552 162.57 207.234C162.917 206.901 163.353 206.735 163.88 206.735C164.393 206.735 164.815 206.901 165.148 207.234C165.481 207.552 165.647 207.954 165.647 208.439C165.647 208.924 165.481 209.333 165.148 209.666C164.815 209.985 164.393 210.144 163.88 210.144Z" fill="white"/>
<circle cx="99.123" cy="72.1686" r="40.7448" fill="#70BE42" stroke="#70BE42" stroke-width="1.66305"/>
<path d="M84.571 71.6488L94.4496 81.5232L114.198 61.7744" stroke="white" stroke-width="8.31527" stroke-linecap="round" stroke-linejoin="round"/>
<path d="M42.2838 108.533C34.47 97.3113 25.5474 109.257 40.2092 110.862C35.7085 122.129 19.0343 114.83 24.5203 118.489C34.6558 120.543 40.5015 115.71 42.8199 110.57C49.3042 108.702 56.9623 104.644 55.7724 100.406C54.8173 99.8013 54.4402 100.24 53.8204 101.209C51.0141 104.68 48.0321 107.282 42.2838 108.533ZM37.4725 106.117C39.8182 107.261 40.3209 109.225 40.3209 109.225C40.3209 109.225 37.5072 109.287 35.586 108.106C33.3801 106.873 34.7052 104.394 37.4725 106.117Z" fill="#BF5DFE"/>
<circle cx="98.6029" cy="132.974" r="7.79557" fill="#F3C266"/>
<circle cx="153.692" cy="79.964" r="7.79557" fill="#BF5DFE"/>
<circle cx="73.6574" cy="22.7965" r="7.79557" fill="#70BE42"/>
<circle cx="123.549" cy="121.54" r="2.59852" fill="#BF5DFE"/>
<circle cx="145.377" cy="62.2938" r="2.59852" fill="#70BE42"/>
<circle cx="46.6327" cy="74.767" r="2.59852" fill="#F3C266"/>
<circle cx="69.4997" cy="123.619" r="3.63793" fill="#70BE42"/>
<circle cx="137.061" cy="38.3874" r="3.63793" fill="#BF5DFE"/>
<circle cx="52.8691" cy="42.5452" r="3.63793" fill="#BF5DFE"/>
<path d="M141.335 101.988C148.556 109.468 164.531 107.329 159.985 110.327C152.369 112.427 135.228 104.181 138.48 102.114C140.906 100.279 141.251 101.091 141.335 101.988Z" fill="#70BE42"/>
<path d="M137.762 108.1C142.915 111.756 148.397 115.412 157.443 116.062C158.083 116.187 159.223 115.823 158.092 117.286C152.771 122.395 128.763 107.104 137.762 108.1Z" fill="#70BE42"/>
<path d="M113.132 20.2292C113.874 19.8109 114.548 21.1278 114.083 21.7255C112.279 24.0465 105.782 18.7986 105.109 15.9602C104.58 13.7292 106.396 11.8709 107.968 11.0987C111.151 9.53077 114.547 8.78272 116.022 6.75212C117.692 4.45233 114.332 -3.27911 117.967 2.88836C121.863 12.4429 107.256 8.68155 106.644 15.1465C106.313 18.6276 111.594 22.0328 113.132 20.2292Z" fill="#F3C266"/>
</svg>
