<svg width="21" height="24" viewBox="0 0 21 24" fill="none" xmlns="http://www.w3.org/2000/svg">
<path d="M13.9984 11.7486C14.5384 11.8449 15.0812 11.9288 15.6179 12.0415C16.2075 12.1656 16.8159 12.2194 17.3548 12.5446C17.8496 12.8431 18.1977 13.2618 18.4177 13.7983C19.046 15.3297 19.4398 16.925 19.5816 18.5776C19.6572 19.4585 19.6848 20.348 19.6621 21.2324C19.6373 22.213 19.0234 22.8464 18.0747 22.9858C17.1938 23.115 16.4304 22.6175 16.0873 21.7383C15.6234 20.5486 14.9366 19.5401 13.7154 19.0693C13.2664 18.8965 12.7799 18.7549 12.3055 18.7379C11.0198 18.6926 9.73016 18.6762 8.44495 18.7317C6.78686 18.8036 5.5706 19.633 4.84581 21.1853C4.72722 21.4397 4.61469 21.6969 4.50161 21.9536C4.17231 22.7037 3.35982 23.1172 2.50981 22.9665C1.66036 22.8158 1.11649 22.2 1.02823 21.3519C0.855035 19.6852 1.11042 18.062 1.45296 16.444C1.66036 15.4651 1.92181 14.5053 2.35316 13.6023C2.67474 12.9298 3.18938 12.4732 3.89266 12.3055C4.79396 12.0902 5.7096 11.9355 6.61863 11.7548C6.65227 11.748 6.68482 11.7361 6.71516 11.6772C6.31691 11.6772 5.9181 11.6625 5.52041 11.68C4.7388 11.7146 3.96822 11.8188 3.22413 12.0908C2.39453 12.3939 1.81425 12.9445 1.53239 13.8119C1.31506 14.4804 1.09277 15.1472 0.878201 15.7999C0.141825 14.9977 1.2075 9.49096 2.36309 8.13411C2.4006 8.57601 2.4017 9.06266 2.49106 9.53175C2.60855 10.1476 2.95054 10.5062 3.36478 10.539C3.37581 10.4705 3.39953 10.3991 3.39622 10.3294C3.33775 9.23772 3.69243 8.25761 4.13756 7.29224C4.41888 6.68208 4.67757 6.0555 4.88387 5.41532C4.99639 5.06633 4.97874 4.67259 5.01735 4.29868C5.02397 4.23749 5.01846 4.17461 5.01846 4.04997C5.51985 4.38932 5.79896 4.81309 5.83095 5.36603C5.86129 5.89234 5.81606 6.42318 5.82985 6.95119C5.84474 7.52792 6.06703 8.0242 6.5243 8.36412C6.74991 8.53182 7.03563 8.61396 7.30757 8.70574C6.42888 6.48663 7.12389 4.61084 8.31808 2.83136C8.3578 2.83589 8.39751 2.84042 8.43723 2.84552C8.42234 3.03304 8.40468 3.22 8.39255 3.40752C8.31919 4.57911 8.43502 5.70368 9.14216 6.68832C9.381 7.02087 9.69652 7.23162 10.0733 7.35229C10.5774 7.51376 10.9288 7.15741 10.8201 6.58861C10.7374 6.15408 10.6265 5.72521 10.5487 5.29011C10.1825 3.25286 10.7004 1.52493 12.2664 0.170914C12.2984 0.143154 12.3442 0.13239 12.4109 0.100098C12.3806 0.275723 12.3668 0.423588 12.3287 0.564655C12.0375 1.64957 12.3436 2.57642 12.9857 3.44718C13.2747 3.83865 13.508 4.28621 13.6945 4.74001C13.7993 4.99438 13.7573 5.31277 13.7794 5.60227C13.7849 5.67592 13.78 5.75014 13.78 5.87987C14.6029 5.34733 14.8534 4.52699 15.0332 3.60297C15.2869 3.97519 15.3713 4.32474 15.3641 4.67769C15.3514 5.27085 15.2913 5.86344 15.2477 6.45604C15.1981 7.12738 15.2433 7.77776 15.6421 8.34939C15.6752 8.39698 15.726 8.43267 15.8126 8.4712C15.6427 6.50136 16.004 4.67939 17.1579 3.0574C17.1314 3.26192 17.1132 3.46814 17.0774 3.67039C16.8435 4.97852 17.1761 6.17107 17.7696 7.31377C18.196 8.13524 18.6362 8.95048 19.0311 9.78839C19.3814 10.5322 19.5667 11.3294 19.5855 12.1616C19.5877 12.2596 19.602 12.3576 19.6103 12.4556C19.6384 12.4653 19.6666 12.4755 19.6947 12.4851C19.9048 12.1333 20.1144 11.782 20.3246 11.4302C20.3478 11.4342 20.3709 11.4381 20.3941 11.4421C20.5839 13.1576 20.5055 14.8538 19.9495 16.5256C19.8883 16.2729 19.8392 16.0157 19.7625 15.7681C19.5496 15.0781 19.34 14.3864 19.1012 13.7054C18.8154 12.8913 18.2407 12.3859 17.4508 12.0902C16.6504 11.7905 14.8329 11.556 13.9984 11.7475V11.7486ZM5.623 13.519C5.00522 13.5179 4.90703 13.6136 4.90373 14.2232C4.90152 14.6526 5.3279 15.2197 5.64396 15.2073C5.9523 15.1948 6.35055 14.6385 6.35276 14.2175C6.35607 13.6306 6.24079 13.5207 5.623 13.519ZM3.68029 15.5415C3.68195 16.1896 3.768 16.2837 4.35765 16.2814C4.76969 16.2803 5.2948 15.8662 5.29811 15.5393C5.30142 15.1994 4.77851 14.7914 4.34055 14.7931C3.74483 14.7948 3.67864 14.8702 3.68029 15.5415ZM5.67154 17.6037C5.87177 17.5216 6.14426 17.4972 6.25844 17.3465C6.55078 16.9607 6.22644 16.0622 5.76917 15.8979C5.68092 15.8662 5.54081 15.8531 5.47849 15.903C5.20986 16.1171 4.91476 16.3166 4.90097 16.7324C4.87394 17.5612 5.08906 17.5601 5.67099 17.6043L5.67154 17.6037ZM7.56295 15.516C7.56295 15.516 7.56406 15.516 7.56461 15.516C7.56461 15.4594 7.56461 15.4027 7.56461 15.3461C7.56295 14.9053 7.45925 14.7999 7.0246 14.7954C6.94186 14.7943 6.85912 14.792 6.77638 14.7931C6.48128 14.7971 6.04663 15.1319 5.97326 15.4243C5.95396 15.5019 5.95396 15.5976 5.98043 15.6718C6.1426 16.1285 6.90766 16.4565 7.32301 16.2287C7.43167 16.1693 7.51 16.0118 7.55578 15.8815C7.59384 15.7727 7.56351 15.639 7.56351 15.516H7.56295ZM14.3139 16.776C14.3189 17.2196 14.6449 17.5465 15.0696 17.5346C15.4673 17.5238 15.8043 17.1669 15.7993 16.7613C15.7944 16.3556 15.4232 15.988 15.0271 15.9959C14.6344 16.0038 14.3089 16.3596 14.3139 16.776ZM14.3073 14.3127C14.3122 14.7206 14.6504 15.0645 15.0508 15.069C15.4265 15.0736 15.7993 14.698 15.8004 14.3133C15.8015 13.9099 15.4342 13.5224 15.0503 13.5224C14.6504 13.5224 14.3023 13.8929 14.3073 14.3127ZM16.2483 14.7841C15.8142 14.7863 15.5164 15.1053 15.5246 15.5602C15.5324 15.9761 15.8457 16.2933 16.2434 16.2894C16.6565 16.2848 16.9847 15.9602 16.9902 15.5495C16.9957 15.12 16.6681 14.7824 16.2483 14.7841ZM13.8561 14.7846C13.4578 14.7801 13.0949 15.1319 13.0993 15.5183C13.1043 15.9398 13.4446 16.2871 13.8539 16.2882C14.2516 16.2888 14.582 15.95 14.5875 15.5347C14.593 15.124 14.2659 14.7892 13.8561 14.7846Z" fill="#F12B2B"/>
</svg>
