<svg width="341" height="160" viewBox="0 0 341 160" fill="none" xmlns="http://www.w3.org/2000/svg">
<rect x="0.777474" y="1.41004" width="339.297" height="157.159" rx="16.1322" fill="white" stroke="#EEEEEE" stroke-width="1.04079"/>
<path d="M26.0166 73.0923H24.6906L19.3576 65.0054V73.0923H18.0316V62.9217H19.3576L24.6906 70.9941V62.9217H26.0166V73.0923ZM31.7594 73.2234C31.0114 73.2234 30.3314 73.0534 29.7194 72.7134C29.1171 72.3734 28.6412 71.8926 28.2915 71.2709C27.9515 70.6395 27.7815 69.9109 27.7815 69.0853C27.7815 68.2693 27.9563 67.5504 28.306 66.9287C28.6654 66.2973 29.1511 65.8165 29.7631 65.4862C30.3751 65.1462 31.0599 64.9762 31.8176 64.9762C32.5753 64.9762 33.2602 65.1462 33.8722 65.4862C34.4841 65.8165 34.965 66.2925 35.3147 66.9142C35.6741 67.5359 35.8538 68.2596 35.8538 69.0853C35.8538 69.9109 35.6692 70.6395 35.3001 71.2709C34.9407 71.8926 34.4501 72.3734 33.8284 72.7134C33.2067 73.0534 32.5171 73.2234 31.7594 73.2234ZM31.7594 72.0577C32.2353 72.0577 32.6822 71.946 33.0999 71.7226C33.5176 71.4992 33.8527 71.1641 34.1053 70.7172C34.3676 70.2704 34.4987 69.7264 34.4987 69.0853C34.4987 68.4441 34.3724 67.9001 34.1199 67.4533C33.8673 67.0065 33.537 66.6762 33.129 66.4625C32.721 66.239 32.2791 66.1273 31.8031 66.1273C31.3174 66.1273 30.8705 66.239 30.4625 66.4625C30.0643 66.6762 29.7437 67.0065 29.5009 67.4533C29.258 67.9001 29.1366 68.4441 29.1366 69.0853C29.1366 69.7361 29.2531 70.2849 29.4863 70.7318C29.7291 71.1786 30.0497 71.5138 30.448 71.7372C30.8462 71.9509 31.2834 72.0577 31.7594 72.0577ZM47.1995 64.9617C47.8212 64.9617 48.3749 65.0928 48.8606 65.3551C49.3463 65.6076 49.73 65.9913 50.0117 66.5062C50.2934 67.021 50.4343 67.6476 50.4343 68.3858V73.0923H49.1229V68.5753C49.1229 67.7787 48.9238 67.1716 48.5255 66.7539C48.1369 66.3265 47.6075 66.1128 46.9372 66.1128C46.2475 66.1128 45.6987 66.3362 45.2907 66.783C44.8827 67.2202 44.6787 67.8564 44.6787 68.6918V73.0923H43.3673V68.5753C43.3673 67.7787 43.1682 67.1716 42.7699 66.7539C42.3814 66.3265 41.852 66.1128 41.1817 66.1128C40.492 66.1128 39.9431 66.3362 39.5352 66.783C39.1272 67.2202 38.9232 67.8564 38.9232 68.6918V73.0923H37.5972V65.1074H38.9232V66.2585C39.1855 65.8408 39.5352 65.5202 39.9723 65.2968C40.4191 65.0734 40.9097 64.9617 41.444 64.9617C42.1142 64.9617 42.7068 65.1122 43.2216 65.4134C43.7365 65.7145 44.1202 66.1565 44.3727 66.7393C44.5962 66.1759 44.9653 65.7388 45.4801 65.4279C45.995 65.1171 46.5681 64.9617 47.1995 64.9617ZM59.8949 68.7938C59.8949 69.0464 59.8803 69.3135 59.8511 69.5952H53.469C53.5176 70.3821 53.7847 70.9989 54.2704 71.4458C54.7659 71.8829 55.3633 72.1015 56.0627 72.1015C56.6358 72.1015 57.1118 71.9703 57.4906 71.708C57.8792 71.436 58.1512 71.0766 58.3066 70.6298H59.7346C59.5209 71.3972 59.0935 72.0237 58.4523 72.5094C57.8112 72.9854 57.0147 73.2234 56.0627 73.2234C55.305 73.2234 54.625 73.0534 54.0227 72.7134C53.4302 72.3734 52.9639 71.8926 52.6239 71.2709C52.2839 70.6395 52.1139 69.9109 52.1139 69.0853C52.1139 68.2596 52.2791 67.5359 52.6093 66.9142C52.9396 66.2925 53.401 65.8165 53.9936 65.4862C54.5959 65.1462 55.2856 64.9762 56.0627 64.9762C56.8204 64.9762 57.4906 65.1414 58.0735 65.4716C58.6563 65.8019 59.1032 66.2585 59.414 66.8413C59.7346 67.4144 59.8949 68.0653 59.8949 68.7938ZM58.5252 68.517C58.5252 68.0119 58.4135 67.5796 58.19 67.2202C57.9666 66.851 57.6606 66.5742 57.2721 66.3896C56.8932 66.1953 56.4707 66.0982 56.0044 66.0982C55.3341 66.0982 54.761 66.3119 54.285 66.7393C53.8187 67.1667 53.5516 67.7593 53.4836 68.517H58.5252Z" fill="#9D9D9D"/>
<path d="M19.3576 95.2382V98.6332H23.0586V99.726H19.3576V103.223H23.4958V104.316H18.0316V94.1453H23.4958V95.2382H19.3576ZM29.3926 96.1853C30.364 96.1853 31.1508 96.4816 31.7531 97.0741C32.3554 97.657 32.6565 98.5021 32.6565 99.6095V104.316H31.3451V99.7989C31.3451 99.0024 31.146 98.3952 30.7477 97.9775C30.3494 97.5501 29.8054 97.3364 29.1157 97.3364C28.4163 97.3364 27.8578 97.555 27.4401 97.9921C27.0321 98.4292 26.8281 99.0655 26.8281 99.9009V104.316H25.5021V96.331H26.8281V97.4675C27.0904 97.0596 27.4449 96.7438 27.8918 96.5204C28.3483 96.297 28.8486 96.1853 29.3926 96.1853ZM34.327 100.294C34.327 99.4783 34.4922 98.7644 34.8225 98.1524C35.1527 97.5307 35.6044 97.0498 36.1776 96.7098C36.7604 96.3699 37.4112 96.1999 38.1301 96.1999C38.7518 96.1999 39.3298 96.3456 39.864 96.637C40.3983 96.9187 40.8063 97.2927 41.088 97.759V93.5334H42.4285V104.316H41.088V102.815C40.8257 103.291 40.4372 103.685 39.9223 103.995C39.4075 104.296 38.8052 104.447 38.1155 104.447C37.4064 104.447 36.7604 104.272 36.1776 103.923C35.6044 103.573 35.1527 103.082 34.8225 102.451C34.4922 101.819 34.327 101.101 34.327 100.294ZM41.088 100.309C41.088 99.7066 40.9666 99.1821 40.7237 98.7352C40.4809 98.2884 40.1506 97.9484 39.7329 97.7152C39.3249 97.4724 38.8732 97.351 38.3778 97.351C37.8824 97.351 37.4307 97.4675 37.0227 97.7007C36.6147 97.9338 36.2893 98.2738 36.0464 98.7206C35.8036 99.1675 35.6821 99.692 35.6821 100.294C35.6821 100.906 35.8036 101.441 36.0464 101.897C36.2893 102.344 36.6147 102.689 37.0227 102.932C37.4307 103.165 37.8824 103.281 38.3778 103.281C38.8732 103.281 39.3249 103.165 39.7329 102.932C40.1506 102.689 40.4809 102.344 40.7237 101.897C40.9666 101.441 41.088 100.911 41.088 100.309ZM51.9548 100.017C51.9548 100.27 51.9402 100.537 51.9111 100.819H45.529C45.5775 101.606 45.8447 102.223 46.3304 102.669C46.8258 103.107 47.4232 103.325 48.1226 103.325C48.6957 103.325 49.1717 103.194 49.5506 102.932C49.9391 102.66 50.2111 102.3 50.3666 101.853H51.7945C51.5808 102.621 51.1534 103.247 50.5123 103.733C49.8711 104.209 49.0746 104.447 48.1226 104.447C47.3649 104.447 46.6849 104.277 46.0827 103.937C45.4901 103.597 45.0238 103.116 44.6839 102.495C44.3439 101.863 44.1739 101.135 44.1739 100.309C44.1739 99.4832 44.339 98.7595 44.6693 98.1378C44.9996 97.5161 45.461 97.0401 46.0535 96.7098C46.6558 96.3699 47.3455 96.1999 48.1226 96.1999C48.8803 96.1999 49.5506 96.365 50.1334 96.6953C50.7163 97.0256 51.1631 97.4821 51.4739 98.065C51.7945 98.6381 51.9548 99.2889 51.9548 100.017ZM50.5851 99.7406C50.5851 99.2355 50.4734 98.8032 50.25 98.4438C50.0266 98.0747 49.7206 97.7978 49.332 97.6132C48.9532 97.419 48.5306 97.3218 48.0643 97.3218C47.3941 97.3218 46.8209 97.5355 46.3449 97.963C45.8787 98.3904 45.6115 98.9829 45.5435 99.7406H50.5851ZM55.031 97.6278C55.2641 97.1713 55.5944 96.8167 56.0218 96.5641C56.4589 96.3116 56.9884 96.1853 57.6101 96.1853V97.555H57.2604C55.7741 97.555 55.031 98.3612 55.031 99.9738V104.316H53.705V96.331H55.031V97.6278ZM66.4262 100.017C66.4262 100.27 66.4116 100.537 66.3825 100.819H60.0004C60.049 101.606 60.3161 102.223 60.8018 102.669C61.2972 103.107 61.8946 103.325 62.594 103.325C63.1672 103.325 63.6431 103.194 64.022 102.932C64.4105 102.66 64.6825 102.3 64.838 101.853H66.2659C66.0522 102.621 65.6248 103.247 64.9837 103.733C64.3425 104.209 63.546 104.447 62.594 104.447C61.8363 104.447 61.1564 104.277 60.5541 103.937C59.9615 103.597 59.4953 103.116 59.1553 102.495C58.8153 101.863 58.6453 101.135 58.6453 100.309C58.6453 99.4832 58.8104 98.7595 59.1407 98.1378C59.471 97.5161 59.9324 97.0401 60.5249 96.7098C61.1272 96.3699 61.8169 96.1999 62.594 96.1999C63.3517 96.1999 64.022 96.365 64.6048 96.6953C65.1877 97.0256 65.6345 97.4821 65.9454 98.065C66.2659 98.6381 66.4262 99.2889 66.4262 100.017ZM65.0565 99.7406C65.0565 99.2355 64.9448 98.8032 64.7214 98.4438C64.498 98.0747 64.192 97.7978 63.8034 97.6132C63.4246 97.419 63.002 97.3218 62.5357 97.3218C61.8655 97.3218 61.2923 97.5355 60.8164 97.963C60.3501 98.3904 60.083 98.9829 60.015 99.7406H65.0565ZM71.5715 103.325C72.1543 103.325 72.64 103.189 73.0286 102.917C73.4171 102.645 73.6843 102.257 73.83 101.751H75.258C75.0637 102.509 74.68 103.131 74.1068 103.617C73.5434 104.092 72.8343 104.364 71.9795 104.432V105.161C72.5526 105.151 73.0092 105.273 73.3491 105.525C73.6891 105.778 73.8591 106.137 73.8591 106.604C73.8591 107.06 73.694 107.424 73.3637 107.696C73.0334 107.968 72.606 108.104 72.0815 108.104H70.4058V107.245H71.8192C72.1398 107.245 72.3729 107.196 72.5186 107.099C72.674 107.002 72.7517 106.837 72.7517 106.604C72.7517 106.38 72.674 106.22 72.5186 106.123C72.3729 106.026 72.1398 105.977 71.8192 105.977H71.0906V104.418C70.4204 104.35 69.8278 104.141 69.313 103.791C68.7981 103.432 68.395 102.956 68.1036 102.363C67.8219 101.761 67.681 101.076 67.681 100.309C67.681 99.4832 67.8462 98.7644 68.1764 98.1524C68.5067 97.5307 68.9633 97.0498 69.5461 96.7098C70.1387 96.3699 70.8138 96.1999 71.5715 96.1999C72.5526 96.1999 73.3589 96.4379 73.9903 96.9138C74.6314 97.3898 75.054 98.0504 75.258 98.8955H73.83C73.694 98.4098 73.4269 98.0261 73.0286 97.7444C72.64 97.4627 72.1543 97.3218 71.5715 97.3218C70.8138 97.3218 70.2018 97.5841 69.7355 98.1087C69.2693 98.6235 69.0361 99.3569 69.0361 100.309C69.0361 101.271 69.2693 102.014 69.7355 102.538C70.2018 103.063 70.8138 103.325 71.5715 103.325ZM80.5097 104.447C79.7617 104.447 79.0817 104.277 78.4697 103.937C77.8675 103.597 77.3915 103.116 77.0418 102.495C76.7018 101.863 76.5318 101.135 76.5318 100.309C76.5318 99.4929 76.7066 98.7741 77.0563 98.1524C77.4157 97.521 77.9014 97.0401 78.5134 96.7098C79.1254 96.3699 79.8103 96.1999 80.5679 96.1999C81.3256 96.1999 82.0105 96.3699 82.6225 96.7098C83.2344 97.0401 83.7153 97.5161 84.065 98.1378C84.4244 98.7595 84.6041 99.4832 84.6041 100.309C84.6041 101.135 84.4196 101.863 84.0504 102.495C83.691 103.116 83.2004 103.597 82.5787 103.937C81.9571 104.277 81.2674 104.447 80.5097 104.447ZM80.5097 103.281C80.9856 103.281 81.4325 103.17 81.8502 102.946C82.2679 102.723 82.603 102.388 82.8556 101.941C83.1179 101.494 83.249 100.95 83.249 100.309C83.249 99.6678 83.1227 99.1238 82.8702 98.6769C82.6176 98.2301 82.2873 97.8998 81.8793 97.6861C81.4713 97.4627 81.0294 97.351 80.5534 97.351C80.0677 97.351 79.6208 97.4627 79.2128 97.6861C78.8146 97.8998 78.494 98.2301 78.2512 98.6769C78.0083 99.1238 77.8869 99.6678 77.8869 100.309C77.8869 100.96 78.0034 101.509 78.2366 101.955C78.4794 102.402 78.8 102.737 79.1983 102.961C79.5965 103.175 80.0337 103.281 80.5097 103.281Z" fill="#9D9D9D"/>
<path d="M17.5362 130.454C17.5362 129.463 17.7596 128.575 18.2065 127.788C18.6533 126.991 19.2605 126.37 20.0279 125.923C20.805 125.476 21.6647 125.252 22.6069 125.252C23.7143 125.252 24.6809 125.52 25.5066 126.054C26.3323 126.588 26.9345 127.346 27.3134 128.327H25.7251C25.4434 127.715 25.0354 127.244 24.5012 126.914C23.9766 126.583 23.3452 126.418 22.6069 126.418C21.8978 126.418 21.2615 126.583 20.6981 126.914C20.1347 127.244 19.6927 127.715 19.3722 128.327C19.0516 128.929 18.8913 129.638 18.8913 130.454C18.8913 131.261 19.0516 131.97 19.3722 132.582C19.6927 133.184 20.1347 133.65 20.6981 133.98C21.2615 134.311 21.8978 134.476 22.6069 134.476C23.3452 134.476 23.9766 134.316 24.5012 133.995C25.0354 133.665 25.4434 133.194 25.7251 132.582H27.3134C26.9345 133.553 26.3323 134.306 25.5066 134.84C24.6809 135.365 23.7143 135.627 22.6069 135.627C21.6647 135.627 20.805 135.408 20.0279 134.971C19.2605 134.524 18.6533 133.908 18.2065 133.121C17.7596 132.334 17.5362 131.445 17.5362 130.454ZM30.6131 126.462V129.857H34.3142V130.95H30.6131V134.447H34.7513V135.54H29.2872V125.369H34.7513V126.462H30.6131ZM43.5478 128.356C43.5478 129.201 43.2563 129.905 42.6735 130.469C42.1004 131.023 41.2213 131.299 40.0362 131.299H38.0836V135.54H36.7577V125.384H40.0362C41.1824 125.384 42.0518 125.66 42.6444 126.214C43.2466 126.768 43.5478 127.482 43.5478 128.356ZM40.0362 130.207C40.7744 130.207 41.3184 130.046 41.6681 129.726C42.0178 129.405 42.1927 128.949 42.1927 128.356C42.1927 127.103 41.4738 126.476 40.0362 126.476H38.0836V130.207H40.0362Z" fill="#9D9D9D"/>
<path d="M216.358 62.9654V69.4204C216.358 70.1878 216.557 70.7658 216.955 71.1543C217.363 71.5429 217.927 71.7372 218.645 71.7372C219.374 71.7372 219.937 71.5429 220.336 71.1543C220.744 70.7658 220.948 70.1878 220.948 69.4204V62.9654H222.609V69.3912C222.609 70.2169 222.429 70.9163 222.07 71.4895C221.71 72.0626 221.229 72.49 220.627 72.7717C220.025 73.0534 219.359 73.1943 218.631 73.1943C217.902 73.1943 217.237 73.0534 216.635 72.7717C216.042 72.49 215.571 72.0626 215.221 71.4895C214.872 70.9163 214.697 70.2169 214.697 69.3912V62.9654H216.358ZM228.822 64.9325C229.454 64.9325 230.017 65.0637 230.512 65.3259C231.018 65.5882 231.411 65.9768 231.693 66.4916C231.974 67.0065 232.115 67.6282 232.115 68.3567V73.0923H230.469V68.6044C230.469 67.8856 230.289 67.3367 229.93 66.9579C229.57 66.5693 229.08 66.375 228.458 66.375C227.836 66.375 227.341 66.5693 226.972 66.9579C226.612 67.3367 226.433 67.8856 226.433 68.6044V73.0923H224.771V65.0637H226.433V65.9816C226.705 65.6514 227.049 65.3939 227.467 65.2094C227.895 65.0248 228.346 64.9325 228.822 64.9325ZM235.079 64C234.778 64 234.526 63.898 234.322 63.694C234.118 63.49 234.016 63.2374 234.016 62.9363C234.016 62.6351 234.118 62.3826 234.322 62.1786C234.526 61.9746 234.778 61.8726 235.079 61.8726C235.371 61.8726 235.618 61.9746 235.822 62.1786C236.026 62.3826 236.128 62.6351 236.128 62.9363C236.128 63.2374 236.026 63.49 235.822 63.694C235.618 63.898 235.371 64 235.079 64ZM235.895 65.0637V73.0923H234.234V65.0637H235.895ZM237.522 69.0415C237.522 68.2353 237.688 67.5213 238.018 66.8996C238.358 66.2779 238.814 65.7971 239.387 65.4571C239.97 65.1074 240.616 64.9325 241.325 64.9325C241.85 64.9325 242.365 65.0491 242.87 65.2822C243.385 65.5056 243.793 65.8068 244.094 66.1856V62.3097H245.77V73.0923H244.094V71.8829C243.822 72.2715 243.443 72.592 242.957 72.8446C242.481 73.0971 241.933 73.2234 241.311 73.2234C240.611 73.2234 239.97 73.0486 239.387 72.6989C238.814 72.3394 238.358 71.844 238.018 71.2126C237.688 70.5715 237.522 69.8478 237.522 69.0415ZM244.094 69.0707C244.094 68.517 243.977 68.0361 243.744 67.6282C243.521 67.2202 243.225 66.9093 242.855 66.6956C242.486 66.4819 242.088 66.375 241.661 66.375C241.233 66.375 240.835 66.4819 240.466 66.6956C240.097 66.8996 239.795 67.2056 239.562 67.6136C239.339 68.0119 239.227 68.4878 239.227 69.0415C239.227 69.5952 239.339 70.0809 239.562 70.4986C239.795 70.9163 240.097 71.2369 240.466 71.4603C240.845 71.674 241.243 71.7809 241.661 71.7809C242.088 71.7809 242.486 71.674 242.855 71.4603C243.225 71.2466 243.521 70.9358 243.744 70.5278C243.977 70.1101 244.094 69.6244 244.094 69.0707ZM251.434 73.2234C250.676 73.2234 249.991 73.0534 249.379 72.7134C248.767 72.3637 248.287 71.878 247.937 71.2563C247.587 70.6249 247.412 69.8964 247.412 69.0707C247.412 68.2547 247.592 67.531 247.951 66.8996C248.311 66.2682 248.801 65.7825 249.423 65.4425C250.045 65.1025 250.739 64.9325 251.507 64.9325C252.274 64.9325 252.969 65.1025 253.59 65.4425C254.212 65.7825 254.703 66.2682 255.062 66.8996C255.421 67.531 255.601 68.2547 255.601 69.0707C255.601 69.8867 255.417 70.6104 255.047 71.2418C254.678 71.8732 254.173 72.3637 253.532 72.7134C252.901 73.0534 252.201 73.2234 251.434 73.2234ZM251.434 71.7809C251.861 71.7809 252.26 71.6789 252.629 71.4749C253.008 71.2709 253.314 70.9649 253.547 70.5569C253.78 70.1489 253.896 69.6535 253.896 69.0707C253.896 68.4878 253.785 67.9973 253.561 67.599C253.338 67.191 253.042 66.885 252.672 66.681C252.303 66.477 251.905 66.375 251.478 66.375C251.05 66.375 250.652 66.477 250.283 66.681C249.923 66.885 249.637 67.191 249.423 67.599C249.209 67.9973 249.102 68.4878 249.102 69.0707C249.102 69.9352 249.321 70.6055 249.758 71.0815C250.205 71.5478 250.764 71.7809 251.434 71.7809ZM260.157 73.2234C259.526 73.2234 258.958 73.1117 258.453 72.8883C257.957 72.6552 257.564 72.3443 257.272 71.9557C256.981 71.5575 256.826 71.1155 256.806 70.6298H258.525C258.555 70.9698 258.715 71.2563 259.006 71.4895C259.307 71.7129 259.681 71.8246 260.128 71.8246C260.595 71.8246 260.954 71.7372 261.207 71.5623C261.469 71.3778 261.6 71.1446 261.6 70.8629C261.6 70.5618 261.454 70.3384 261.163 70.1927C260.881 70.0469 260.429 69.8867 259.808 69.7118C259.205 69.5467 258.715 69.3864 258.336 69.231C257.957 69.0755 257.627 68.8375 257.345 68.517C257.073 68.1964 256.937 67.7739 256.937 67.2493C256.937 66.8219 257.064 66.4333 257.316 66.0836C257.569 65.7242 257.928 65.4425 258.394 65.2385C258.87 65.0345 259.414 64.9325 260.026 64.9325C260.939 64.9325 261.673 65.1657 262.227 65.6319C262.79 66.0885 263.091 66.715 263.13 67.5116H261.469C261.44 67.1522 261.294 66.8656 261.032 66.6519C260.769 66.4382 260.415 66.3313 259.968 66.3313C259.531 66.3313 259.196 66.4139 258.963 66.579C258.729 66.7442 258.613 66.9627 258.613 67.2347C258.613 67.4484 258.691 67.6282 258.846 67.7739C259.001 67.9196 259.191 68.0361 259.414 68.1236C259.638 68.2013 259.968 68.3033 260.405 68.4296C260.988 68.585 261.464 68.7453 261.833 68.9104C262.212 69.0658 262.537 69.299 262.809 69.6098C263.081 69.9207 263.222 70.3335 263.232 70.8483C263.232 71.3049 263.106 71.7129 262.853 72.0723C262.601 72.4317 262.241 72.7134 261.775 72.9174C261.318 73.1214 260.779 73.2234 260.157 73.2234ZM268.258 69.0415C268.258 68.2353 268.423 67.5213 268.754 66.8996C269.094 66.2779 269.55 65.7971 270.123 65.4571C270.706 65.1074 271.352 64.9325 272.061 64.9325C272.586 64.9325 273.101 65.0491 273.606 65.2822C274.121 65.5056 274.529 65.8068 274.83 66.1856V62.3097H276.505V73.0923H274.83V71.8829C274.558 72.2715 274.179 72.592 273.693 72.8446C273.217 73.0971 272.668 73.2234 272.047 73.2234C271.347 73.2234 270.706 73.0486 270.123 72.6989C269.55 72.3394 269.094 71.844 268.754 71.2126C268.423 70.5715 268.258 69.8478 268.258 69.0415ZM274.83 69.0707C274.83 68.517 274.713 68.0361 274.48 67.6282C274.257 67.2202 273.96 66.9093 273.591 66.6956C273.222 66.4819 272.824 66.375 272.396 66.375C271.969 66.375 271.571 66.4819 271.201 66.6956C270.832 66.8996 270.531 67.2056 270.298 67.6136C270.075 68.0119 269.963 68.4878 269.963 69.0415C269.963 69.5952 270.075 70.0809 270.298 70.4986C270.531 70.9163 270.832 71.2369 271.201 71.4603C271.58 71.674 271.979 71.7809 272.396 71.7809C272.824 71.7809 273.222 71.674 273.591 71.4603C273.96 71.2466 274.257 70.9358 274.48 70.5278C274.713 70.1101 274.83 69.6244 274.83 69.0707ZM282.17 73.2234C281.412 73.2234 280.727 73.0534 280.115 72.7134C279.503 72.3637 279.022 71.878 278.673 71.2563C278.323 70.6249 278.148 69.8964 278.148 69.0707C278.148 68.2547 278.328 67.531 278.687 66.8996C279.047 66.2682 279.537 65.7825 280.159 65.4425C280.78 65.1025 281.475 64.9325 282.242 64.9325C283.01 64.9325 283.704 65.1025 284.326 65.4425C284.948 65.7825 285.438 66.2682 285.798 66.8996C286.157 67.531 286.337 68.2547 286.337 69.0707C286.337 69.8867 286.152 70.6104 285.783 71.2418C285.414 71.8732 284.909 72.3637 284.268 72.7134C283.636 73.0534 282.937 73.2234 282.17 73.2234ZM282.17 71.7809C282.597 71.7809 282.995 71.6789 283.364 71.4749C283.743 71.2709 284.049 70.9649 284.282 70.5569C284.516 70.1489 284.632 69.6535 284.632 69.0707C284.632 68.4878 284.52 67.9973 284.297 67.599C284.074 67.191 283.777 66.885 283.408 66.681C283.039 66.477 282.641 66.375 282.213 66.375C281.786 66.375 281.388 66.477 281.018 66.681C280.659 66.885 280.372 67.191 280.159 67.599C279.945 67.9973 279.838 68.4878 279.838 69.0707C279.838 69.9352 280.057 70.6055 280.494 71.0815C280.941 71.5478 281.499 71.7809 282.17 71.7809ZM291.21 69.0707C291.21 68.245 291.375 67.5213 291.706 66.8996C292.046 66.2682 292.512 65.7825 293.105 65.4425C293.697 65.1025 294.377 64.9325 295.145 64.9325C296.116 64.9325 296.917 65.1657 297.549 65.6319C298.19 66.0885 298.622 66.7442 298.846 67.599H297.053C296.908 67.2007 296.674 66.8899 296.354 66.6665C296.033 66.443 295.63 66.3313 295.145 66.3313C294.465 66.3313 293.921 66.5742 293.513 67.0599C293.114 67.5359 292.915 68.2061 292.915 69.0707C292.915 69.9352 293.114 70.6104 293.513 71.0961C293.921 71.5818 294.465 71.8246 295.145 71.8246C296.106 71.8246 296.742 71.402 297.053 70.5569H298.846C298.612 71.3729 298.175 72.0237 297.534 72.5094C296.893 72.9854 296.096 73.2234 295.145 73.2234C294.377 73.2234 293.697 73.0534 293.105 72.7134C292.512 72.3637 292.046 71.878 291.706 71.2563C291.375 70.6249 291.21 69.8964 291.21 69.0707ZM299.947 69.0415C299.947 68.2353 300.112 67.5213 300.443 66.8996C300.783 66.2779 301.239 65.7971 301.812 65.4571C302.395 65.1074 303.036 64.9325 303.736 64.9325C304.367 64.9325 304.916 65.0588 305.382 65.3114C305.858 65.5542 306.237 65.8602 306.519 66.2293V65.0637H308.194V73.0923H306.519V71.8975C306.237 72.2763 305.853 72.592 305.368 72.8446C304.882 73.0971 304.328 73.2234 303.707 73.2234C303.017 73.2234 302.385 73.0486 301.812 72.6989C301.239 72.3394 300.783 71.844 300.443 71.2126C300.112 70.5715 299.947 69.8478 299.947 69.0415ZM306.519 69.0707C306.519 68.517 306.402 68.0361 306.169 67.6282C305.946 67.2202 305.649 66.9093 305.28 66.6956C304.911 66.4819 304.513 66.375 304.085 66.375C303.658 66.375 303.26 66.4819 302.891 66.6956C302.521 66.8996 302.22 67.2056 301.987 67.6136C301.764 68.0119 301.652 68.4878 301.652 69.0415C301.652 69.5952 301.764 70.0809 301.987 70.4986C302.22 70.9163 302.521 71.2369 302.891 71.4603C303.269 71.674 303.668 71.7809 304.085 71.7809C304.513 71.7809 304.911 71.674 305.28 71.4603C305.649 71.2466 305.946 70.9358 306.169 70.5278C306.402 70.1101 306.519 69.6244 306.519 69.0707ZM313.742 66.4188H312.256V73.0923H310.58V66.4188H309.633V65.0637H310.58V64.4954C310.58 63.5726 310.823 62.9023 311.309 62.4846C311.804 62.0572 312.576 61.8435 313.626 61.8435V63.2277C313.12 63.2277 312.766 63.3248 312.562 63.5191C312.358 63.7037 312.256 64.0291 312.256 64.4954V65.0637H313.742V66.4188ZM322.573 68.8813C322.573 69.1824 322.553 69.4544 322.514 69.6972H316.38C316.429 70.3384 316.667 70.8532 317.094 71.2418C317.521 71.6303 318.046 71.8246 318.668 71.8246C319.561 71.8246 320.193 71.4506 320.562 70.7026H322.354C322.111 71.4409 321.669 72.048 321.028 72.524C320.397 72.9903 319.61 73.2234 318.668 73.2234C317.9 73.2234 317.211 73.0534 316.599 72.7134C315.996 72.3637 315.52 71.878 315.171 71.2563C314.831 70.6249 314.661 69.8964 314.661 69.0707C314.661 68.245 314.826 67.5213 315.156 66.8996C315.496 66.2682 315.967 65.7825 316.569 65.4425C317.181 65.1025 317.881 64.9325 318.668 64.9325C319.425 64.9325 320.1 65.0977 320.693 65.4279C321.286 65.7582 321.747 66.2245 322.077 66.8267C322.407 67.4193 322.573 68.1041 322.573 68.8813ZM320.839 68.3567C320.829 67.7447 320.61 67.2542 320.183 66.885C319.756 66.5159 319.226 66.3313 318.595 66.3313C318.022 66.3313 317.531 66.5159 317.123 66.885C316.715 67.2444 316.472 67.735 316.395 68.3567H320.839ZM320.125 62.9071L316.905 64.4954V63.2714L320.125 61.4938V62.9071Z" fill="#2C2C2C"/>
<path d="M217.863 102.247H213.623L212.894 104.316H211.16L214.788 94.1745H216.712L220.34 104.316H218.591L217.863 102.247ZM217.396 100.892L215.75 96.1853L214.089 100.892H217.396ZM225.021 102.83L227.294 96.2873H229.057L225.997 104.316H224.016L220.97 96.2873H222.748L225.021 102.83ZM230.983 104.418C230.682 104.418 230.429 104.316 230.225 104.112C230.021 103.908 229.919 103.655 229.919 103.354C229.919 103.053 230.021 102.801 230.225 102.597C230.429 102.393 230.682 102.291 230.983 102.291C231.274 102.291 231.522 102.393 231.726 102.597C231.93 102.801 232.032 103.053 232.032 103.354C232.032 103.655 231.93 103.908 231.726 104.112C231.522 104.316 231.274 104.418 230.983 104.418ZM243.718 102.247H239.478L238.749 104.316H237.015L240.643 94.1745H242.567L246.195 104.316H244.446L243.718 102.247ZM243.251 100.892L241.605 96.1853L239.944 100.892H243.251ZM249.433 97.4821C249.715 97.0935 250.099 96.7778 250.585 96.535C251.08 96.2824 251.629 96.1561 252.231 96.1561C252.94 96.1561 253.581 96.3261 254.154 96.6661C254.728 97.0061 255.179 97.4918 255.51 98.1232C255.84 98.7449 256.005 99.4589 256.005 100.265C256.005 101.071 255.84 101.795 255.51 102.436C255.179 103.068 254.723 103.563 254.14 103.923C253.567 104.272 252.931 104.447 252.231 104.447C251.609 104.447 251.056 104.326 250.57 104.083C250.094 103.84 249.715 103.529 249.433 103.15V104.316H247.772V93.5334H249.433V97.4821ZM254.315 100.265C254.315 99.7115 254.198 99.2355 253.965 98.8372C253.742 98.4292 253.44 98.1232 253.062 97.9192C252.693 97.7055 252.294 97.5987 251.867 97.5987C251.449 97.5987 251.051 97.7055 250.672 97.9192C250.303 98.1329 250.002 98.4438 249.769 98.8518C249.545 99.2598 249.433 99.7406 249.433 100.294C249.433 100.848 249.545 101.334 249.769 101.751C250.002 102.159 250.303 102.47 250.672 102.684C251.051 102.898 251.449 103.005 251.867 103.005C252.294 103.005 252.693 102.898 253.062 102.684C253.44 102.461 253.742 102.14 253.965 101.722C254.198 101.305 254.315 100.819 254.315 100.265ZM257.094 100.294C257.094 99.4686 257.259 98.7449 257.589 98.1232C257.929 97.4918 258.396 97.0061 258.988 96.6661C259.581 96.3261 260.261 96.1561 261.028 96.1561C262 96.1561 262.801 96.3893 263.432 96.8556C264.073 97.3121 264.506 97.9678 264.729 98.8226H262.937C262.791 98.4244 262.558 98.1135 262.238 97.8901C261.917 97.6667 261.514 97.555 261.028 97.555C260.348 97.555 259.804 97.7978 259.396 98.2835C258.998 98.7595 258.799 99.4298 258.799 100.294C258.799 101.159 258.998 101.834 259.396 102.32C259.804 102.805 260.348 103.048 261.028 103.048C261.99 103.048 262.626 102.626 262.937 101.781H264.729C264.496 102.597 264.059 103.247 263.418 103.733C262.777 104.209 261.98 104.447 261.028 104.447C260.261 104.447 259.581 104.277 258.988 103.937C258.396 103.587 257.929 103.102 257.589 102.48C257.259 101.849 257.094 101.12 257.094 100.294ZM268.206 102.32L266.443 106.341H265.365L266.399 102.32H268.206ZM281.762 104.316H280.101L275.104 96.7536V104.316H273.442V94.1745H275.104L280.101 101.722V94.1745H281.762V104.316ZM283.303 96.6224C283.303 96.0979 283.424 95.6364 283.667 95.2382C283.91 94.8399 284.24 94.5339 284.658 94.3202C285.085 94.0968 285.561 93.9851 286.086 93.9851C286.61 93.9851 287.081 94.0919 287.499 94.3056C287.927 94.5193 288.262 94.8302 288.505 95.2382C288.747 95.6364 288.869 96.0979 288.869 96.6224C288.869 97.1373 288.743 97.5987 288.49 98.0067C288.247 98.4049 287.912 98.7158 287.485 98.9392C287.057 99.1529 286.581 99.2598 286.057 99.2598C285.532 99.2598 285.061 99.1529 284.643 98.9392C284.225 98.7158 283.895 98.4049 283.652 98.0067C283.419 97.6084 283.303 97.147 283.303 96.6224ZM287.528 96.637C287.528 96.1221 287.383 95.719 287.091 95.4276C286.809 95.1362 286.469 94.9905 286.071 94.9905C285.673 94.9905 285.333 95.1362 285.051 95.4276C284.779 95.7093 284.643 96.1124 284.643 96.637C284.643 97.1421 284.779 97.5355 285.051 97.8172C285.323 98.0989 285.658 98.2398 286.057 98.2398C286.455 98.2398 286.8 98.0989 287.091 97.8172C287.383 97.5258 287.528 97.1324 287.528 96.637ZM293.766 95.209V93.6936H296.797V104.316H295.121V95.209H293.766ZM299.997 102.057C300.929 101.251 301.663 100.591 302.197 100.076C302.741 99.5512 303.193 99.0072 303.552 98.4438C303.912 97.8804 304.091 97.317 304.091 96.7536C304.091 96.1707 303.95 95.7142 303.669 95.3839C303.397 95.0536 302.964 94.8885 302.372 94.8885C301.799 94.8885 301.352 95.073 301.031 95.4422C300.721 95.8016 300.555 96.2873 300.536 96.8993H298.933C298.962 95.7919 299.293 94.9468 299.924 94.3639C300.565 93.7714 301.376 93.4751 302.357 93.4751C303.416 93.4751 304.242 93.7665 304.834 94.3493C305.437 94.9322 305.738 95.7093 305.738 96.6807C305.738 97.3801 305.558 98.0552 305.199 98.7061C304.849 99.3472 304.426 99.9252 303.931 100.44C303.445 100.945 302.824 101.533 302.066 102.203L301.41 102.786H306.029V104.17H298.948V102.961L299.997 102.057ZM307.459 96.3164C307.518 95.413 307.862 94.7088 308.494 94.2036C309.135 93.6985 309.951 93.4459 310.942 93.4459C311.622 93.4459 312.21 93.5674 312.705 93.8102C313.2 94.0531 313.574 94.3833 313.827 94.801C314.079 95.2187 314.206 95.6899 314.206 96.2144C314.206 96.8167 314.045 97.3315 313.725 97.759C313.404 98.1864 313.021 98.4729 312.574 98.6186V98.6769C313.147 98.8518 313.594 99.1723 313.914 99.6386C314.235 100.095 314.395 100.683 314.395 101.402C314.395 101.975 314.264 102.485 314.002 102.932C313.739 103.379 313.351 103.733 312.836 103.995C312.321 104.248 311.704 104.374 310.986 104.374C309.936 104.374 309.072 104.107 308.392 103.573C307.722 103.029 307.362 102.252 307.314 101.241H308.916C308.955 101.756 309.154 102.179 309.514 102.509C309.873 102.83 310.359 102.99 310.971 102.99C311.564 102.99 312.02 102.83 312.341 102.509C312.661 102.179 312.821 101.756 312.821 101.241C312.821 100.561 312.603 100.081 312.166 99.7989C311.738 99.5075 311.078 99.3618 310.184 99.3618H309.805V97.9921H310.199C310.986 97.9824 311.583 97.8512 311.991 97.5987C312.409 97.3461 312.618 96.9478 312.618 96.4039C312.618 95.9376 312.467 95.5684 312.166 95.2965C311.865 95.0148 311.437 94.8739 310.884 94.8739C310.34 94.8739 309.917 95.0148 309.616 95.2965C309.315 95.5684 309.135 95.9084 309.077 96.3164H307.459ZM315.936 102.101V100.848L320.832 93.8248H322.843V100.659H324.198V102.101H322.843V104.316H321.211V102.101H315.936ZM321.284 95.515L317.845 100.659H321.284V95.515Z" fill="#2C2C2C"/>
<path d="M249.341 126.433V124.917H252.372V135.54H250.697V126.433H249.341ZM255.572 133.281C256.505 132.475 257.238 131.814 257.772 131.299C258.316 130.775 258.768 130.231 259.128 129.667C259.487 129.104 259.667 128.541 259.667 127.977C259.667 127.394 259.526 126.938 259.244 126.608C258.972 126.277 258.54 126.112 257.947 126.112C257.374 126.112 256.927 126.297 256.607 126.666C256.296 127.025 256.131 127.511 256.111 128.123H254.509C254.538 127.016 254.868 126.17 255.499 125.588C256.14 124.995 256.952 124.699 257.933 124.699C258.992 124.699 259.817 124.99 260.41 125.573C261.012 126.156 261.313 126.933 261.313 127.904C261.313 128.604 261.133 129.279 260.774 129.93C260.424 130.571 260.002 131.149 259.506 131.664C259.021 132.169 258.399 132.756 257.641 133.427L256.986 134.01H261.605V135.394H254.523V134.184L255.572 133.281ZM263.035 127.54C263.093 126.637 263.438 125.932 264.069 125.427C264.71 124.922 265.526 124.67 266.517 124.67C267.197 124.67 267.785 124.791 268.28 125.034C268.776 125.277 269.15 125.607 269.402 126.025C269.655 126.442 269.781 126.914 269.781 127.438C269.781 128.04 269.621 128.555 269.3 128.983C268.98 129.41 268.596 129.697 268.149 129.842V129.901C268.722 130.075 269.169 130.396 269.49 130.862C269.81 131.319 269.971 131.907 269.971 132.625C269.971 133.198 269.839 133.708 269.577 134.155C269.315 134.602 268.926 134.957 268.411 135.219C267.897 135.472 267.28 135.598 266.561 135.598C265.512 135.598 264.647 135.331 263.967 134.796C263.297 134.252 262.938 133.475 262.889 132.465H264.492C264.531 132.98 264.73 133.402 265.089 133.733C265.449 134.053 265.934 134.214 266.546 134.214C267.139 134.214 267.595 134.053 267.916 133.733C268.237 133.402 268.397 132.98 268.397 132.465C268.397 131.785 268.178 131.304 267.741 131.023C267.314 130.731 266.653 130.585 265.759 130.585H265.381V129.216H265.774C266.561 129.206 267.158 129.075 267.566 128.822C267.984 128.57 268.193 128.171 268.193 127.627C268.193 127.161 268.042 126.792 267.741 126.52C267.44 126.238 267.013 126.098 266.459 126.098C265.915 126.098 265.492 126.238 265.191 126.52C264.89 126.792 264.71 127.132 264.652 127.54H263.035ZM272.604 135.642C272.303 135.642 272.051 135.54 271.847 135.336C271.643 135.132 271.541 134.879 271.541 134.578C271.541 134.277 271.643 134.024 271.847 133.82C272.051 133.616 272.303 133.514 272.604 133.514C272.896 133.514 273.143 133.616 273.347 133.82C273.551 134.024 273.653 134.277 273.653 134.578C273.653 134.879 273.551 135.132 273.347 135.336C273.143 135.54 272.896 135.642 272.604 135.642ZM275.012 126.433V124.917H278.042V135.54H276.367V126.433H275.012ZM281.242 133.281C282.175 132.475 282.908 131.814 283.442 131.299C283.986 130.775 284.438 130.231 284.798 129.667C285.157 129.104 285.337 128.541 285.337 127.977C285.337 127.394 285.196 126.938 284.914 126.608C284.642 126.277 284.21 126.112 283.617 126.112C283.044 126.112 282.597 126.297 282.277 126.666C281.966 127.025 281.801 127.511 281.781 128.123H280.179C280.208 127.016 280.538 126.17 281.169 125.588C281.81 124.995 282.622 124.699 283.603 124.699C284.662 124.699 285.487 124.99 286.08 125.573C286.682 126.156 286.983 126.933 286.983 127.904C286.983 128.604 286.804 129.279 286.444 129.93C286.094 130.571 285.672 131.149 285.176 131.664C284.691 132.169 284.069 132.756 283.311 133.427L282.656 134.01H287.275V135.394H280.193V134.184L281.242 133.281ZM288.705 127.54C288.763 126.637 289.108 125.932 289.739 125.427C290.38 124.922 291.196 124.67 292.187 124.67C292.867 124.67 293.455 124.791 293.95 125.034C294.446 125.277 294.82 125.607 295.072 126.025C295.325 126.442 295.451 126.914 295.451 127.438C295.451 128.04 295.291 128.555 294.97 128.983C294.65 129.41 294.266 129.697 293.819 129.842V129.901C294.392 130.075 294.839 130.396 295.16 130.862C295.48 131.319 295.641 131.907 295.641 132.625C295.641 133.198 295.509 133.708 295.247 134.155C294.985 134.602 294.596 134.957 294.081 135.219C293.567 135.472 292.95 135.598 292.231 135.598C291.182 135.598 290.317 135.331 289.637 134.796C288.967 134.252 288.608 133.475 288.559 132.465H290.162C290.201 132.98 290.4 133.402 290.759 133.733C291.119 134.053 291.604 134.214 292.216 134.214C292.809 134.214 293.265 134.053 293.586 133.733C293.907 133.402 294.067 132.98 294.067 132.465C294.067 131.785 293.848 131.304 293.411 131.023C292.984 130.731 292.323 130.585 291.43 130.585H291.051V129.216H291.444C292.231 129.206 292.828 129.075 293.236 128.822C293.654 128.57 293.863 128.171 293.863 127.627C293.863 127.161 293.712 126.792 293.411 126.52C293.11 126.238 292.683 126.098 292.129 126.098C291.585 126.098 291.162 126.238 290.861 126.52C290.56 126.792 290.38 127.132 290.322 127.54H288.705ZM303.768 129.565V130.964H297.779V129.565H303.768ZM305.909 130.09C305.909 128.409 306.191 127.098 306.754 126.156C307.327 125.204 308.308 124.728 309.697 124.728C311.086 124.728 312.063 125.204 312.626 126.156C313.199 127.098 313.486 128.409 313.486 130.09C313.486 131.79 313.199 133.121 312.626 134.082C312.063 135.034 311.086 135.51 309.697 135.51C308.308 135.51 307.327 135.034 306.754 134.082C306.191 133.121 305.909 131.79 305.909 130.09ZM311.854 130.09C311.854 129.303 311.8 128.638 311.694 128.094C311.596 127.55 311.392 127.108 311.082 126.768C310.771 126.418 310.309 126.243 309.697 126.243C309.085 126.243 308.624 126.418 308.313 126.768C308.002 127.108 307.793 127.55 307.687 128.094C307.589 128.638 307.541 129.303 307.541 130.09C307.541 130.906 307.589 131.591 307.687 132.145C307.784 132.698 307.988 133.145 308.299 133.485C308.619 133.825 309.085 133.995 309.697 133.995C310.309 133.995 310.771 133.825 311.082 133.485C311.402 133.145 311.611 132.698 311.708 132.145C311.805 131.591 311.854 130.906 311.854 130.09ZM317.313 132.654C317.41 133.14 317.619 133.509 317.939 133.762C318.26 134.014 318.692 134.141 319.236 134.141C319.926 134.141 320.431 133.869 320.751 133.325C321.072 132.781 321.232 131.853 321.232 130.542C320.999 130.872 320.669 131.129 320.241 131.314C319.824 131.489 319.367 131.576 318.872 131.576C318.24 131.576 317.667 131.45 317.152 131.197C316.637 130.935 316.229 130.551 315.928 130.046C315.637 129.531 315.491 128.91 315.491 128.181C315.491 127.113 315.802 126.263 316.424 125.631C317.055 124.99 317.92 124.67 319.017 124.67C320.338 124.67 321.276 125.112 321.83 125.996C322.393 126.87 322.675 128.215 322.675 130.032C322.675 131.285 322.568 132.31 322.354 133.106C322.15 133.903 321.791 134.505 321.276 134.913C320.761 135.321 320.047 135.525 319.134 135.525C318.095 135.525 317.293 135.253 316.73 134.709C316.166 134.165 315.851 133.48 315.783 132.654H317.313ZM319.163 130.177C319.746 130.177 320.202 129.998 320.533 129.638C320.873 129.269 321.043 128.783 321.043 128.181C321.043 127.511 320.863 126.991 320.504 126.622C320.154 126.243 319.673 126.054 319.061 126.054C318.449 126.054 317.963 126.248 317.604 126.637C317.254 127.016 317.079 127.516 317.079 128.137C317.079 128.73 317.249 129.221 317.589 129.609C317.939 129.988 318.464 130.177 319.163 130.177Z" fill="#2C2C2C"/>
<path d="M21.4704 27.535C22.5389 27.535 23.4763 27.7438 24.2826 28.1615C25.0986 28.5793 25.7251 29.1767 26.1623 29.9538C26.6091 30.7212 26.8325 31.6149 26.8325 32.6349C26.8325 33.6548 26.6091 34.5485 26.1623 35.3159C25.7251 36.0736 25.0986 36.6613 24.2826 37.079C23.4763 37.4967 22.5389 37.7056 21.4704 37.7056H17.9151V27.535H21.4704ZM21.3975 35.9716C22.4661 35.9716 23.2918 35.6802 23.8746 35.0974C24.4575 34.5145 24.7489 33.6937 24.7489 32.6349C24.7489 31.576 24.4575 30.7503 23.8746 30.1578C23.2918 29.5555 22.4661 29.2544 21.3975 29.2544H19.955V35.9716H21.3975ZM35.8636 33.4945C35.8636 33.786 35.8442 34.0482 35.8053 34.2814H29.9041C29.9526 34.8642 30.1566 35.3208 30.516 35.6511C30.8755 35.9813 31.3174 36.1465 31.842 36.1465C32.5997 36.1465 33.1388 35.821 33.4594 35.1702H35.6596C35.4265 35.9473 34.9796 36.5885 34.3191 37.0936C33.6585 37.589 32.8474 37.8367 31.8857 37.8367C31.1086 37.8367 30.4092 37.6667 29.7875 37.3267C29.1755 36.977 28.6947 36.4865 28.345 35.855C28.005 35.2236 27.835 34.4951 27.835 33.6694C27.835 32.834 28.005 32.1006 28.345 31.4692C28.6849 30.8378 29.1609 30.3521 29.7729 30.0121C30.3849 29.6721 31.0892 29.5021 31.8857 29.5021C32.6531 29.5021 33.338 29.6672 33.9402 29.9975C34.5522 30.3278 35.0233 30.7989 35.3536 31.4109C35.6936 32.0132 35.8636 32.7077 35.8636 33.4945ZM33.7508 32.9117C33.7411 32.3871 33.5517 31.9694 33.1825 31.6586C32.8134 31.338 32.3617 31.1777 31.8274 31.1777C31.3223 31.1777 30.8949 31.3332 30.5452 31.644C30.2052 31.9452 29.9963 32.3677 29.9186 32.9117H33.7508ZM39.7277 31.3089V35.2139C39.7277 35.4859 39.7908 35.6851 39.9171 35.8113C40.0531 35.9279 40.2765 35.9862 40.5873 35.9862H41.5345V37.7056H40.2522C38.5328 37.7056 37.6731 36.8702 37.6731 35.1994V31.3089H36.7115V29.6332H37.6731V27.637H39.7277V29.6332H41.5345V31.3089H39.7277ZM42.4771 33.6403C42.4771 32.8243 42.6374 32.1006 42.958 31.4692C43.2883 30.8378 43.7302 30.3521 44.2839 30.0121C44.8474 29.6721 45.4739 29.5021 46.1636 29.5021C46.7659 29.5021 47.2904 29.6235 47.7373 29.8664C48.1938 30.1092 48.5581 30.4152 48.8301 30.7843V29.6332H50.8846V37.7056H48.8301V36.5253C48.5678 36.9042 48.2036 37.2199 47.7373 37.4724C47.2807 37.7153 46.7513 37.8367 46.149 37.8367C45.4691 37.8367 44.8474 37.6619 44.2839 37.3121C43.7302 36.9624 43.2883 36.4719 42.958 35.8405C42.6374 35.1994 42.4771 34.4659 42.4771 33.6403ZM48.8301 33.6694C48.8301 33.174 48.733 32.7514 48.5387 32.4017C48.3444 32.0423 48.0821 31.7703 47.7518 31.5857C47.4216 31.3915 47.067 31.2943 46.6882 31.2943C46.3093 31.2943 45.9596 31.3866 45.6391 31.5712C45.3185 31.7557 45.0562 32.0277 44.8522 32.3871C44.6579 32.7368 44.5608 33.1546 44.5608 33.6403C44.5608 34.126 44.6579 34.5534 44.8522 34.9225C45.0562 35.2819 45.3185 35.5588 45.6391 35.753C45.9693 35.9473 46.319 36.0445 46.6882 36.0445C47.067 36.0445 47.4216 35.9522 47.7518 35.7676C48.0821 35.5733 48.3444 35.3013 48.5387 34.9516C48.733 34.5922 48.8301 34.1648 48.8301 33.6694ZM54.9169 26.923V37.7056H52.877V26.923H54.9169ZM61.4785 29.5167C62.0905 29.5167 62.6345 29.6526 63.1105 29.9246C63.5865 30.1869 63.9556 30.5803 64.2179 31.1049C64.4899 31.6197 64.6259 32.2414 64.6259 32.97V37.7056H62.5859V33.2468C62.5859 32.6057 62.4257 32.1152 62.1051 31.7752C61.7845 31.4255 61.3474 31.2506 60.7937 31.2506C60.2303 31.2506 59.7835 31.4255 59.4532 31.7752C59.1326 32.1152 58.9723 32.6057 58.9723 33.2468V37.7056H56.9324V26.923H58.9723V30.6386C59.2346 30.2889 59.5843 30.0169 60.0214 29.8226C60.4586 29.6187 60.9443 29.5167 61.4785 29.5167ZM74.0698 33.4945C74.0698 33.786 74.0504 34.0482 74.0116 34.2814H68.1103C68.1589 34.8642 68.3629 35.3208 68.7223 35.6511C69.0817 35.9813 69.5237 36.1465 70.0482 36.1465C70.8059 36.1465 71.3451 35.821 71.6656 35.1702H73.8658C73.6327 35.9473 73.1859 36.5885 72.5253 37.0936C71.8648 37.589 71.0536 37.8367 70.092 37.8367C69.3148 37.8367 68.6154 37.6667 67.9937 37.3267C67.3817 36.977 66.9009 36.4865 66.5512 35.855C66.2112 35.2236 66.0412 34.4951 66.0412 33.6694C66.0412 32.834 66.2112 32.1006 66.5512 31.4692C66.8912 30.8378 67.3672 30.3521 67.9792 30.0121C68.5911 29.6721 69.2954 29.5021 70.092 29.5021C70.8594 29.5021 71.5442 29.6672 72.1465 29.9975C72.7584 30.3278 73.2296 30.7989 73.5599 31.4109C73.8998 32.0132 74.0698 32.7077 74.0698 33.4945ZM71.957 32.9117C71.9473 32.3871 71.7579 31.9694 71.3888 31.6586C71.0196 31.338 70.5679 31.1777 70.0337 31.1777C69.5285 31.1777 69.1011 31.3332 68.7514 31.644C68.4114 31.9452 68.2026 32.3677 68.1249 32.9117H71.957ZM78.6479 37.8367C77.9873 37.8367 77.3948 37.7201 76.8702 37.487C76.3457 37.2442 75.928 36.9187 75.6171 36.5107C75.316 36.1028 75.1508 35.6511 75.1217 35.1556H77.1762C77.2151 35.4665 77.3656 35.7239 77.6279 35.9279C77.8999 36.1319 78.235 36.2339 78.6333 36.2339C79.0219 36.2339 79.323 36.1562 79.5367 36.0008C79.7601 35.8453 79.8718 35.6462 79.8718 35.4033C79.8718 35.1411 79.7358 34.9468 79.4639 34.8205C79.2016 34.6845 78.779 34.5388 78.1962 34.3834C77.5939 34.2377 77.0985 34.0871 76.7099 33.9317C76.3311 33.7762 76.0008 33.5383 75.7191 33.2177C75.4471 32.8971 75.3111 32.4649 75.3111 31.9209C75.3111 31.474 75.4374 31.066 75.69 30.6969C75.9522 30.3278 76.3214 30.0364 76.7974 29.8226C77.2831 29.6089 77.8513 29.5021 78.5022 29.5021C79.4639 29.5021 80.2313 29.7449 80.8044 30.2306C81.3775 30.7066 81.6932 31.3526 81.7515 32.1686H79.799C79.7698 31.848 79.6338 31.5955 79.391 31.4109C79.1579 31.2166 78.8422 31.1195 78.4439 31.1195C78.0747 31.1195 77.7882 31.1875 77.5842 31.3235C77.3899 31.4595 77.2928 31.6489 77.2928 31.8917C77.2928 32.1637 77.4288 32.3726 77.7008 32.5183C77.9727 32.6543 78.3953 32.7951 78.9684 32.9408C79.5513 33.0866 80.0321 33.2371 80.411 33.3925C80.7898 33.548 81.1152 33.7908 81.3872 34.1211C81.6689 34.4417 81.8146 34.8691 81.8244 35.4033C81.8244 35.8696 81.6932 36.2873 81.4309 36.6565C81.1784 37.0256 80.8092 37.317 80.3235 37.5307C79.8476 37.7347 79.289 37.8367 78.6479 37.8367ZM86.4463 33.6403C86.4463 32.8243 86.6066 32.1006 86.9272 31.4692C87.2574 30.8378 87.7043 30.3521 88.2677 30.0121C88.8311 29.6721 89.4577 29.5021 90.1474 29.5021C90.6719 29.5021 91.1722 29.6187 91.6482 29.8518C92.1242 30.0752 92.503 30.3763 92.7847 30.7552V26.923H94.8538V37.7056H92.7847V36.5107C92.5322 36.909 92.1776 37.2296 91.721 37.4724C91.2645 37.7153 90.7351 37.8367 90.1328 37.8367C89.4528 37.8367 88.8311 37.6619 88.2677 37.3121C87.7043 36.9624 87.2574 36.4719 86.9272 35.8405C86.6066 35.1994 86.4463 34.4659 86.4463 33.6403ZM92.7993 33.6694C92.7993 33.174 92.7022 32.7514 92.5079 32.4017C92.3136 32.0423 92.0513 31.7703 91.721 31.5857C91.3908 31.3915 91.0362 31.2943 90.6574 31.2943C90.2785 31.2943 89.9288 31.3866 89.6082 31.5712C89.2877 31.7557 89.0254 32.0277 88.8214 32.3871C88.6271 32.7368 88.53 33.1546 88.53 33.6403C88.53 34.126 88.6271 34.5534 88.8214 34.9225C89.0254 35.2819 89.2877 35.5588 89.6082 35.753C89.9385 35.9473 90.2882 36.0445 90.6574 36.0445C91.0362 36.0445 91.3908 35.9522 91.721 35.7676C92.0513 35.5733 92.3136 35.3013 92.5079 34.9516C92.7022 34.5922 92.7993 34.1648 92.7993 33.6694ZM96.3216 33.6403C96.3216 32.8243 96.4819 32.1006 96.8025 31.4692C97.1327 30.8378 97.5747 30.3521 98.1284 30.0121C98.6918 29.6721 99.3184 29.5021 100.008 29.5021C100.61 29.5021 101.135 29.6235 101.582 29.8664C102.038 30.1092 102.403 30.4152 102.675 30.7843V29.6332H104.729V37.7056H102.675V36.5253C102.412 36.9042 102.048 37.2199 101.582 37.4724C101.125 37.7153 100.596 37.8367 99.9935 37.8367C99.3135 37.8367 98.6918 37.6619 98.1284 37.3121C97.5747 36.9624 97.1327 36.4719 96.8025 35.8405C96.4819 35.1994 96.3216 34.4659 96.3216 33.6403ZM102.675 33.6694C102.675 33.174 102.577 32.7514 102.383 32.4017C102.189 32.0423 101.927 31.7703 101.596 31.5857C101.266 31.3915 100.911 31.2943 100.533 31.2943C100.154 31.2943 99.8041 31.3866 99.4835 31.5712C99.163 31.7557 98.9007 32.0277 98.6967 32.3871C98.5024 32.7368 98.4053 33.1546 98.4053 33.6403C98.4053 34.126 98.5024 34.5534 98.6967 34.9225C98.9007 35.2819 99.163 35.5588 99.4835 35.753C99.8138 35.9473 100.164 36.0445 100.533 36.0445C100.911 36.0445 101.266 35.9522 101.596 35.7676C101.927 35.5733 102.189 35.3013 102.383 34.9516C102.577 34.5922 102.675 34.1648 102.675 33.6694ZM117.698 33.4945C117.698 33.786 117.678 34.0482 117.639 34.2814H111.738C111.787 34.8642 111.991 35.3208 112.35 35.6511C112.709 35.9813 113.151 36.1465 113.676 36.1465C114.434 36.1465 114.973 35.821 115.293 35.1702H117.494C117.26 35.9473 116.814 36.5885 116.153 37.0936C115.492 37.589 114.681 37.8367 113.72 37.8367C112.943 37.8367 112.243 37.6667 111.621 37.3267C111.009 36.977 110.529 36.4865 110.179 35.855C109.839 35.2236 109.669 34.4951 109.669 33.6694C109.669 32.834 109.839 32.1006 110.179 31.4692C110.519 30.8378 110.995 30.3521 111.607 30.0121C112.219 29.6721 112.923 29.5021 113.72 29.5021C114.487 29.5021 115.172 29.6672 115.774 29.9975C116.386 30.3278 116.857 30.7989 117.188 31.4109C117.528 32.0132 117.698 32.7077 117.698 33.4945ZM115.585 32.9117C115.575 32.3871 115.386 31.9694 115.016 31.6586C114.647 31.338 114.196 31.1777 113.661 31.1777C113.156 31.1777 112.729 31.3332 112.379 31.644C112.039 31.9452 111.83 32.3677 111.753 32.9117H115.585ZM123.66 29.5167C124.621 29.5167 125.399 29.8226 125.991 30.4346C126.584 31.0369 126.88 31.882 126.88 32.97V37.7056H124.84V33.2468C124.84 32.6057 124.68 32.1152 124.359 31.7752C124.039 31.4255 123.602 31.2506 123.048 31.2506C122.484 31.2506 122.038 31.4255 121.707 31.7752C121.387 32.1152 121.226 32.6057 121.226 33.2468V37.7056H119.186V29.6332H121.226V30.6386C121.498 30.2889 121.843 30.0169 122.261 29.8226C122.688 29.6187 123.155 29.5167 123.66 29.5167ZM131.195 31.3089V35.2139C131.195 35.4859 131.258 35.6851 131.384 35.8113C131.52 35.9279 131.744 35.9862 132.055 35.9862H133.002V37.7056H131.72C130 37.7056 129.14 36.8702 129.14 35.1994V31.3089H128.179V29.6332H129.14V27.637H131.195V29.6332H133.002V31.3089H131.195ZM136.509 30.8863C136.771 30.4589 137.111 30.1238 137.529 29.8809C137.956 29.6381 138.442 29.5167 138.986 29.5167V31.6586H138.447C137.806 31.6586 137.32 31.8092 136.99 32.1103C136.669 32.4114 136.509 32.936 136.509 33.684V37.7056H134.469V29.6332H136.509V30.8863ZM147.864 33.4945C147.864 33.786 147.845 34.0482 147.806 34.2814H141.905C141.953 34.8642 142.157 35.3208 142.517 35.6511C142.876 35.9813 143.318 36.1465 143.842 36.1465C144.6 36.1465 145.139 35.821 145.46 35.1702H147.66C147.427 35.9473 146.98 36.5885 146.32 37.0936C145.659 37.589 144.848 37.8367 143.886 37.8367C143.109 37.8367 142.41 37.6667 141.788 37.3267C141.176 36.977 140.695 36.4865 140.345 35.855C140.005 35.2236 139.835 34.4951 139.835 33.6694C139.835 32.834 140.005 32.1006 140.345 31.4692C140.685 30.8378 141.161 30.3521 141.773 30.0121C142.385 29.6721 143.09 29.5021 143.886 29.5021C144.654 29.5021 145.338 29.6672 145.941 29.9975C146.553 30.3278 147.024 30.7989 147.354 31.4109C147.694 32.0132 147.864 32.7077 147.864 33.4945ZM145.751 32.9117C145.742 32.3871 145.552 31.9694 145.183 31.6586C144.814 31.338 144.362 31.1777 143.828 31.1777C143.323 31.1777 142.895 31.3332 142.546 31.644C142.206 31.9452 141.997 32.3677 141.919 32.9117H145.751ZM152.515 29.5021C153.117 29.5021 153.647 29.6235 154.103 29.8664C154.56 30.0995 154.919 30.4055 155.181 30.7843V29.6332H157.236V37.7639C157.236 38.5118 157.085 39.1772 156.784 39.7601C156.483 40.3526 156.031 40.8189 155.429 41.1589C154.827 41.5086 154.098 41.6835 153.244 41.6835C152.097 41.6835 151.155 41.4163 150.417 40.882C149.688 40.3478 149.275 39.6192 149.178 38.6964H151.204C151.31 39.0655 151.539 39.3569 151.888 39.5707C152.248 39.7941 152.68 39.9058 153.185 39.9058C153.778 39.9058 154.259 39.7261 154.628 39.3667C154.997 39.017 155.181 38.4827 155.181 37.7639V36.5107C154.919 36.8896 154.555 37.2053 154.089 37.4579C153.632 37.7104 153.108 37.8367 152.515 37.8367C151.835 37.8367 151.213 37.6619 150.65 37.3121C150.086 36.9624 149.64 36.4719 149.309 35.8405C148.989 35.1994 148.828 34.4659 148.828 33.6403C148.828 32.8243 148.989 32.1006 149.309 31.4692C149.64 30.8378 150.082 30.3521 150.635 30.0121C151.199 29.6721 151.825 29.5021 152.515 29.5021ZM155.181 33.6694C155.181 33.174 155.084 32.7514 154.89 32.4017C154.696 32.0423 154.433 31.7703 154.103 31.5857C153.773 31.3915 153.418 31.2943 153.04 31.2943C152.661 31.2943 152.311 31.3866 151.99 31.5712C151.67 31.7557 151.408 32.0277 151.204 32.3871C151.009 32.7368 150.912 33.1546 150.912 33.6403C150.912 34.126 151.009 34.5534 151.204 34.9225C151.408 35.2819 151.67 35.5588 151.99 35.753C152.321 35.9473 152.67 36.0445 153.04 36.0445C153.418 36.0445 153.773 35.9522 154.103 35.7676C154.433 35.5733 154.696 35.3013 154.89 34.9516C155.084 34.5922 155.181 34.1648 155.181 33.6694ZM158.704 33.6403C158.704 32.8243 158.864 32.1006 159.185 31.4692C159.515 30.8378 159.957 30.3521 160.511 30.0121C161.074 29.6721 161.701 29.5021 162.39 29.5021C162.993 29.5021 163.517 29.6235 163.964 29.8664C164.42 30.1092 164.785 30.4152 165.057 30.7843V29.6332H167.111V37.7056H165.057V36.5253C164.794 36.9042 164.43 37.2199 163.964 37.4724C163.507 37.7153 162.978 37.8367 162.376 37.8367C161.696 37.8367 161.074 37.6619 160.511 37.3121C159.957 36.9624 159.515 36.4719 159.185 35.8405C158.864 35.1994 158.704 34.4659 158.704 33.6403ZM165.057 33.6694C165.057 33.174 164.96 32.7514 164.765 32.4017C164.571 32.0423 164.309 31.7703 163.978 31.5857C163.648 31.3915 163.294 31.2943 162.915 31.2943C162.536 31.2943 162.186 31.3866 161.866 31.5712C161.545 31.7557 161.283 32.0277 161.079 32.3871C160.885 32.7368 160.787 33.1546 160.787 33.6403C160.787 34.126 160.885 34.5534 161.079 34.9225C161.283 35.2819 161.545 35.5588 161.866 35.753C162.196 35.9473 162.546 36.0445 162.915 36.0445C163.294 36.0445 163.648 35.9522 163.978 35.7676C164.309 35.5733 164.571 35.3013 164.765 34.9516C164.96 34.5922 165.057 34.1648 165.057 33.6694Z" fill="#2C2C2C"/>
<path d="M285.207 28.9192V31.8917H288.704V33.2468H285.207V36.3505H289.141V37.7056H283.545V27.5641H289.141V28.9192H285.207ZM290.633 33.6548C290.633 32.8486 290.798 32.1346 291.128 31.5129C291.468 30.8912 291.925 30.4103 292.498 30.0704C293.081 29.7206 293.727 29.5458 294.436 29.5458C294.961 29.5458 295.475 29.6624 295.981 29.8955C296.495 30.1189 296.903 30.4201 297.205 30.7989V26.923H298.88V37.7056H297.205V36.4962C296.933 36.8847 296.554 37.2053 296.068 37.4579C295.592 37.7104 295.043 37.8367 294.421 37.8367C293.722 37.8367 293.081 37.6619 292.498 37.3121C291.925 36.9527 291.468 36.4573 291.128 35.8259C290.798 35.1848 290.633 34.4611 290.633 33.6548ZM297.205 33.684C297.205 33.1303 297.088 32.6494 296.855 32.2414C296.631 31.8334 296.335 31.5226 295.966 31.3089C295.597 31.0952 295.199 30.9883 294.771 30.9883C294.344 30.9883 293.945 31.0952 293.576 31.3089C293.207 31.5129 292.906 31.8189 292.673 32.2269C292.45 32.6251 292.338 33.1011 292.338 33.6548C292.338 34.2085 292.45 34.6942 292.673 35.1119C292.906 35.5296 293.207 35.8502 293.576 36.0736C293.955 36.2873 294.353 36.3942 294.771 36.3942C295.199 36.3942 295.597 36.2873 295.966 36.0736C296.335 35.8599 296.631 35.5491 296.855 35.1411C297.088 34.7234 297.205 34.2377 297.205 33.684ZM301.907 28.6133C301.606 28.6133 301.353 28.5113 301.149 28.3073C300.945 28.1033 300.843 27.8507 300.843 27.5496C300.843 27.2484 300.945 26.9959 301.149 26.7919C301.353 26.5879 301.606 26.4859 301.907 26.4859C302.199 26.4859 302.446 26.5879 302.65 26.7919C302.854 26.9959 302.956 27.2484 302.956 27.5496C302.956 27.8507 302.854 28.1033 302.65 28.3073C302.446 28.5113 302.199 28.6133 301.907 28.6133ZM302.723 29.6769V37.7056H301.062V29.6769H302.723ZM306.842 31.032V35.4762C306.842 35.7773 306.91 35.9959 307.046 36.1319C307.192 36.2582 307.434 36.3213 307.774 36.3213H308.794V37.7056H307.483C306.735 37.7056 306.162 37.5307 305.764 37.181C305.365 36.8313 305.166 36.263 305.166 35.4762V31.032H304.219V29.6769H305.166V27.6807H306.842V29.6769H308.794V31.032H306.842ZM309.772 33.6548C309.772 32.8486 309.937 32.1346 310.267 31.5129C310.607 30.8912 311.064 30.4103 311.637 30.0704C312.22 29.7206 312.861 29.5458 313.56 29.5458C314.192 29.5458 314.74 29.6721 315.207 29.9246C315.683 30.1675 316.062 30.4735 316.343 30.8426V29.6769H318.019V37.7056H316.343V36.5107C316.062 36.8896 315.678 37.2053 315.192 37.4579C314.706 37.7104 314.153 37.8367 313.531 37.8367C312.841 37.8367 312.21 37.6619 311.637 37.3121C311.064 36.9527 310.607 36.4573 310.267 35.8259C309.937 35.1848 309.772 34.4611 309.772 33.6548ZM316.343 33.684C316.343 33.1303 316.227 32.6494 315.994 32.2414C315.77 31.8334 315.474 31.5226 315.105 31.3089C314.736 31.0952 314.337 30.9883 313.91 30.9883C313.482 30.9883 313.084 31.0952 312.715 31.3089C312.346 31.5129 312.045 31.8189 311.812 32.2269C311.588 32.6251 311.477 33.1011 311.477 33.6548C311.477 34.2085 311.588 34.6942 311.812 35.1119C312.045 35.5296 312.346 35.8502 312.715 36.0736C313.094 36.2873 313.492 36.3942 313.91 36.3942C314.337 36.3942 314.736 36.2873 315.105 36.0736C315.474 35.8599 315.77 35.5491 315.994 35.1411C316.227 34.7234 316.343 34.2377 316.343 33.684ZM321.862 30.8426C322.105 30.4346 322.425 30.1189 322.823 29.8955C323.231 29.6624 323.712 29.5458 324.266 29.5458V31.2652H323.843C323.193 31.2652 322.697 31.4303 322.357 31.7606C322.027 32.0909 321.862 32.664 321.862 33.48V37.7056H320.201V29.6769H321.862V30.8426Z" fill="#F12B2B"/>
</svg>
