<svg width="341" height="132" viewBox="0 0 341 132" fill="none" xmlns="http://www.w3.org/2000/svg">
<rect x="0.777474" y="1.34364" width="339.297" height="129.481" rx="16.1322" fill="white" stroke="#EEEEEE" stroke-width="1.04079"/>
<path d="M24.8217 65.8424C24.8217 66.6875 24.5303 67.3918 23.9475 67.9552C23.3743 68.5089 22.4952 68.7857 21.3101 68.7857H19.3576V73.0259H18.0316V62.8699H21.3101C22.4564 62.8699 23.3258 63.1467 23.9183 63.7004C24.5206 64.2541 24.8217 64.9681 24.8217 65.8424ZM21.3101 67.6929C22.0484 67.6929 22.5924 67.5326 22.9421 67.212C23.2918 66.8915 23.4666 66.4349 23.4666 65.8424C23.4666 64.5893 22.7478 63.9627 21.3101 63.9627H19.3576V67.6929H21.3101ZM27.7957 66.3378C28.0288 65.8812 28.3591 65.5267 28.7865 65.2741C29.2237 65.0215 29.7531 64.8952 30.3748 64.8952V66.2649H30.0251C28.5388 66.2649 27.7957 67.0712 27.7957 68.6837V73.0259H26.4697V65.041H27.7957V66.3378ZM35.3879 73.157C34.6399 73.157 33.9599 72.987 33.3479 72.647C32.7457 72.307 32.2697 71.8262 31.92 71.2045C31.58 70.5731 31.41 69.8445 31.41 69.0188C31.41 68.2029 31.5848 67.484 31.9346 66.8623C32.294 66.2309 32.7797 65.7501 33.3917 65.4198C34.0036 65.0798 34.6885 64.9098 35.4462 64.9098C36.2039 64.9098 36.8887 65.0798 37.5007 65.4198C38.1127 65.7501 38.5935 66.2261 38.9432 66.8478C39.3026 67.4695 39.4823 68.1932 39.4823 69.0188C39.4823 69.8445 39.2978 70.5731 38.9286 71.2045C38.5692 71.8262 38.0787 72.307 37.457 72.647C36.8353 72.987 36.1456 73.157 35.3879 73.157ZM35.3879 71.9913C35.8639 71.9913 36.3107 71.8796 36.7284 71.6562C37.1461 71.4328 37.4813 71.0976 37.7338 70.6508C37.9961 70.204 38.1272 69.66 38.1272 69.0188C38.1272 68.3777 38.001 67.8337 37.7484 67.3869C37.4958 66.94 37.1655 66.6098 36.7576 66.3961C36.3496 66.1726 35.9076 66.0609 35.4316 66.0609C34.9459 66.0609 34.4991 66.1726 34.0911 66.3961C33.6928 66.6098 33.3722 66.94 33.1294 67.3869C32.8865 67.8337 32.7651 68.3777 32.7651 69.0188C32.7651 69.6697 32.8817 70.2185 33.1148 70.6654C33.3577 71.1122 33.6782 71.4474 34.0765 71.6708C34.4748 71.8845 34.9119 71.9913 35.3879 71.9913ZM40.7303 69.0043C40.7303 68.1883 40.8955 67.4743 41.2257 66.8623C41.556 66.2406 42.0077 65.7598 42.5808 65.4198C43.1637 65.0798 43.8145 64.9098 44.5334 64.9098C45.1551 64.9098 45.733 65.0555 46.2673 65.347C46.8016 65.6287 47.2096 66.0026 47.4913 66.4689V62.2433H48.8318V73.0259H47.4913V71.5251C47.229 72.0011 46.8404 72.3945 46.3256 72.7053C45.8108 73.0065 45.2085 73.157 44.5188 73.157C43.8097 73.157 43.1637 72.9822 42.5808 72.6325C42.0077 72.2828 41.556 71.7922 41.2257 71.1608C40.8955 70.5294 40.7303 69.8105 40.7303 69.0043ZM47.4913 69.0188C47.4913 68.4166 47.3699 67.892 47.127 67.4452C46.8842 66.9983 46.5539 66.6583 46.1362 66.4252C45.7282 66.1824 45.2765 66.0609 44.7811 66.0609C44.2857 66.0609 43.834 66.1775 43.426 66.4106C43.018 66.6438 42.6926 66.9838 42.4497 67.4306C42.2069 67.8775 42.0854 68.402 42.0854 69.0043C42.0854 69.6163 42.2069 70.1505 42.4497 70.6071C42.6926 71.0539 43.018 71.3988 43.426 71.6416C43.834 71.8748 44.2857 71.9913 44.7811 71.9913C45.2765 71.9913 45.7282 71.8748 46.1362 71.6416C46.5539 71.3988 46.8842 71.0539 47.127 70.6071C47.3699 70.1505 47.4913 69.6211 47.4913 69.0188ZM58.1541 65.041V73.0259H56.8281V71.8456C56.5755 72.2536 56.221 72.5742 55.7644 72.8073C55.3176 73.0307 54.8222 73.1424 54.2782 73.1424C53.6565 73.1424 53.0979 73.0162 52.6025 72.7636C52.1071 72.5013 51.7137 72.1128 51.4223 71.5979C51.1406 71.0831 50.9997 70.4565 50.9997 69.7183V65.041H52.3111V69.5434C52.3111 70.3302 52.5102 70.9374 52.9085 71.3648C53.3068 71.7825 53.8508 71.9913 54.5405 71.9913C55.2496 71.9913 55.8081 71.7728 56.2161 71.3356C56.6241 70.8985 56.8281 70.2622 56.8281 69.4268V65.041H58.1541ZM62.0103 66.1338V70.8402C62.0103 71.2288 62.0928 71.5056 62.258 71.6708C62.4231 71.8262 62.7097 71.9039 63.1177 71.9039H64.0939V73.0259H62.8991C62.1608 73.0259 61.6071 72.8559 61.238 72.5159C60.8689 72.1759 60.6843 71.6173 60.6843 70.8402V66.1338H59.6498V65.041H60.6843V63.0302H62.0103V65.041H64.0939V66.1338H62.0103ZM69.183 73.157C68.435 73.157 67.755 72.987 67.143 72.647C66.5408 72.307 66.0648 71.8262 65.7151 71.2045C65.3751 70.5731 65.2051 69.8445 65.2051 69.0188C65.2051 68.2029 65.3799 67.484 65.7296 66.8623C66.0891 66.2309 66.5748 65.7501 67.1867 65.4198C67.7987 65.0798 68.4836 64.9098 69.2413 64.9098C69.9989 64.9098 70.6838 65.0798 71.2958 65.4198C71.9078 65.7501 72.3886 66.2261 72.7383 66.8478C73.0977 67.4695 73.2774 68.1932 73.2774 69.0188C73.2774 69.8445 73.0929 70.5731 72.7237 71.2045C72.3643 71.8262 71.8738 72.307 71.2521 72.647C70.6304 72.987 69.9407 73.157 69.183 73.157ZM69.183 71.9913C69.659 71.9913 70.1058 71.8796 70.5235 71.6562C70.9412 71.4328 71.2763 71.0976 71.5289 70.6508C71.7912 70.204 71.9223 69.66 71.9223 69.0188C71.9223 68.3777 71.796 67.8337 71.5435 67.3869C71.2909 66.94 70.9606 66.6098 70.5526 66.3961C70.1447 66.1726 69.7027 66.0609 69.2267 66.0609C68.741 66.0609 68.2941 66.1726 67.8862 66.3961C67.4879 66.6098 67.1673 66.94 66.9245 67.3869C66.6816 67.8337 66.5602 68.3777 66.5602 69.0188C66.5602 69.6697 66.6768 70.2185 66.9099 70.6654C67.1527 71.1122 67.4733 71.4474 67.8716 71.6708C68.2699 71.8845 68.707 71.9913 69.183 71.9913Z" fill="#9D9D9D"/>
<path d="M26.4245 94.0935L22.5924 104.25H21.0624L17.2302 94.0935H18.6436L21.8347 102.851L25.0257 94.0935H26.4245ZM27.383 100.228C27.383 99.4119 27.5482 98.698 27.8785 98.086C28.2087 97.4643 28.6604 96.9834 29.2336 96.6434C29.8164 96.3034 30.4624 96.1335 31.1715 96.1335C31.8709 96.1335 32.478 96.284 32.9929 96.5852C33.5077 96.8863 33.8914 97.2651 34.144 97.7217V96.2646H35.4845V104.25H34.144V102.763C33.8817 103.23 33.4883 103.618 32.9637 103.929C32.4489 104.23 31.8466 104.381 31.1569 104.381C30.4478 104.381 29.8067 104.206 29.2336 103.856C28.6604 103.506 28.2087 103.016 27.8785 102.384C27.5482 101.753 27.383 101.034 27.383 100.228ZM34.144 100.242C34.144 99.6402 34.0226 99.1157 33.7797 98.6688C33.5369 98.222 33.2066 97.882 32.7889 97.6488C32.3809 97.406 31.9292 97.2846 31.4338 97.2846C30.9384 97.2846 30.4867 97.4011 30.0787 97.6343C29.6707 97.8674 29.3453 98.2074 29.1024 98.6542C28.8596 99.1011 28.7381 99.6256 28.7381 100.228C28.7381 100.84 28.8596 101.374 29.1024 101.831C29.3453 102.278 29.6707 102.622 30.0787 102.865C30.4867 103.098 30.9384 103.215 31.4338 103.215C31.9292 103.215 32.3809 103.098 32.7889 102.865C33.2066 102.622 33.5369 102.278 33.7797 101.831C34.0226 101.374 34.144 100.845 34.144 100.242ZM39.0512 93.467V104.25H37.7253V93.467H39.0512ZM44.7936 104.381C44.0456 104.381 43.3656 104.211 42.7536 103.871C42.1514 103.531 41.6754 103.05 41.3257 102.428C40.9857 101.797 40.8157 101.068 40.8157 100.242C40.8157 99.4265 40.9906 98.7077 41.3403 98.086C41.6997 97.4546 42.1854 96.9737 42.7974 96.6434C43.4093 96.3034 44.0942 96.1335 44.8519 96.1335C45.6096 96.1335 46.2944 96.3034 46.9064 96.6434C47.5184 96.9737 47.9992 97.4497 48.3489 98.0714C48.7083 98.6931 48.888 99.4168 48.888 100.242C48.888 101.068 48.7035 101.797 48.3343 102.428C47.9749 103.05 47.4844 103.531 46.8627 103.871C46.241 104.211 45.5513 104.381 44.7936 104.381ZM44.7936 103.215C45.2696 103.215 45.7164 103.103 46.1341 102.88C46.5518 102.656 46.887 102.321 47.1395 101.874C47.4018 101.428 47.5329 100.884 47.5329 100.242C47.5329 99.6014 47.4067 99.0574 47.1541 98.6105C46.9015 98.1637 46.5713 97.8334 46.1633 97.6197C45.7553 97.3963 45.3133 97.2846 44.8373 97.2846C44.3516 97.2846 43.9048 97.3963 43.4968 97.6197C43.0985 97.8334 42.7779 98.1637 42.5351 98.6105C42.2922 99.0574 42.1708 99.6014 42.1708 100.242C42.1708 100.893 42.2874 101.442 42.5205 101.889C42.7634 102.336 43.0839 102.671 43.4822 102.894C43.8805 103.108 44.3176 103.215 44.7936 103.215ZM51.9574 97.5614C52.1905 97.1049 52.5208 96.7503 52.9482 96.4977C53.3854 96.2452 53.9148 96.1189 54.5365 96.1189V97.4886H54.1868C52.7005 97.4886 51.9574 98.2948 51.9574 99.9073V104.25H50.6314V96.2646H51.9574V97.5614Z" fill="#9D9D9D"/>
<path d="M208.055 67.9406C208.055 66.9498 208.284 66.0609 208.74 65.2741C209.206 64.4873 209.833 63.8753 210.62 63.4381C211.416 62.9913 212.286 62.7679 213.228 62.7679C214.306 62.7679 215.263 63.035 216.099 63.5693C216.944 64.0938 217.556 64.8418 217.935 65.8132H215.938C215.676 65.279 215.312 64.8807 214.845 64.6184C214.379 64.3561 213.84 64.225 213.228 64.225C212.558 64.225 211.96 64.3756 211.436 64.6767C210.911 64.9778 210.498 65.4101 210.197 65.9735C209.906 66.5369 209.76 67.1926 209.76 67.9406C209.76 68.6886 209.906 69.3443 210.197 69.9077C210.498 70.4711 210.911 70.9082 211.436 71.2191C211.96 71.5202 212.558 71.6708 213.228 71.6708C213.84 71.6708 214.379 71.5396 214.845 71.2774C215.312 71.0151 215.676 70.6168 215.938 70.0825H217.935C217.556 71.0539 216.944 71.8019 216.099 72.3265C215.263 72.851 214.306 73.1133 213.228 73.1133C212.276 73.1133 211.407 72.8947 210.62 72.4576C209.833 72.0108 209.206 71.3939 208.74 70.6071C208.284 69.8203 208.055 68.9314 208.055 67.9406ZM219.325 68.9751C219.325 68.1689 219.49 67.4549 219.821 66.8332C220.161 66.2115 220.617 65.7307 221.19 65.3907C221.773 65.041 222.414 64.8661 223.114 64.8661C223.745 64.8661 224.294 64.9924 224.76 65.245C225.236 65.4878 225.615 65.7938 225.897 66.1629V64.9972H227.572V73.0259H225.897V71.8311C225.615 72.2099 225.231 72.5256 224.746 72.7782C224.26 73.0307 223.706 73.157 223.084 73.157C222.395 73.157 221.763 72.9822 221.19 72.6325C220.617 72.273 220.161 71.7776 219.821 71.1462C219.49 70.5051 219.325 69.7814 219.325 68.9751ZM225.897 69.0043C225.897 68.4506 225.78 67.9697 225.547 67.5617C225.324 67.1538 225.027 66.8429 224.658 66.6292C224.289 66.4155 223.891 66.3086 223.463 66.3086C223.036 66.3086 222.638 66.4155 222.268 66.6292C221.899 66.8332 221.598 67.1392 221.365 67.5472C221.142 67.9455 221.03 68.4214 221.03 68.9751C221.03 69.5288 221.142 70.0145 221.365 70.4322C221.598 70.8499 221.899 71.1705 222.268 71.3939C222.647 71.6076 223.046 71.7145 223.463 71.7145C223.891 71.7145 224.289 71.6076 224.658 71.3939C225.027 71.1802 225.324 70.8694 225.547 70.4614C225.78 70.0437 225.897 69.558 225.897 69.0043ZM229.2 68.9751C229.2 68.1689 229.366 67.4549 229.696 66.8332C230.036 66.2115 230.492 65.7307 231.066 65.3907C231.648 65.041 232.294 64.8661 233.003 64.8661C233.528 64.8661 234.043 64.9827 234.548 65.2158C235.063 65.4392 235.471 65.7404 235.772 66.1192V62.2433H237.448V73.0259H235.772V71.8165C235.5 72.205 235.121 72.5256 234.635 72.7782C234.159 73.0307 233.611 73.157 232.989 73.157C232.289 73.157 231.648 72.9822 231.066 72.6325C230.492 72.273 230.036 71.7776 229.696 71.1462C229.366 70.5051 229.2 69.7814 229.2 68.9751ZM235.772 69.0043C235.772 68.4506 235.655 67.9697 235.422 67.5617C235.199 67.1538 234.903 66.8429 234.533 66.6292C234.164 66.4155 233.766 66.3086 233.339 66.3086C232.911 66.3086 232.513 66.4155 232.144 66.6292C231.775 66.8332 231.474 67.1392 231.24 67.5472C231.017 67.9455 230.905 68.4214 230.905 68.9751C230.905 69.5288 231.017 70.0145 231.24 70.4322C231.474 70.8499 231.775 71.1705 232.144 71.3939C232.523 71.6076 232.921 71.7145 233.339 71.7145C233.766 71.7145 234.164 71.6076 234.533 71.3939C234.903 71.1802 235.199 70.8694 235.422 70.4614C235.655 70.0437 235.772 69.558 235.772 69.0043ZM246.988 68.8149C246.988 69.116 246.968 69.388 246.929 69.6308H240.795C240.844 70.272 241.082 70.7868 241.509 71.1754C241.936 71.5639 242.461 71.7582 243.083 71.7582C243.976 71.7582 244.608 71.3842 244.977 70.6362H246.769C246.526 71.3745 246.084 71.9816 245.443 72.4576C244.812 72.9239 244.025 73.157 243.083 73.157C242.315 73.157 241.626 72.987 241.014 72.647C240.411 72.2973 239.935 71.8116 239.586 71.1899C239.246 70.5585 239.076 69.83 239.076 69.0043C239.076 68.1786 239.241 67.4549 239.571 66.8332C239.911 66.2018 240.382 65.7161 240.985 65.3761C241.596 65.0361 242.296 64.8661 243.083 64.8661C243.84 64.8661 244.516 65.0312 245.108 65.3615C245.701 65.6918 246.162 66.1581 246.492 66.7603C246.823 67.3529 246.988 68.0377 246.988 68.8149ZM245.254 68.2903C245.244 67.6783 245.026 67.1878 244.598 66.8186C244.171 66.4495 243.641 66.2649 243.01 66.2649C242.437 66.2649 241.946 66.4495 241.538 66.8186C241.13 67.178 240.887 67.6686 240.81 68.2903H245.254ZM249.468 63.9336C249.166 63.9336 248.914 63.8316 248.71 63.6276C248.506 63.4236 248.404 63.171 248.404 62.8699C248.404 62.5687 248.506 62.3162 248.71 62.1122C248.914 61.9082 249.166 61.8062 249.468 61.8062C249.759 61.8062 250.007 61.9082 250.211 62.1122C250.415 62.3162 250.517 62.5687 250.517 62.8699C250.517 63.171 250.415 63.4236 250.211 63.6276C250.007 63.8316 249.759 63.9336 249.468 63.9336ZM250.284 64.9972V73.0259H248.622V64.9972H250.284ZM254.126 66.1629C254.368 65.7549 254.689 65.4392 255.087 65.2158C255.495 64.9827 255.976 64.8661 256.53 64.8661V66.5855H256.107C255.456 66.5855 254.961 66.7506 254.621 67.0809C254.291 67.4112 254.126 67.9843 254.126 68.8003V73.0259H252.464V64.9972H254.126V66.1629ZM257.503 68.9751C257.503 68.1689 257.668 67.4549 257.998 66.8332C258.338 66.2115 258.795 65.7307 259.368 65.3907C259.951 65.041 260.592 64.8661 261.291 64.8661C261.923 64.8661 262.472 64.9924 262.938 65.245C263.414 65.4878 263.793 65.7938 264.074 66.1629V64.9972H265.75V73.0259H264.074V71.8311C263.793 72.2099 263.409 72.5256 262.923 72.7782C262.438 73.0307 261.884 73.157 261.262 73.157C260.573 73.157 259.941 72.9822 259.368 72.6325C258.795 72.273 258.338 71.7776 257.998 71.1462C257.668 70.5051 257.503 69.7814 257.503 68.9751ZM264.074 69.0043C264.074 68.4506 263.958 67.9697 263.725 67.5617C263.501 67.1538 263.205 66.8429 262.836 66.6292C262.467 66.4155 262.069 66.3086 261.641 66.3086C261.214 66.3086 260.815 66.4155 260.446 66.6292C260.077 66.8332 259.776 67.1392 259.543 67.5472C259.319 67.9455 259.208 68.4214 259.208 68.9751C259.208 69.5288 259.319 70.0145 259.543 70.4322C259.776 70.8499 260.077 71.1705 260.446 71.3939C260.825 71.6076 261.223 71.7145 261.641 71.7145C262.069 71.7145 262.467 71.6076 262.836 71.3939C263.205 71.1802 263.501 70.8694 263.725 70.4614C263.958 70.0437 264.074 69.558 264.074 69.0043ZM279.046 65.8132C278.784 65.3081 278.42 64.9292 277.953 64.6767C277.487 64.4144 276.948 64.2833 276.336 64.2833C275.666 64.2833 275.068 64.4338 274.544 64.735C274.019 65.0361 273.606 65.4635 273.305 66.0172C273.014 66.5709 272.868 67.212 272.868 67.9406C272.868 68.6691 273.014 69.3151 273.305 69.8785C273.606 70.4322 274.019 70.8597 274.544 71.1608C275.068 71.4619 275.666 71.6125 276.336 71.6125C277.239 71.6125 277.973 71.3599 278.536 70.8548C279.1 70.3497 279.444 69.6648 279.571 68.8003H275.768V67.4743H281.348V68.7711C281.242 69.558 280.96 70.2817 280.503 70.9422C280.056 71.6028 279.469 72.1322 278.74 72.5305C278.021 72.919 277.22 73.1133 276.336 73.1133C275.384 73.1133 274.515 72.8947 273.728 72.4576C272.941 72.0108 272.314 71.3939 271.848 70.6071C271.392 69.8203 271.163 68.9314 271.163 67.9406C271.163 66.9498 271.392 66.0609 271.848 65.2741C272.314 64.4873 272.941 63.8753 273.728 63.4381C274.524 62.9913 275.394 62.7679 276.336 62.7679C277.414 62.7679 278.371 63.035 279.206 63.5693C280.052 64.0938 280.664 64.8418 281.042 65.8132H279.046ZM282.433 68.9751C282.433 68.1689 282.598 67.4549 282.928 66.8332C283.268 66.2115 283.725 65.7307 284.298 65.3907C284.881 65.041 285.522 64.8661 286.221 64.8661C286.853 64.8661 287.402 64.9924 287.868 65.245C288.344 65.4878 288.723 65.7938 289.005 66.1629V64.9972H290.68V73.0259H289.005V71.8311C288.723 72.2099 288.339 72.5256 287.853 72.7782C287.368 73.0307 286.814 73.157 286.192 73.157C285.503 73.157 284.871 72.9822 284.298 72.6325C283.725 72.273 283.268 71.7776 282.928 71.1462C282.598 70.5051 282.433 69.7814 282.433 68.9751ZM289.005 69.0043C289.005 68.4506 288.888 67.9697 288.655 67.5617C288.431 67.1538 288.135 66.8429 287.766 66.6292C287.397 66.4155 286.999 66.3086 286.571 66.3086C286.144 66.3086 285.746 66.4155 285.376 66.6292C285.007 66.8332 284.706 67.1392 284.473 67.5472C284.25 67.9455 284.138 68.4214 284.138 68.9751C284.138 69.5288 284.25 70.0145 284.473 70.4322C284.706 70.8499 285.007 71.1705 285.376 71.3939C285.755 71.6076 286.154 71.7145 286.571 71.7145C286.999 71.7145 287.397 71.6076 287.766 71.3939C288.135 71.1802 288.431 70.8694 288.655 70.4614C288.888 70.0437 289.005 69.558 289.005 69.0043ZM302.581 64.8661C303.212 64.8661 303.776 64.9972 304.271 65.2595C304.776 65.5218 305.17 65.9104 305.451 66.4252C305.743 66.94 305.888 67.5617 305.888 68.2903V73.0259H304.242V68.538C304.242 67.8192 304.062 67.2703 303.703 66.8915C303.343 66.5029 302.853 66.3086 302.231 66.3086C301.609 66.3086 301.114 66.5029 300.745 66.8915C300.386 67.2703 300.206 67.8192 300.206 68.538V73.0259H298.559V68.538C298.559 67.8192 298.38 67.2703 298.02 66.8915C297.661 66.5029 297.17 66.3086 296.548 66.3086C295.927 66.3086 295.431 66.5029 295.062 66.8915C294.703 67.2703 294.523 67.8192 294.523 68.538V73.0259H292.862V64.9972H294.523V65.9152C294.795 65.5849 295.14 65.3275 295.558 65.143C295.975 64.9584 296.422 64.8661 296.898 64.8661C297.539 64.8661 298.112 65.0021 298.618 65.2741C299.123 65.5461 299.511 65.9395 299.783 66.4543C300.026 65.9686 300.405 65.5849 300.92 65.3032C301.435 65.0118 301.988 64.8661 302.581 64.8661ZM315.361 68.8149C315.361 69.116 315.341 69.388 315.302 69.6308H309.168C309.216 70.272 309.454 70.7868 309.882 71.1754C310.309 71.5639 310.834 71.7582 311.456 71.7582C312.349 71.7582 312.981 71.3842 313.35 70.6362H315.142C314.899 71.3745 314.457 71.9816 313.816 72.4576C313.185 72.9239 312.398 73.157 311.456 73.157C310.688 73.157 309.998 72.987 309.386 72.647C308.784 72.2973 308.308 71.8116 307.958 71.1899C307.619 70.5585 307.449 69.83 307.449 69.0043C307.449 68.1786 307.614 67.4549 307.944 66.8332C308.284 66.2018 308.755 65.7161 309.357 65.3761C309.969 65.0361 310.669 64.8661 311.456 64.8661C312.213 64.8661 312.888 65.0312 313.481 65.3615C314.073 65.6918 314.535 66.1581 314.865 66.7603C315.195 67.3529 315.361 68.0377 315.361 68.8149ZM313.627 68.2903C313.617 67.6783 313.398 67.1878 312.971 66.8186C312.544 66.4495 312.014 66.2649 311.383 66.2649C310.81 66.2649 310.319 66.4495 309.911 66.8186C309.503 67.178 309.26 67.6686 309.182 68.2903H313.627ZM318.656 66.1629C318.899 65.7549 319.22 65.4392 319.618 65.2158C320.026 64.9827 320.507 64.8661 321.061 64.8661V66.5855H320.638C319.987 66.5855 319.492 66.7506 319.152 67.0809C318.821 67.4112 318.656 67.9843 318.656 68.8003V73.0259H316.995V64.9972H318.656V66.1629Z" fill="#2C2C2C"/>
<path d="M238.5 96.6143C238.538 95.5749 238.878 94.7735 239.52 94.2101C240.161 93.6467 241.03 93.365 242.128 93.365C242.856 93.365 243.478 93.4912 243.993 93.7438C244.517 93.9964 244.911 94.3412 245.173 94.7783C245.445 95.2155 245.581 95.706 245.581 96.25C245.581 96.8911 245.421 97.4157 245.1 97.8237C244.78 98.222 244.406 98.494 243.978 98.6397V98.698C244.532 98.8825 244.969 99.1885 245.29 99.6159C245.61 100.043 245.77 100.592 245.77 101.262C245.77 101.865 245.63 102.399 245.348 102.865C245.076 103.322 244.673 103.681 244.139 103.944C243.614 104.206 242.987 104.337 242.259 104.337C241.093 104.337 240.161 104.05 239.461 103.477C238.772 102.904 238.407 102.04 238.368 100.884H240.787C240.797 101.311 240.918 101.651 241.151 101.904C241.385 102.146 241.725 102.268 242.171 102.268C242.55 102.268 242.842 102.161 243.046 101.947C243.259 101.724 243.366 101.432 243.366 101.073C243.366 100.607 243.216 100.272 242.915 100.068C242.623 99.8539 242.152 99.7471 241.501 99.7471H241.035V97.7217H241.501C241.997 97.7217 242.395 97.6391 242.696 97.474C243.007 97.2991 243.162 96.9931 243.162 96.556C243.162 96.2063 243.065 95.9343 242.871 95.74C242.677 95.5458 242.409 95.4486 242.069 95.4486C241.7 95.4486 241.423 95.5603 241.239 95.7837C241.064 96.0072 240.962 96.284 240.933 96.6143H238.5ZM247.234 98.7854C247.234 97.1146 247.555 95.7983 248.196 94.8366C248.847 93.8749 249.891 93.3941 251.329 93.3941C252.767 93.3941 253.806 93.8749 254.447 94.8366C255.098 95.7983 255.423 97.1146 255.423 98.7854C255.423 100.476 255.098 101.802 254.447 102.763C253.806 103.725 252.767 104.206 251.329 104.206C249.891 104.206 248.847 103.725 248.196 102.763C247.555 101.802 247.234 100.476 247.234 98.7854ZM252.975 98.7854C252.975 97.8043 252.869 97.0514 252.655 96.5269C252.441 95.9926 251.999 95.7255 251.329 95.7255C250.659 95.7255 250.217 95.9926 250.003 96.5269C249.789 97.0514 249.682 97.8043 249.682 98.7854C249.682 99.4459 249.721 99.9948 249.799 100.432C249.877 100.859 250.032 101.209 250.265 101.481C250.508 101.743 250.863 101.874 251.329 101.874C251.795 101.874 252.145 101.743 252.378 101.481C252.621 101.209 252.781 100.859 252.859 100.432C252.937 99.9948 252.975 99.4459 252.975 98.7854ZM256.74 98.7854C256.74 97.1146 257.06 95.7983 257.701 94.8366C258.352 93.8749 259.397 93.3941 260.834 93.3941C262.272 93.3941 263.311 93.8749 263.952 94.8366C264.603 95.7983 264.929 97.1146 264.929 98.7854C264.929 100.476 264.603 101.802 263.952 102.763C263.311 103.725 262.272 104.206 260.834 104.206C259.397 104.206 258.352 103.725 257.701 102.763C257.06 101.802 256.74 100.476 256.74 98.7854ZM262.481 98.7854C262.481 97.8043 262.374 97.0514 262.16 96.5269C261.946 95.9926 261.504 95.7255 260.834 95.7255C260.164 95.7255 259.722 95.9926 259.508 96.5269C259.295 97.0514 259.188 97.8043 259.188 98.7854C259.188 99.4459 259.227 99.9948 259.304 100.432C259.382 100.859 259.537 101.209 259.771 101.481C260.013 101.743 260.368 101.874 260.834 101.874C261.3 101.874 261.65 101.743 261.883 101.481C262.126 101.209 262.286 100.859 262.364 100.432C262.442 99.9948 262.481 99.4459 262.481 98.7854ZM277.376 97.3137C277.376 97.9063 277.24 98.4502 276.968 98.9457C276.696 99.4314 276.278 99.8248 275.715 100.126C275.152 100.427 274.452 100.578 273.617 100.578H272.072V104.25H269.581V94.0207H273.617C274.433 94.0207 275.122 94.1615 275.686 94.4432C276.249 94.7249 276.672 95.1135 276.953 95.6089C277.235 96.1043 277.376 96.6726 277.376 97.3137ZM273.427 98.596C273.903 98.596 274.258 98.4842 274.491 98.2608C274.724 98.0374 274.841 97.7217 274.841 97.3137C274.841 96.9057 274.724 96.59 274.491 96.3666C274.258 96.1432 273.903 96.0315 273.427 96.0315H272.072V98.596H273.427ZM282.374 104.366C281.578 104.366 280.859 104.196 280.218 103.856C279.586 103.516 279.086 103.03 278.717 102.399C278.358 101.768 278.178 101.029 278.178 100.184C278.178 99.3488 278.362 98.6154 278.732 97.984C279.101 97.3428 279.606 96.8523 280.247 96.5123C280.888 96.1723 281.607 96.0023 282.403 96.0023C283.2 96.0023 283.919 96.1723 284.56 96.5123C285.201 96.8523 285.706 97.3428 286.075 97.984C286.444 98.6154 286.629 99.3488 286.629 100.184C286.629 101.02 286.44 101.758 286.061 102.399C285.692 103.03 285.182 103.516 284.531 103.856C283.89 104.196 283.171 104.366 282.374 104.366ZM282.374 102.21C282.85 102.21 283.253 102.035 283.584 101.685C283.924 101.335 284.094 100.835 284.094 100.184C284.094 99.5334 283.928 99.0331 283.598 98.6834C283.278 98.3337 282.879 98.1588 282.403 98.1588C281.918 98.1588 281.515 98.3337 281.194 98.6834C280.873 99.0234 280.713 99.5236 280.713 100.184C280.713 100.835 280.869 101.335 281.179 101.685C281.5 102.035 281.898 102.21 282.374 102.21ZM292.905 96.0315C293.857 96.0315 294.615 96.3423 295.178 96.964C295.751 97.576 296.038 98.4211 296.038 99.4994V104.25H293.561V99.8345C293.561 99.2905 293.42 98.8679 293.138 98.5668C292.856 98.2657 292.478 98.1151 292.002 98.1151C291.526 98.1151 291.147 98.2657 290.865 98.5668C290.583 98.8679 290.443 99.2905 290.443 99.8345V104.25H287.951V96.1189H290.443V97.1971C290.695 96.8377 291.035 96.556 291.462 96.352C291.89 96.1383 292.371 96.0315 292.905 96.0315ZM302.301 102.137V104.25H301.033C300.13 104.25 299.425 104.031 298.92 103.594C298.415 103.147 298.163 102.423 298.163 101.423V98.188H297.172V96.1189H298.163V94.1372H300.654V96.1189H302.286V98.188H300.654V101.452C300.654 101.695 300.713 101.87 300.829 101.976C300.946 102.083 301.14 102.137 301.412 102.137H302.301ZM307.39 104.366C306.593 104.366 305.874 104.196 305.233 103.856C304.602 103.516 304.102 103.03 303.732 102.399C303.373 101.768 303.193 101.029 303.193 100.184C303.193 99.3488 303.378 98.6154 303.747 97.984C304.116 97.3428 304.621 96.8523 305.262 96.5123C305.903 96.1723 306.622 96.0023 307.419 96.0023C308.215 96.0023 308.934 96.1723 309.575 96.5123C310.217 96.8523 310.722 97.3428 311.091 97.984C311.46 98.6154 311.644 99.3488 311.644 100.184C311.644 101.02 311.455 101.758 311.076 102.399C310.707 103.03 310.197 103.516 309.546 103.856C308.905 104.196 308.186 104.366 307.39 104.366ZM307.39 102.21C307.866 102.21 308.269 102.035 308.599 101.685C308.939 101.335 309.109 100.835 309.109 100.184C309.109 99.5334 308.944 99.0331 308.614 98.6834C308.293 98.3337 307.895 98.1588 307.419 98.1588C306.933 98.1588 306.53 98.3337 306.209 98.6834C305.889 99.0234 305.729 99.5236 305.729 100.184C305.729 100.835 305.884 101.335 306.195 101.685C306.515 102.035 306.914 102.21 307.39 102.21ZM316.274 104.366C315.565 104.366 314.933 104.245 314.38 104.002C313.826 103.759 313.389 103.429 313.068 103.011C312.748 102.584 312.568 102.108 312.529 101.583H314.992C315.021 101.865 315.152 102.093 315.385 102.268C315.618 102.443 315.905 102.53 316.245 102.53C316.556 102.53 316.794 102.472 316.959 102.355C317.134 102.229 317.221 102.069 317.221 101.874C317.221 101.641 317.1 101.471 316.857 101.364C316.614 101.248 316.221 101.122 315.677 100.986C315.094 100.85 314.608 100.709 314.219 100.563C313.831 100.408 313.496 100.17 313.214 99.8491C312.932 99.5188 312.791 99.0768 312.791 98.5231C312.791 98.0568 312.918 97.6343 313.17 97.2554C313.433 96.8669 313.811 96.5609 314.307 96.3374C314.812 96.114 315.409 96.0023 316.099 96.0023C317.119 96.0023 317.92 96.2549 318.503 96.76C319.096 97.2651 319.436 97.9354 319.523 98.7708H317.221C317.182 98.4891 317.056 98.2657 316.842 98.1005C316.638 97.9354 316.366 97.8528 316.026 97.8528C315.735 97.8528 315.511 97.9111 315.356 98.0277C315.201 98.1345 315.123 98.2851 315.123 98.4794C315.123 98.7125 315.244 98.8874 315.487 99.0039C315.74 99.1205 316.128 99.2371 316.653 99.3536C317.255 99.5091 317.746 99.6645 318.124 99.8199C318.503 99.9656 318.834 100.208 319.115 100.548C319.407 100.879 319.557 101.326 319.567 101.889C319.567 102.365 319.431 102.792 319.159 103.171C318.897 103.54 318.513 103.832 318.008 104.046C317.512 104.259 316.935 104.366 316.274 104.366Z" fill="#F12B2B"/>
<path d="M23.1606 37.6392L20.9167 33.6758H19.955V37.6392H17.9151V27.4686H21.7327C22.5195 27.4686 23.1898 27.6094 23.7435 27.8911C24.2972 28.1631 24.71 28.5371 24.982 29.0131C25.2637 29.4794 25.4046 30.0039 25.4046 30.5868C25.4046 31.2571 25.2103 31.8642 24.8217 32.4082C24.4332 32.9424 23.8552 33.3116 23.0878 33.5156L25.5211 37.6392H23.1606ZM19.955 32.1459H21.6598C22.2135 32.1459 22.6264 32.0147 22.8984 31.7525C23.1703 31.4805 23.3063 31.1065 23.3063 30.6305C23.3063 30.1642 23.1703 29.8048 22.8984 29.5522C22.6264 29.29 22.2135 29.1588 21.6598 29.1588H19.955V32.1459ZM34.7537 33.4281C34.7537 33.7196 34.7343 33.9818 34.6954 34.215H28.7942C28.8427 34.7978 29.0467 35.2544 29.4061 35.5846C29.7656 35.9149 30.2075 36.0801 30.7321 36.0801C31.4898 36.0801 32.0289 35.7546 32.3495 35.1038H34.5497C34.3166 35.8809 33.8697 36.522 33.2092 37.0272C32.5486 37.5226 31.7375 37.7703 30.7758 37.7703C29.9987 37.7703 29.2993 37.6003 28.6776 37.2603C28.0656 36.9106 27.5848 36.4201 27.2351 35.7886C26.8951 35.1572 26.7251 34.4287 26.7251 33.603C26.7251 32.7676 26.8951 32.0342 27.2351 31.4028C27.575 30.7714 28.051 30.2857 28.663 29.9457C29.275 29.6057 29.9793 29.4357 30.7758 29.4357C31.5432 29.4357 32.2281 29.6008 32.8303 29.9311C33.4423 30.2614 33.9134 30.7325 34.2437 31.3445C34.5837 31.9467 34.7537 32.6413 34.7537 33.4281ZM32.6409 32.8453C32.6312 32.3207 32.4418 31.903 32.0726 31.5922C31.7035 31.2716 31.2518 31.1113 30.7175 31.1113C30.2124 31.1113 29.785 31.2668 29.4353 31.5776C29.0953 31.8788 28.8864 32.3013 28.8087 32.8453H32.6409ZM39.3317 37.7703C38.6712 37.7703 38.0786 37.6537 37.5541 37.4206C37.0295 37.1777 36.6118 36.8523 36.301 36.4443C35.9998 36.0363 35.8347 35.5846 35.8055 35.0892H37.8601C37.8989 35.4001 38.0495 35.6575 38.3118 35.8615C38.5838 36.0655 38.9189 36.1675 39.3172 36.1675C39.7057 36.1675 40.0069 36.0898 40.2206 35.9344C40.444 35.7789 40.5557 35.5798 40.5557 35.3369C40.5557 35.0747 40.4197 34.8804 40.1477 34.7541C39.8854 34.6181 39.4629 34.4724 38.88 34.317C38.2778 34.1713 37.7823 34.0207 37.3938 33.8653C37.0149 33.7098 36.6847 33.4718 36.403 33.1513C36.131 32.8307 35.995 32.3984 35.995 31.8545C35.995 31.4076 36.1213 30.9996 36.3738 30.6305C36.6361 30.2614 37.0052 29.9699 37.4812 29.7562C37.9669 29.5425 38.5352 29.4357 39.186 29.4357C40.1477 29.4357 40.9151 29.6785 41.4882 30.1642C42.0614 30.6402 42.3771 31.2862 42.4354 32.1022H40.4828C40.4537 31.7816 40.3177 31.529 40.0749 31.3445C39.8417 31.1502 39.526 31.0531 39.1277 31.0531C38.7586 31.0531 38.472 31.1211 38.2681 31.2571C38.0738 31.393 37.9766 31.5825 37.9766 31.8253C37.9766 32.0973 38.1126 32.3062 38.3846 32.4519C38.6566 32.5879 39.0792 32.7287 39.6523 32.8744C40.2351 33.0201 40.716 33.1707 41.0948 33.3261C41.4737 33.4816 41.7991 33.7244 42.0711 34.0547C42.3528 34.3753 42.4985 34.8027 42.5082 35.3369C42.5082 35.8032 42.3771 36.2209 42.1148 36.59C41.8622 36.9592 41.4931 37.2506 41.0074 37.4643C40.5314 37.6683 39.9729 37.7703 39.3317 37.7703ZM51.8034 29.5668V37.6392H49.7489V36.6192C49.4866 36.9689 49.1417 37.2457 48.7143 37.4497C48.2966 37.644 47.8401 37.7412 47.3447 37.7412C46.7132 37.7412 46.1547 37.61 45.669 37.3477C45.1833 37.0757 44.7996 36.6823 44.5179 36.1675C44.2459 35.6429 44.1099 35.0212 44.1099 34.3024V29.5668H46.1498V34.011C46.1498 34.6521 46.3101 35.1475 46.6307 35.4972C46.9512 35.8372 47.3884 36.0072 47.9421 36.0072C48.5055 36.0072 48.9475 35.8372 49.268 35.4972C49.5886 35.1475 49.7489 34.6521 49.7489 34.011V29.5668H51.8034ZM63.841 29.4502C64.8318 29.4502 65.6284 29.7562 66.2306 30.3682C66.8426 30.9705 67.1486 31.8156 67.1486 32.9036V37.6392H65.1087V33.1804C65.1087 32.549 64.9484 32.0682 64.6278 31.7379C64.3073 31.3979 63.8701 31.2279 63.3164 31.2279C62.7627 31.2279 62.3207 31.3979 61.9905 31.7379C61.6699 32.0682 61.5096 32.549 61.5096 33.1804V37.6392H59.4697V33.1804C59.4697 32.549 59.3094 32.0682 58.9888 31.7379C58.6683 31.3979 58.2311 31.2279 57.6774 31.2279C57.114 31.2279 56.6672 31.3979 56.3369 31.7379C56.0163 32.0682 55.8561 32.549 55.8561 33.1804V37.6392H53.8161V29.5668H55.8561V30.5431C56.1183 30.2031 56.4535 29.9359 56.8615 29.7417C57.2792 29.5474 57.7357 29.4502 58.2311 29.4502C58.8626 29.4502 59.426 29.5862 59.9214 29.8582C60.4168 30.1205 60.8005 30.4994 61.0725 30.9948C61.3348 30.5285 61.7136 30.1545 62.209 29.8728C62.7142 29.5911 63.2581 29.4502 63.841 29.4502ZM72.6689 37.7703C71.8917 37.7703 71.1923 37.6003 70.5706 37.2603C69.9489 36.9106 69.4584 36.4201 69.099 35.7886C68.7493 35.1572 68.5744 34.4287 68.5744 33.603C68.5744 32.7773 68.7541 32.0487 69.1135 31.4173C69.4827 30.7859 69.9829 30.3002 70.6143 29.9602C71.2458 29.6105 71.95 29.4357 72.7271 29.4357C73.5043 29.4357 74.2085 29.6105 74.8399 29.9602C75.4714 30.3002 75.9668 30.7859 76.3262 31.4173C76.6953 32.0487 76.8799 32.7773 76.8799 33.603C76.8799 34.4287 76.6905 35.1572 76.3116 35.7886C75.9425 36.4201 75.4374 36.9106 74.7962 37.2603C74.1648 37.6003 73.4557 37.7703 72.6689 37.7703ZM72.6689 35.9926C73.038 35.9926 73.3828 35.9052 73.7034 35.7304C74.0337 35.5458 74.296 35.2738 74.4902 34.9144C74.6845 34.555 74.7817 34.1178 74.7817 33.603C74.7817 32.8356 74.5777 32.2479 74.1697 31.8399C73.7714 31.4222 73.2808 31.2133 72.698 31.2133C72.1152 31.2133 71.6246 31.4222 71.2263 31.8399C70.8378 32.2479 70.6435 32.8356 70.6435 33.603C70.6435 34.3704 70.8329 34.9629 71.2118 35.3807C71.6003 35.7886 72.086 35.9926 72.6689 35.9926ZM81.3237 33.5738C81.3237 32.7579 81.484 32.0342 81.8045 31.4028C82.1348 30.7714 82.5817 30.2857 83.1451 29.9457C83.7085 29.6057 84.335 29.4357 85.0247 29.4357C85.5493 29.4357 86.0496 29.5522 86.5256 29.7854C87.0015 30.0088 87.3804 30.3099 87.6621 30.6888V26.8566H89.7312V37.6392H87.6621V36.4443C87.4095 36.8426 87.055 37.1632 86.5984 37.406C86.1419 37.6489 85.6124 37.7703 85.0102 37.7703C84.3302 37.7703 83.7085 37.5954 83.1451 37.2457C82.5817 36.896 82.1348 36.4055 81.8045 35.7741C81.484 35.1329 81.3237 34.3995 81.3237 33.5738ZM87.6767 33.603C87.6767 33.1076 87.5795 32.685 87.3852 32.3353C87.191 31.9759 86.9287 31.7039 86.5984 31.5193C86.2681 31.3251 85.9136 31.2279 85.5347 31.2279C85.1559 31.2279 84.8062 31.3202 84.4856 31.5048C84.1651 31.6893 83.9028 31.9613 83.6988 32.3207C83.5045 32.6704 83.4074 33.0881 83.4074 33.5738C83.4074 34.0595 83.5045 34.487 83.6988 34.8561C83.9028 35.2155 84.1651 35.4924 84.4856 35.6866C84.8159 35.8809 85.1656 35.9781 85.5347 35.9781C85.9136 35.9781 86.2681 35.8858 86.5984 35.7012C86.9287 35.5069 87.191 35.2349 87.3852 34.8852C87.5795 34.5258 87.6767 34.0984 87.6767 33.603ZM91.199 33.5738C91.199 32.7579 91.3593 32.0342 91.6798 31.4028C92.0101 30.7714 92.4521 30.2857 93.0058 29.9457C93.5692 29.6057 94.1958 29.4357 94.8855 29.4357C95.4877 29.4357 96.0123 29.5571 96.4591 29.8C96.9157 30.0428 97.28 30.3488 97.5519 30.7179V29.5668H99.6065V37.6392H97.5519V36.4589C97.2897 36.8378 96.9254 37.1535 96.4591 37.406C96.0026 37.6489 95.4731 37.7703 94.8709 37.7703C94.1909 37.7703 93.5692 37.5954 93.0058 37.2457C92.4521 36.896 92.0101 36.4055 91.6798 35.7741C91.3593 35.1329 91.199 34.3995 91.199 33.5738ZM97.5519 33.603C97.5519 33.1076 97.4548 32.685 97.2605 32.3353C97.0662 31.9759 96.804 31.7039 96.4737 31.5193C96.1434 31.3251 95.7889 31.2279 95.41 31.2279C95.0312 31.2279 94.6815 31.3202 94.3609 31.5048C94.0403 31.6893 93.7781 31.9613 93.5741 32.3207C93.3798 32.6704 93.2826 33.0881 93.2826 33.5738C93.2826 34.0595 93.3798 34.487 93.5741 34.8561C93.7781 35.2155 94.0403 35.4924 94.3609 35.6866C94.6912 35.8809 95.0409 35.9781 95.41 35.9781C95.7889 35.9781 96.1434 35.8858 96.4737 35.7012C96.804 35.5069 97.0662 35.2349 97.2605 34.8852C97.4548 34.5258 97.5519 34.0984 97.5519 33.603ZM104.546 33.603C104.546 32.7676 104.716 32.039 105.056 31.4173C105.396 30.7859 105.867 30.3002 106.47 29.9602C107.072 29.6105 107.762 29.4357 108.539 29.4357C109.539 29.4357 110.365 29.6882 111.016 30.1934C111.676 30.6888 112.118 31.3882 112.342 32.2916H110.142C110.025 31.9419 109.826 31.6699 109.544 31.4756C109.272 31.2716 108.932 31.1696 108.524 31.1696C107.941 31.1696 107.48 31.3833 107.14 31.8108C106.8 32.2285 106.63 32.8259 106.63 33.603C106.63 34.3704 106.8 34.9678 107.14 35.3952C107.48 35.8129 107.941 36.0218 108.524 36.0218C109.35 36.0218 109.889 35.6526 110.142 34.9144H112.342C112.118 35.7886 111.676 36.4832 111.016 36.998C110.355 37.5129 109.53 37.7703 108.539 37.7703C107.762 37.7703 107.072 37.6003 106.47 37.2603C105.867 36.9106 105.396 36.4249 105.056 35.8032C104.716 35.1718 104.546 34.4384 104.546 33.603ZM117.421 37.7703C116.644 37.7703 115.944 37.6003 115.322 37.2603C114.701 36.9106 114.21 36.4201 113.851 35.7886C113.501 35.1572 113.326 34.4287 113.326 33.603C113.326 32.7773 113.506 32.0487 113.865 31.4173C114.234 30.7859 114.735 30.3002 115.366 29.9602C115.998 29.6105 116.702 29.4357 117.479 29.4357C118.256 29.4357 118.96 29.6105 119.592 29.9602C120.223 30.3002 120.719 30.7859 121.078 31.4173C121.447 32.0487 121.632 32.7773 121.632 33.603C121.632 34.4287 121.442 35.1572 121.063 35.7886C120.694 36.4201 120.189 36.9106 119.548 37.2603C118.917 37.6003 118.208 37.7703 117.421 37.7703ZM117.421 35.9926C117.79 35.9926 118.135 35.9052 118.455 35.7304C118.785 35.5458 119.048 35.2738 119.242 34.9144C119.436 34.555 119.533 34.1178 119.533 33.603C119.533 32.8356 119.329 32.2479 118.921 31.8399C118.523 31.4222 118.033 31.2133 117.45 31.2133C116.867 31.2133 116.376 31.4222 115.978 31.8399C115.59 32.2479 115.395 32.8356 115.395 33.603C115.395 34.3704 115.585 34.9629 115.964 35.3807C116.352 35.7886 116.838 35.9926 117.421 35.9926ZM133.153 29.4502C134.144 29.4502 134.94 29.7562 135.543 30.3682C136.155 30.9705 136.461 31.8156 136.461 32.9036V37.6392H134.421V33.1804C134.421 32.549 134.26 32.0682 133.94 31.7379C133.619 31.3979 133.182 31.2279 132.628 31.2279C132.075 31.2279 131.633 31.3979 131.302 31.7379C130.982 32.0682 130.822 32.549 130.822 33.1804V37.6392H128.782V33.1804C128.782 32.549 128.621 32.0682 128.301 31.7379C127.98 31.3979 127.543 31.2279 126.989 31.2279C126.426 31.2279 125.979 31.3979 125.649 31.7379C125.328 32.0682 125.168 32.549 125.168 33.1804V37.6392H123.128V29.5668H125.168V30.5431C125.43 30.2031 125.765 29.9359 126.173 29.7417C126.591 29.5474 127.048 29.4502 127.543 29.4502C128.175 29.4502 128.738 29.5862 129.233 29.8582C129.729 30.1205 130.112 30.4994 130.384 30.9948C130.647 30.5285 131.026 30.1545 131.521 29.8728C132.026 29.5911 132.57 29.4502 133.153 29.4502ZM140.436 30.7325C140.699 30.3634 141.058 30.0574 141.515 29.8145C141.981 29.562 142.51 29.4357 143.103 29.4357C143.792 29.4357 144.414 29.6057 144.968 29.9457C145.531 30.2857 145.973 30.7714 146.294 31.4028C146.624 32.0245 146.789 32.7482 146.789 33.5738C146.789 34.3995 146.624 35.1329 146.294 35.7741C145.973 36.4055 145.531 36.896 144.968 37.2457C144.414 37.5954 143.792 37.7703 143.103 37.7703C142.51 37.7703 141.986 37.6489 141.529 37.406C141.082 37.1632 140.718 36.8572 140.436 36.488V41.4859H138.396V29.5668H140.436V30.7325ZM144.706 33.5738C144.706 33.0881 144.604 32.6704 144.4 32.3207C144.205 31.9613 143.943 31.6893 143.613 31.5048C143.292 31.3202 142.942 31.2279 142.564 31.2279C142.195 31.2279 141.845 31.3251 141.515 31.5193C141.194 31.7039 140.932 31.9759 140.728 32.3353C140.533 32.6947 140.436 33.1173 140.436 33.603C140.436 34.0887 140.533 34.5112 140.728 34.8707C140.932 35.2301 141.194 35.5069 141.515 35.7012C141.845 35.8858 142.195 35.9781 142.564 35.9781C142.942 35.9781 143.292 35.8809 143.613 35.6866C143.943 35.4924 144.205 35.2155 144.4 34.8561C144.604 34.4967 144.706 34.0693 144.706 33.5738ZM150.312 30.8199C150.574 30.3925 150.914 30.0574 151.332 29.8145C151.759 29.5717 152.245 29.4502 152.789 29.4502V31.5922H152.25C151.608 31.5922 151.123 31.7428 150.792 32.0439C150.472 32.345 150.312 32.8696 150.312 33.6176V37.6392H148.272V29.5668H150.312V30.8199ZM153.638 33.5738C153.638 32.7579 153.798 32.0342 154.119 31.4028C154.449 30.7714 154.891 30.2857 155.445 29.9457C156.008 29.6057 156.635 29.4357 157.325 29.4357C157.927 29.4357 158.451 29.5571 158.898 29.8C159.355 30.0428 159.719 30.3488 159.991 30.7179V29.5668H162.046V37.6392H159.991V36.4589C159.729 36.8378 159.364 37.1535 158.898 37.406C158.442 37.6489 157.912 37.7703 157.31 37.7703C156.63 37.7703 156.008 37.5954 155.445 37.2457C154.891 36.896 154.449 36.4055 154.119 35.7741C153.798 35.1329 153.638 34.3995 153.638 33.5738ZM159.991 33.603C159.991 33.1076 159.894 32.685 159.7 32.3353C159.505 31.9759 159.243 31.7039 158.913 31.5193C158.583 31.3251 158.228 31.2279 157.849 31.2279C157.47 31.2279 157.121 31.3202 156.8 31.5048C156.479 31.6893 156.217 31.9613 156.013 32.3207C155.819 32.6704 155.722 33.0881 155.722 33.5738C155.722 34.0595 155.819 34.487 156.013 34.8561C156.217 35.2155 156.479 35.4924 156.8 35.6866C157.13 35.8809 157.48 35.9781 157.849 35.9781C158.228 35.9781 158.583 35.8858 158.913 35.7012C159.243 35.5069 159.505 35.2349 159.7 34.8852C159.894 34.5258 159.991 34.0984 159.991 33.603Z" fill="#2C2C2C"/>
<path d="M283.347 28.8528V31.8253H286.844V33.1804H283.347V36.2841H287.281V37.6392H281.686V27.4977H287.281V28.8528H283.347ZM288.774 33.5884C288.774 32.7822 288.939 32.0682 289.269 31.4465C289.609 30.8248 290.065 30.3439 290.639 30.0039C291.221 29.6542 291.867 29.4794 292.577 29.4794C293.101 29.4794 293.616 29.596 294.121 29.8291C294.636 30.0525 295.044 30.3537 295.345 30.7325V26.8566H297.021V37.6392H295.345V36.4298C295.073 36.8183 294.694 37.1389 294.209 37.3915C293.733 37.644 293.184 37.7703 292.562 37.7703C291.863 37.7703 291.221 37.5954 290.639 37.2457C290.065 36.8863 289.609 36.3909 289.269 35.7595C288.939 35.1184 288.774 34.3947 288.774 33.5884ZM295.345 33.6176C295.345 33.0639 295.228 32.583 294.995 32.175C294.772 31.767 294.476 31.4562 294.107 31.2425C293.737 31.0288 293.339 30.9219 292.912 30.9219C292.484 30.9219 292.086 31.0288 291.717 31.2425C291.348 31.4465 291.047 31.7525 290.813 32.1605C290.59 32.5587 290.478 33.0347 290.478 33.5884C290.478 34.1421 290.59 34.6278 290.813 35.0455C291.047 35.4632 291.348 35.7838 291.717 36.0072C292.096 36.2209 292.494 36.3278 292.912 36.3278C293.339 36.3278 293.737 36.2209 294.107 36.0072C294.476 35.7935 294.772 35.4826 294.995 35.0747C295.228 34.657 295.345 34.1713 295.345 33.6176ZM300.048 28.5468C299.746 28.5468 299.494 28.4448 299.29 28.2409C299.086 28.0369 298.984 27.7843 298.984 27.4832C298.984 27.182 299.086 26.9295 299.29 26.7255C299.494 26.5215 299.746 26.4195 300.048 26.4195C300.339 26.4195 300.587 26.5215 300.791 26.7255C300.995 26.9295 301.097 27.182 301.097 27.4832C301.097 27.7843 300.995 28.0369 300.791 28.2409C300.587 28.4448 300.339 28.5468 300.048 28.5468ZM300.864 29.6105V37.6392H299.203V29.6105H300.864ZM304.982 30.9656V35.4098C304.982 35.7109 305.05 35.9295 305.186 36.0655C305.332 36.1918 305.575 36.2549 305.915 36.2549H306.935V37.6392H305.624C304.876 37.6392 304.302 37.4643 303.904 37.1146C303.506 36.7649 303.307 36.1966 303.307 35.4098V30.9656H302.36V29.6105H303.307V27.6143H304.982V29.6105H306.935V30.9656H304.982ZM307.912 33.5884C307.912 32.7822 308.077 32.0682 308.408 31.4465C308.748 30.8248 309.204 30.3439 309.777 30.0039C310.36 29.6542 311.001 29.4794 311.701 29.4794C312.332 29.4794 312.881 29.6057 313.347 29.8582C313.823 30.1011 314.202 30.4071 314.484 30.7762V29.6105H316.159V37.6392H314.484V36.4443C314.202 36.8232 313.818 37.1389 313.333 37.3915C312.847 37.644 312.293 37.7703 311.672 37.7703C310.982 37.7703 310.35 37.5954 309.777 37.2457C309.204 36.8863 308.748 36.3909 308.408 35.7595C308.077 35.1184 307.912 34.3947 307.912 33.5884ZM314.484 33.6176C314.484 33.0639 314.367 32.583 314.134 32.175C313.911 31.767 313.614 31.4562 313.245 31.2425C312.876 31.0288 312.478 30.9219 312.05 30.9219C311.623 30.9219 311.225 31.0288 310.856 31.2425C310.486 31.4465 310.185 31.7525 309.952 32.1605C309.729 32.5587 309.617 33.0347 309.617 33.5884C309.617 34.1421 309.729 34.6278 309.952 35.0455C310.185 35.4632 310.486 35.7838 310.856 36.0072C311.234 36.2209 311.633 36.3278 312.05 36.3278C312.478 36.3278 312.876 36.2209 313.245 36.0072C313.614 35.7935 313.911 35.4826 314.134 35.0747C314.367 34.657 314.484 34.1713 314.484 33.6176ZM320.002 30.7762C320.245 30.3682 320.566 30.0525 320.964 29.8291C321.372 29.596 321.853 29.4794 322.407 29.4794V31.1988H321.984C321.333 31.1988 320.838 31.3639 320.498 31.6942C320.167 32.0245 320.002 32.5976 320.002 33.4136V37.6392H318.341V29.6105H320.002V30.7762Z" fill="#F12B2B"/>
</svg>
