<svg width="341" height="83" viewBox="0 0 341 83" fill="none" xmlns="http://www.w3.org/2000/svg">
<path d="M5.18208 15.254C4.5021 15.254 3.87069 15.1277 3.28785 14.8751C2.70501 14.6128 2.2096 14.2583 1.80161 13.8114C1.39362 13.3646 1.09249 12.8497 0.898205 12.2669L2.35531 11.6549C2.61759 12.3252 3.00129 12.84 3.50642 13.1994C4.01155 13.5589 4.59439 13.7386 5.25494 13.7386C5.6435 13.7386 5.98349 13.6803 6.27491 13.5637C6.56633 13.4374 6.78975 13.2626 6.94518 13.0392C7.11032 12.8157 7.19289 12.5583 7.19289 12.2669C7.19289 11.8686 7.08117 11.5529 6.85775 11.3198C6.63433 11.0866 6.30405 10.9021 5.86692 10.7661L3.82698 10.125C3.011 9.87239 2.38931 9.48869 1.96189 8.97384C1.53447 8.44929 1.32076 7.8373 1.32076 7.1379C1.32076 6.52591 1.47133 5.99164 1.77247 5.53508C2.0736 5.06881 2.48645 4.70454 3.011 4.44226C3.54527 4.17998 4.1524 4.04884 4.83238 4.04884C5.48322 4.04884 6.07577 4.16541 6.61004 4.39854C7.14432 4.62197 7.60087 4.93281 7.97972 5.33109C8.36828 5.72936 8.64999 6.19078 8.82484 6.71534L7.39688 7.34189C7.18317 6.76876 6.84804 6.32678 6.39148 6.01593C5.94464 5.70508 5.42494 5.54965 4.83238 5.54965C4.47296 5.54965 4.15726 5.6128 3.88526 5.73908C3.61327 5.85565 3.39956 6.0305 3.24414 6.26363C3.09843 6.48706 3.02557 6.74934 3.02557 7.05047C3.02557 7.40017 3.13729 7.71102 3.36071 7.98301C3.58413 8.25501 3.92412 8.459 4.38068 8.595L6.27491 9.19241C7.13946 9.45469 7.7903 9.83353 8.22743 10.3289C8.66456 10.8146 8.88312 11.4218 8.88312 12.1503C8.88312 12.7526 8.72284 13.2869 8.40228 13.7531C8.09143 14.2194 7.65916 14.5885 7.10546 14.8605C6.55176 15.1228 5.91064 15.254 5.18208 15.254ZM14.354 15.254C13.5671 15.254 12.8677 15.0742 12.2557 14.7148C11.6535 14.3457 11.1823 13.8503 10.8424 13.2286C10.5024 12.5972 10.3324 11.8929 10.3324 11.1158C10.3324 10.3192 10.5024 9.61497 10.8424 9.00299C11.1921 8.391 11.6583 7.91016 12.2412 7.56046C12.824 7.20104 13.4846 7.02133 14.2228 7.02133C14.8154 7.02133 15.3448 7.12332 15.8111 7.32732C16.2773 7.53131 16.6708 7.81302 16.9913 8.17244C17.3119 8.52214 17.5547 8.92527 17.7199 9.38183C17.8947 9.83839 17.9822 10.3241 17.9822 10.8389C17.9822 10.9652 17.9773 11.0964 17.9676 11.2324C17.9579 11.3683 17.9384 11.4946 17.9093 11.6112H11.6292V10.2998H16.9768L16.1899 10.8972C16.2871 10.4212 16.2531 9.99867 16.0879 9.62954C15.9325 9.25069 15.6896 8.95442 15.3594 8.74071C15.0388 8.51729 14.66 8.40557 14.2228 8.40557C13.7857 8.40557 13.3971 8.51729 13.0572 8.74071C12.7172 8.95442 12.4549 9.26526 12.2703 9.67325C12.0858 10.0715 12.0129 10.5572 12.0518 11.1304C12.0032 11.6646 12.076 12.1309 12.2703 12.5292C12.4743 12.9274 12.756 13.2383 13.1154 13.4617C13.4846 13.6851 13.9023 13.7969 14.3685 13.7969C14.8445 13.7969 15.2477 13.69 15.5779 13.4763C15.9179 13.2626 16.1851 12.9857 16.3793 12.6457L17.7199 13.3014C17.5645 13.6706 17.3216 14.0057 16.9913 14.3068C16.6708 14.5983 16.2822 14.8314 15.8256 15.0062C15.3788 15.1714 14.8882 15.254 14.354 15.254ZM19.5891 15.0791V7.19618H21.1627V8.74071L20.9733 8.53671C21.1676 8.0413 21.4784 7.66731 21.9059 7.41475C22.3333 7.15247 22.8287 7.02133 23.3921 7.02133C23.9749 7.02133 24.4898 7.14761 24.9366 7.40017C25.3835 7.65274 25.7332 8.00244 25.9857 8.44929C26.2383 8.89613 26.3646 9.41097 26.3646 9.99382V15.0791H24.7326V10.4309C24.7326 10.0327 24.6598 9.69754 24.5141 9.42555C24.3684 9.14384 24.1595 8.93013 23.8875 8.78442C23.6252 8.629 23.3241 8.55128 22.9841 8.55128C22.6441 8.55128 22.3381 8.629 22.0661 8.78442C21.8039 8.93013 21.5999 9.14384 21.4542 9.42555C21.3084 9.70725 21.2356 10.0424 21.2356 10.4309V15.0791H19.5891ZM28.1268 15.0791V4.04884H29.7733V8.74071L29.511 8.53671C29.7053 8.0413 30.0161 7.66731 30.4436 7.41475C30.871 7.15247 31.3664 7.02133 31.9298 7.02133C32.5126 7.02133 33.0275 7.14761 33.4743 7.40017C33.9212 7.65274 34.2709 8.00244 34.5234 8.44929C34.776 8.89613 34.9023 9.40612 34.9023 9.97924V15.0791H33.2703V10.4309C33.2703 10.0327 33.1926 9.69754 33.0372 9.42555C32.8915 9.14384 32.6875 8.93013 32.4252 8.78442C32.1629 8.629 31.8618 8.55128 31.5218 8.55128C31.1915 8.55128 30.8904 8.629 30.6184 8.78442C30.3561 8.93013 30.1473 9.14384 29.9919 9.42555C29.8462 9.70725 29.7733 10.0424 29.7733 10.4309V15.0791H28.1268ZM39.025 15.254C38.4907 15.254 38.0196 15.1617 37.6116 14.9771C37.2133 14.7828 36.9025 14.5205 36.679 14.1903C36.4556 13.8503 36.3439 13.452 36.3439 12.9954C36.3439 12.568 36.4362 12.1843 36.6208 11.8443C36.815 11.5043 37.1113 11.2178 37.5096 10.9846C37.9079 10.7515 38.4081 10.5864 39.0104 10.4892L41.7498 10.0375V11.3343L39.331 11.7569C38.8938 11.8346 38.5733 11.9755 38.3693 12.1795C38.1653 12.3737 38.0633 12.6263 38.0633 12.9372C38.0633 13.2383 38.175 13.486 38.3984 13.6803C38.6316 13.8648 38.9278 13.9571 39.2873 13.9571C39.7341 13.9571 40.1227 13.86 40.4529 13.6657C40.7929 13.4714 41.0552 13.214 41.2398 12.8934C41.4243 12.5632 41.5166 12.1989 41.5166 11.8006V9.77525C41.5166 9.38669 41.3709 9.07098 41.0795 8.82813C40.7978 8.57557 40.4189 8.44929 39.943 8.44929C39.5058 8.44929 39.1221 8.56586 38.7918 8.79899C38.4713 9.02241 38.2333 9.31383 38.0779 9.67325L36.7082 8.98842C36.8539 8.59985 37.0919 8.25986 37.4222 7.96844C37.7524 7.66731 38.1361 7.43417 38.5733 7.26904C39.0201 7.1039 39.4913 7.02133 39.9867 7.02133C40.6084 7.02133 41.1572 7.1379 41.6332 7.37103C42.1189 7.60417 42.4929 7.92959 42.7552 8.34729C43.0272 8.75528 43.1632 9.23127 43.1632 9.77525V15.0791H41.5895V13.6511L41.9246 13.6949C41.74 14.0154 41.5021 14.2923 41.2106 14.5254C40.9289 14.7585 40.6035 14.9382 40.2344 15.0645C39.875 15.1908 39.4718 15.254 39.025 15.254ZM51.2782 15.254C50.5205 15.254 49.8405 15.0742 49.2382 14.7148C48.6457 14.3457 48.1746 13.8503 47.8249 13.2286C47.4849 12.6069 47.3149 11.9075 47.3149 11.1304C47.3149 10.3532 47.4897 9.65383 47.8394 9.03213C48.1891 8.41043 48.6603 7.91987 49.2528 7.56046C49.8454 7.20104 50.5156 7.02133 51.2636 7.02133C51.895 7.02133 52.4536 7.14761 52.9393 7.40017C53.425 7.65274 53.8087 8.00244 54.0904 8.44929L53.8427 8.82813V4.04884H55.4746V15.0791H53.9155V13.4763L54.105 13.7823C53.833 14.2583 53.4444 14.6225 52.9393 14.8751C52.4342 15.1277 51.8805 15.254 51.2782 15.254ZM51.4385 13.724C51.895 13.724 52.303 13.6123 52.6624 13.3889C53.0316 13.1654 53.3181 12.8594 53.5221 12.4709C53.7358 12.0726 53.8427 11.6258 53.8427 11.1304C53.8427 10.6349 53.7358 10.193 53.5221 9.80439C53.3181 9.41583 53.0316 9.10984 52.6624 8.88642C52.303 8.663 51.895 8.55128 51.4385 8.55128C50.9819 8.55128 50.5691 8.663 50.1999 8.88642C49.8308 9.10984 49.5442 9.41583 49.3402 9.80439C49.1362 10.193 49.0342 10.6349 49.0342 11.1304C49.0342 11.6258 49.1362 12.0726 49.3402 12.4709C49.5442 12.8594 49.8259 13.1654 50.1854 13.3889C50.5545 13.6123 50.9722 13.724 51.4385 13.724ZM61.1999 15.254C60.4422 15.254 59.7477 15.0742 59.1163 14.7148C58.4946 14.3554 57.9991 13.8648 57.63 13.2432C57.2609 12.6215 57.0763 11.9172 57.0763 11.1304C57.0763 10.3338 57.2609 9.62954 57.63 9.01756C57.9991 8.39586 58.4946 7.91016 59.1163 7.56046C59.738 7.20104 60.4325 7.02133 61.1999 7.02133C61.977 7.02133 62.6716 7.20104 63.2836 7.56046C63.9053 7.91016 64.3958 8.39586 64.7552 9.01756C65.1244 9.62954 65.3089 10.3338 65.3089 11.1304C65.3089 11.9269 65.1244 12.636 64.7552 13.2577C64.3861 13.8794 63.8907 14.37 63.269 14.7294C62.6473 15.0791 61.9576 15.254 61.1999 15.254ZM61.1999 13.724C61.6662 13.724 62.079 13.6123 62.4384 13.3889C62.7979 13.1654 63.0796 12.8594 63.2836 12.4709C63.4973 12.0726 63.6041 11.6258 63.6041 11.1304C63.6041 10.6349 63.4973 10.193 63.2836 9.80439C63.0796 9.41583 62.7979 9.10984 62.4384 8.88642C62.079 8.663 61.6662 8.55128 61.1999 8.55128C60.7434 8.55128 60.3305 8.663 59.9614 8.88642C59.602 9.10984 59.3154 9.41583 59.1017 9.80439C58.8977 10.193 58.7957 10.6349 58.7957 11.1304C58.7957 11.6258 58.8977 12.0726 59.1017 12.4709C59.3154 12.8594 59.602 13.1654 59.9614 13.3889C60.3305 13.6123 60.7434 13.724 61.1999 13.724ZM71.824 15.254C71.2897 15.254 70.8186 15.1617 70.4106 14.9771C70.0123 14.7828 69.7015 14.5205 69.4781 14.1903C69.2547 13.8503 69.1429 13.452 69.1429 12.9954C69.1429 12.568 69.2352 12.1843 69.4198 11.8443C69.6141 11.5043 69.9103 11.2178 70.3086 10.9846C70.7069 10.7515 71.2072 10.5864 71.8094 10.4892L74.5488 10.0375V11.3343L72.13 11.7569C71.6929 11.8346 71.3723 11.9755 71.1683 12.1795C70.9643 12.3737 70.8623 12.6263 70.8623 12.9372C70.8623 13.2383 70.974 13.486 71.1975 13.6803C71.4306 13.8648 71.7269 13.9571 72.0863 13.9571C72.5331 13.9571 72.9217 13.86 73.252 13.6657C73.592 13.4714 73.8542 13.214 74.0388 12.8934C74.2234 12.5632 74.3157 12.1989 74.3157 11.8006V9.77525C74.3157 9.38669 74.1699 9.07098 73.8785 8.82813C73.5968 8.57557 73.218 8.44929 72.742 8.44929C72.3049 8.44929 71.9211 8.56586 71.5909 8.79899C71.2703 9.02241 71.0323 9.31383 70.8769 9.67325L69.5072 8.98842C69.6529 8.59985 69.8909 8.25986 70.2212 7.96844C70.5515 7.66731 70.9352 7.43417 71.3723 7.26904C71.8192 7.1039 72.2903 7.02133 72.7857 7.02133C73.4074 7.02133 73.9562 7.1379 74.4322 7.37103C74.9179 7.60417 75.2919 7.92959 75.5542 8.34729C75.8262 8.75528 75.9622 9.23127 75.9622 9.77525V15.0791H74.3885V13.6511L74.7236 13.6949C74.5391 14.0154 74.3011 14.2923 74.0097 14.5254C73.728 14.7585 73.4025 14.9382 73.0334 15.0645C72.674 15.1908 72.2709 15.254 71.824 15.254ZM77.8874 17.9933V7.19618H79.461V8.82813L79.2716 8.44929C79.563 8.00244 79.9516 7.65274 80.4373 7.40017C80.923 7.14761 81.4767 7.02133 82.0984 7.02133C82.8464 7.02133 83.5166 7.20104 84.1092 7.56046C84.7115 7.91987 85.1826 8.41043 85.5226 9.03213C85.8723 9.65383 86.0471 10.3532 86.0471 11.1304C86.0471 11.9075 85.8723 12.6069 85.5226 13.2286C85.1826 13.8503 84.7163 14.3457 84.1238 14.7148C83.5312 15.0742 82.8561 15.254 82.0984 15.254C81.4864 15.254 80.9279 15.1277 80.4227 14.8751C79.9273 14.6225 79.5436 14.2583 79.2716 13.7823L79.5339 13.4763V17.9933H77.8874ZM81.9381 13.724C82.4044 13.724 82.8172 13.6123 83.1766 13.3889C83.5361 13.1654 83.8178 12.8594 84.0218 12.4709C84.2355 12.0726 84.3423 11.6258 84.3423 11.1304C84.3423 10.6349 84.2355 10.193 84.0218 9.80439C83.8178 9.41583 83.5361 9.10984 83.1766 8.88642C82.8172 8.663 82.4044 8.55128 81.9381 8.55128C81.4816 8.55128 81.0687 8.663 80.6996 8.88642C80.3402 9.10984 80.0536 9.41583 79.8399 9.80439C79.6359 10.193 79.5339 10.6349 79.5339 11.1304C79.5339 11.6258 79.6359 12.0726 79.8399 12.4709C80.0536 12.8594 80.3402 13.1654 80.6996 13.3889C81.0687 13.6123 81.4816 13.724 81.9381 13.724ZM87.6488 15.0791V4.04884H89.2953V15.0791H87.6488ZM91.2204 15.0791V7.19618H92.8669V15.0791H91.2204ZM91.2204 6.11792V4.22369H92.8669V6.11792H91.2204ZM98.5368 15.254C97.7499 15.254 97.0505 15.0742 96.4386 14.7148C95.8363 14.3457 95.3554 13.8503 94.996 13.2286C94.6463 12.6069 94.4715 11.9026 94.4715 11.1158C94.4715 10.3387 94.6463 9.63925 94.996 9.01756C95.3457 8.39586 95.8266 7.91016 96.4386 7.56046C97.0505 7.20104 97.7499 7.02133 98.5368 7.02133C99.0711 7.02133 99.5713 7.11847 100.038 7.31275C100.504 7.49731 100.907 7.75474 101.247 8.08501C101.597 8.41529 101.854 8.79899 102.019 9.23612L100.577 9.90639C100.412 9.4984 100.144 9.17298 99.7753 8.93013C99.4159 8.67757 99.0031 8.55128 98.5368 8.55128C98.0899 8.55128 97.6868 8.663 97.3274 8.88642C96.9777 9.10013 96.7008 9.40612 96.4968 9.80439C96.2928 10.193 96.1909 10.6349 96.1909 11.1304C96.1909 11.6258 96.2928 12.0726 96.4968 12.4709C96.7008 12.8594 96.9777 13.1654 97.3274 13.3889C97.6868 13.6123 98.0899 13.724 98.5368 13.724C99.0128 13.724 99.4256 13.6026 99.7753 13.3597C100.135 13.1072 100.402 12.772 100.577 12.3543L102.019 13.0392C101.864 13.4569 101.611 13.8357 101.262 14.1757C100.922 14.506 100.518 14.7683 100.052 14.9625C99.5859 15.1568 99.0808 15.254 98.5368 15.254ZM105.918 15.254C105.384 15.254 104.913 15.1617 104.505 14.9771C104.106 14.7828 103.795 14.5205 103.572 14.1903C103.349 13.8503 103.237 13.452 103.237 12.9954C103.237 12.568 103.329 12.1843 103.514 11.8443C103.708 11.5043 104.004 11.2178 104.403 10.9846C104.801 10.7515 105.301 10.5864 105.903 10.4892L108.643 10.0375V11.3343L106.224 11.7569C105.787 11.8346 105.466 11.9755 105.262 12.1795C105.058 12.3737 104.956 12.6263 104.956 12.9372C104.956 13.2383 105.068 13.486 105.291 13.6803C105.524 13.8648 105.821 13.9571 106.18 13.9571C106.627 13.9571 107.016 13.86 107.346 13.6657C107.686 13.4714 107.948 13.214 108.133 12.8934C108.317 12.5632 108.41 12.1989 108.41 11.8006V9.77525C108.41 9.38669 108.264 9.07098 107.972 8.82813C107.691 8.57557 107.312 8.44929 106.836 8.44929C106.399 8.44929 106.015 8.56586 105.685 8.79899C105.364 9.02241 105.126 9.31383 104.971 9.67325L103.601 8.98842C103.747 8.59985 103.985 8.25986 104.315 7.96844C104.645 7.66731 105.029 7.43417 105.466 7.26904C105.913 7.1039 106.384 7.02133 106.88 7.02133C107.501 7.02133 108.05 7.1379 108.526 7.37103C109.012 7.60417 109.386 7.92959 109.648 8.34729C109.92 8.75528 110.056 9.23127 110.056 9.77525V15.0791H108.482V13.6511L108.818 13.6949C108.633 14.0154 108.395 14.2923 108.104 14.5254C107.822 14.7585 107.496 14.9382 107.127 15.0645C106.768 15.1908 106.365 15.254 105.918 15.254ZM115.249 15.1665C114.423 15.1665 113.782 14.9334 113.325 14.4671C112.869 14.0008 112.64 13.3452 112.64 12.5V8.68242H111.256V7.19618H111.475C111.844 7.19618 112.13 7.08933 112.334 6.87562C112.538 6.66191 112.64 6.37049 112.64 6.00136V5.38937H114.287V7.19618H116.079V8.68242H114.287V12.4272C114.287 12.6992 114.331 12.9323 114.418 13.1266C114.505 13.3112 114.646 13.4569 114.841 13.5637C115.035 13.6609 115.287 13.7094 115.598 13.7094C115.676 13.7094 115.763 13.7046 115.861 13.6949C115.958 13.6851 116.05 13.6754 116.137 13.6657V15.0791C116.001 15.0985 115.851 15.118 115.686 15.1374C115.521 15.1568 115.375 15.1665 115.249 15.1665ZM117.744 15.0791V7.19618H119.391V15.0791H117.744ZM117.744 6.11792V4.22369H119.391V6.11792H117.744ZM123.603 15.0791L120.514 7.19618H122.307L124.682 13.622H124.026L126.401 7.19618H128.208L125.104 15.0791H123.603ZM132.988 15.254C132.23 15.254 131.536 15.0742 130.904 14.7148C130.282 14.3554 129.787 13.8648 129.418 13.2432C129.049 12.6215 128.864 11.9172 128.864 11.1304C128.864 10.3338 129.049 9.62954 129.418 9.01756C129.787 8.39586 130.282 7.91016 130.904 7.56046C131.526 7.20104 132.22 7.02133 132.988 7.02133C133.765 7.02133 134.459 7.20104 135.071 7.56046C135.693 7.91016 136.184 8.39586 136.543 9.01756C136.912 9.62954 137.097 10.3338 137.097 11.1304C137.097 11.9269 136.912 12.636 136.543 13.2577C136.174 13.8794 135.679 14.37 135.057 14.7294C134.435 15.0791 133.745 15.254 132.988 15.254ZM132.988 13.724C133.454 13.724 133.867 13.6123 134.226 13.3889C134.586 13.1654 134.867 12.8594 135.071 12.4709C135.285 12.0726 135.392 11.6258 135.392 11.1304C135.392 10.6349 135.285 10.193 135.071 9.80439C134.867 9.41583 134.586 9.10984 134.226 8.88642C133.867 8.663 133.454 8.55128 132.988 8.55128C132.531 8.55128 132.118 8.663 131.749 8.88642C131.39 9.10984 131.103 9.41583 130.89 9.80439C130.686 10.193 130.584 10.6349 130.584 11.1304C130.584 11.6258 130.686 12.0726 130.89 12.4709C131.103 12.8594 131.39 13.1654 131.749 13.3889C132.118 13.6123 132.531 13.724 132.988 13.724Z" fill="white"/>
<rect x="0.777474" y="31.0888" width="339.297" height="50.9986" rx="16.1322" fill="white" stroke="#EEEEEE" stroke-width="1.04079"/>
<path d="M19.343 56.7274L18.3813 56.0426L19.5762 54.4543L17.7839 53.8424L18.1482 52.7204L19.955 53.3178V51.3653H21.1353V53.3178L22.9421 52.7204L23.3063 53.8424L21.5141 54.4543L22.6944 56.0426L21.7472 56.7274L20.5379 55.1392L19.343 56.7274ZM26.6143 56.7274L25.6526 56.0426L26.8474 54.4543L25.0552 53.8424L25.4195 52.7204L27.2263 53.3178V51.3653H28.4065V53.3178L30.2134 52.7204L30.5776 53.8424L28.7854 54.4543L29.9656 56.0426L29.0185 56.7274L27.8091 55.1392L26.6143 56.7274ZM33.8856 56.7274L32.9239 56.0426L34.1187 54.4543L32.3265 53.8424L32.6908 52.7204L34.4976 53.3178V51.3653H35.6778V53.3178L37.4846 52.7204L37.8489 53.8424L36.0567 54.4543L37.2369 56.0426L36.2898 56.7274L35.0804 55.1392L33.8856 56.7274ZM41.1569 56.7274L40.1952 56.0426L41.39 54.4543L39.5978 53.8424L39.962 52.7204L41.7689 53.3178V51.3653H42.9491V53.3178L44.7559 52.7204L45.1202 53.8424L43.328 54.4543L44.5082 56.0426L43.5611 56.7274L42.3517 55.1392L41.1569 56.7274ZM48.4281 56.7274L47.4665 56.0426L48.6613 54.4543L46.8691 53.8424L47.2333 52.7204L49.0401 53.3178V51.3653H50.2204V53.3178L52.0272 52.7204L52.3915 53.8424L50.5992 54.4543L51.7795 56.0426L50.8324 56.7274L49.623 55.1392L48.4281 56.7274ZM55.6994 56.7274L54.7377 56.0426L55.9326 54.4543L54.1403 53.8424L54.5046 52.7204L56.3114 53.3178V51.3653H57.4917V53.3178L59.2985 52.7204L59.6627 53.8424L57.8705 54.4543L59.0508 56.0426L58.1036 56.7274L56.8943 55.1392L55.6994 56.7274ZM62.9707 56.7274L62.009 56.0426L63.2038 54.4543L61.4116 53.8424L61.7759 52.7204L63.5827 53.3178V51.3653H64.7629V53.3178L66.5698 52.7204L66.934 53.8424L65.1418 54.4543L66.322 56.0426L65.3749 56.7274L64.1655 55.1392L62.9707 56.7274ZM70.242 56.7274L69.2803 56.0426L70.4751 54.4543L68.6829 53.8424L69.0472 52.7204L70.854 53.3178V51.3653H72.0342V53.3178L73.841 52.7204L74.2053 53.8424L72.4131 54.4543L73.5933 56.0426L72.6462 56.7274L71.4368 55.1392L70.242 56.7274ZM77.5133 56.7274L76.5516 56.0426L77.7464 54.4543L75.9542 53.8424L76.3184 52.7204L78.1253 53.3178V51.3653H79.3055V53.3178L81.1123 52.7204L81.4766 53.8424L79.6844 54.4543L80.8646 56.0426L79.9175 56.7274L78.7081 55.1392L77.5133 56.7274ZM84.7845 56.7274L83.8229 56.0426L85.0177 54.4543L83.2254 53.8424L83.5897 52.7204L85.3965 53.3178V51.3653H86.5768V53.3178L88.3836 52.7204L88.7479 53.8424L86.9556 54.4543L88.1359 56.0426L87.1888 56.7274L85.9794 55.1392L84.7845 56.7274Z" fill="#2C2C2C"/>
</svg>
